<svg id="index-2" xmlns="http://www.w3.org/2000/svg" xmlns:xlink="http://www.w3.org/1999/xlink" viewBox="0 0 470 435" shape-rendering="geometricPrecision" text-rendering="geometricPrecision"><style><![CDATA[#index-2-animated_to {animation: index-2-animated_to__to 3000ms linear infinite normal forwards}@keyframes index-2-animated_to__to { 0% {transform: translate(124.018575px,254.828px);animation-timing-function: cubic-bezier(0.445,0.05,0.55,0.95)} 50% {transform: translate(100.929083px,254.828022px)} 100% {transform: translate(124.018575px,254.828px)}} #index-2-animated2_to {animation: index-2-animated2_to__to 3000ms linear infinite normal forwards}@keyframes index-2-animated2_to__to { 0% {transform: translate(92.584255px,254.82801px);animation-timing-function: cubic-bezier(0.445,0.05,0.55,0.95)} 50% {transform: translate(127.677661px,254.795228px);animation-timing-function: cubic-bezier(0.445,0.05,0.55,0.95)} 100% {transform: translate(92.584255px,254.82801px)}} #index-2-animated3_to {animation: index-2-animated3_to__to 3000ms linear infinite normal forwards}@keyframes index-2-animated3_to__to { 0% {transform: translate(92.584255px,254.82801px);animation-timing-function: cubic-bezier(0.445,0.05,0.55,0.95)} 50% {transform: translate(127.677661px,254.795228px);animation-timing-function: cubic-bezier(0.445,0.05,0.55,0.95)} 100% {transform: translate(92.584255px,254.82801px)}} #index-2-triangle_tr {animation: index-2-triangle_tr__tr 3000ms linear infinite normal forwards}@keyframes index-2-triangle_tr__tr { 0% {transform: translate(152.138294px,380px) rotate(0deg)} 100% {transform: translate(152.138294px,380px) rotate(360deg)}}]]></style><g id="index-2-container" transform="matrix(1 0 0 1 4.018714 7.784882)"><g id="index-2-lines"><g id="index-2-middle" transform="matrix(1 0 0 1 25.071576 -0.000005)"><line id="index-2-static" x1="-102.475766" y1="0" x2="102.475766" y2="0" transform="matrix(0.379064 0 0 1 177.345067 254.828)" fill="rgb(51,34,51)" stroke="rgb(51,34,51)" stroke-width="5"/><g id="index-2-animated_to" transform="translate(124.018575,254.828)"><g id="index-2-animated" transform="translate(-92.584255,-254.82801)"><line id="index-2-line1" x1="-102.475766" y1="0" x2="102.475766" y2="0" transform="matrix(0.379064 0 0 1 99.655326 254.828)" fill="rgb(51,34,51)" stroke="rgb(51,34,51)" stroke-width="5"/><rect id="index-2-rect1" width="20" height="20" rx="2" ry="2" transform="matrix(0.707107 0.707107 -0.707107 0.707107 60.810452 240.685864)" fill="rgb(51,34,51)" stroke="none" stroke-width="1"/></g></g></g><g id="index-2-bot" transform="matrix(-1 0 0 -1 379.761718 641.248154)"><g id="index-2-animated2_to" transform="translate(92.584255,254.82801)"><g id="index-2-animated2" transform="translate(-92.584255,-254.82801)"><line id="index-2-line2" x1="-102.475766" y1="0" x2="102.475766" y2="0" transform="matrix(0.379064 0 0 1 99.655326 254.828)" fill="rgb(51,34,51)" stroke="rgb(51,34,51)" stroke-width="5"/><rect id="index-2-rect2" width="20" height="20" rx="2" ry="2" transform="matrix(0.707107 0.707107 -0.707107 0.707107 60.810452 240.685864)" fill="rgb(51,34,51)" stroke="none" stroke-width="1"/></g></g><line id="index-2-static2" x1="-102.475766" y1="0" x2="102.475766" y2="0" transform="matrix(0.379064 0 0 1 177.345067 254.828)" fill="rgb(51,34,51)" stroke="rgb(51,34,51)" stroke-width="5"/></g><g id="index-2-top" transform="matrix(0 -1 1 0 -91.256234 249.816727)"><g id="index-2-animated3_to" transform="translate(92.584255,254.82801)"><g id="index-2-animated3" transform="translate(-92.584255,-254.82801)"><line id="index-2-line3" x1="-102.475766" y1="0" x2="102.475766" y2="0" transform="matrix(0.379064 0 0 1 99.655326 254.828)" fill="rgb(51,34,51)" stroke="rgb(51,34,51)" stroke-width="5"/><rect id="index-2-rect3" width="20" height="20" rx="2" ry="2" transform="matrix(0.707107 0.707107 -0.707107 0.707107 60.810452 240.685864)" fill="rgb(51,34,51)" stroke="none" stroke-width="1"/></g></g><line id="index-2-static3" x1="-102.475766" y1="0" x2="102.475766" y2="0" transform="matrix(0.379064 0 0 1 177.345067 254.828)" fill="rgb(51,34,51)" stroke="rgb(51,34,51)" stroke-width="5"/></g></g><g id="index-2-x"><path id="index-2-path1" d="M340.281,246.219L285.719,145.813L320.734,145.813L357.859,219.5L393.719,145.813L428.734,145.813L373.75,246.781L421.703,334.953L452.219,334.953C451.844,338.234,450.906,341.375,449.406,344.375C448,347.281,446.172,349.812,443.922,351.969C441.766,354.125,439.281,355.859,436.469,357.172C433.656,358.391,430.703,359,427.609,359L399.906,359L355.75,273.781L314.547,359L278.547,359L340.281,246.219Z" fill="rgb(255,242,255)" stroke="none" stroke-width="1"/></g><g id="index-2-object"><g id="index-2-circle"><circle id="index-2-fill" r="62" transform="matrix(1 0 0 1 298 104.524)" fill="rgb(255,0,60)" fill-opacity="0.55" stroke="none" stroke-width="1"/></g><g id="index-2-triangle_tr" transform="translate(152.138294,380) rotate(0)"><g id="index-2-triangle" transform="translate(-138.5002,-380)"><path id="index-2-stroke" d="M138.5,334.524L181.368,409.524L95.6317,409.524L138.5,334.524Z" fill="rgb(255,242,255)" stroke="none" stroke-width="1"/><path id="index-2-fill2" d="M96.4934,409.024L138.5,335.532L180.507,409.024L96.4934,409.024Z" fill="none" stroke="rgb(17,9,20)" stroke-width="1" stroke-opacity="0.15"/></g></g></g><g id="index-2-q"><path id="index-2-path2" d="M90.1084,306C90.6292,301.443,91.8662,297.146,93.8193,293.109C95.9026,289.073,98.5068,285.557,101.632,282.562C104.757,279.438,108.207,277.029,111.983,275.336C115.89,273.513,119.991,272.602,124.288,272.602L213.351,272.602L213.351,42.9141L120.968,42.9141L120.968,216.156L111.202,216.156C106.124,216.156,101.306,214.854,96.749,212.25C92.3219,209.646,88.4157,206.13,85.0302,201.703C81.6448,197.146,78.9756,191.872,77.0224,185.883C75.0693,179.763,74.0927,173.253,74.0927,166.352L74.0927,59.5156C74.0927,52.6146,75.0693,46.1693,77.0224,40.1797C78.9756,34.0599,81.6448,28.7865,85.0302,24.3594C88.4157,19.8021,92.3219,16.2865,96.749,13.8125C101.176,11.2083,105.929,9.90625,111.007,9.90625L222.726,9.90625C227.804,9.90625,232.621,11.2083,237.179,13.8125C241.736,16.2865,245.707,19.8021,249.093,24.3594C252.478,28.7865,255.147,34.0599,257.101,40.1797C259.054,46.1693,260.03,52.6146,260.03,59.5156L260.03,226.117C260.03,231.456,259.379,236.599,258.077,241.547C256.775,246.365,254.952,250.792,252.608,254.828C250.265,258.734,247.465,262.25,244.21,265.375C240.955,268.37,237.374,270.779,233.468,272.602L303.194,272.602C302.673,277.159,301.371,281.456,299.288,285.492C297.335,289.529,294.796,293.109,291.671,296.234C288.676,299.229,285.226,301.638,281.319,303.461C277.413,305.154,273.311,306,269.015,306L90.1084,306Z" fill="rgb(255,242,255)" stroke="none" stroke-width="1"/></g></g></svg>