<svg id="remix-icon" xmlns="http://www.w3.org/2000/svg" xmlns:xlink="http://www.w3.org/1999/xlink" viewBox="0 0 800 800" shape-rendering="geometricPrecision" text-rendering="geometricPrecision"><g id="remix-icon-g1"><path id="remix-icon-path1" d="M587.947,527.768C592.201,582.418,592.201,608.036,592.201,636L465.756,636C465.756,629.909,465.865,624.337,465.975,618.687C466.317,601.123,466.674,582.807,463.828,545.819C460.067,491.667,436.748,479.634,393.871,479.634L355.883,479.634L195,479.634L195,381.109L399.889,381.109C454.049,381.109,481.13,364.633,481.13,321.011C481.13,282.654,454.049,259.41,399.889,259.41L195,259.41L195,163L422.456,163C545.069,163,606,220.912,606,313.42C606,382.613,563.123,427.739,505.201,435.26C554.096,445.037,582.681,472.865,587.947,527.768Z" clip-rule="evenodd" fill="rgb(232,242,255)" fill-rule="evenodd" stroke="none" stroke-width="1"/><path id="remix-icon-path2" d="M195,636L195,562.553L328.697,562.553C351.029,562.553,355.878,579.116,355.878,588.994L355.878,636L195,636Z" fill="rgb(232,242,255)" stroke="none" stroke-width="1"/></g></svg>