<svg id="remix-logo" xmlns="http://www.w3.org/2000/svg" xmlns:xlink="http://www.w3.org/1999/xlink" viewBox="0 0 1200 627" shape-rendering="geometricPrecision" text-rendering="geometricPrecision"><path id="remix-logo-path1" d="M378.744,361.947C380.387,383.214,380.387,393.183,380.387,404.065L331.558,404.065C331.558,401.694,331.6,399.526,331.642,397.327C331.774,390.492,331.912,383.365,330.813,368.971C329.361,347.899,320.356,343.216,303.798,343.216L289.128,343.216L227,343.216L227,304.876L306.122,304.876C327.037,304.876,337.494,298.464,337.494,281.489C337.494,266.563,327.037,257.517,306.122,257.517L227,257.517L227,220L314.836,220C362.186,220,385.716,242.536,385.716,278.535C385.716,305.461,369.158,323.021,346.79,325.948C365.672,329.753,376.71,340.582,378.744,361.947Z" clip-rule="evenodd" fill="rgb(18,18,18)" fill-rule="evenodd" stroke="none" stroke-width="1"/><path id="remix-logo-path2" d="M227,404.065L227,375.483L278.63,375.483C287.254,375.483,289.126,381.929,289.126,385.772L289.126,404.065L227,404.065Z" fill="rgb(18,18,18)" stroke="none" stroke-width="1"/><path id="remix-logo-path3" d="M967.943,275.524L919.548,275.524L897.523,306.474L876.079,275.524L824.206,275.524L870.862,339.467L820.148,405.745L868.544,405.745L894.336,370.416L920.127,405.745L972,405.745L920.996,337.423L967.943,275.524Z" fill="rgb(18,18,18)" stroke="none" stroke-width="1"/><path id="remix-logo-path4" d="M663.111,297.105C657.604,281.922,645.723,271.411,622.829,271.411C603.413,271.411,589.503,280.171,582.548,294.477L582.548,274.915L535.602,274.915L535.602,405.135L582.548,405.135L582.548,341.193C582.548,321.631,588.054,308.784,603.413,308.784C617.613,308.784,621.091,318.127,621.091,335.938L621.091,405.135L668.037,405.135L668.037,341.193C668.037,321.631,673.253,308.784,688.902,308.784C703.102,308.784,706.29,318.127,706.29,335.938L706.29,405.135L753.236,405.135L753.236,323.383C753.236,296.229,742.804,271.411,707.159,271.411C685.425,271.411,670.066,282.506,663.111,297.105Z" fill="rgb(18,18,18)" stroke="none" stroke-width="1"/><path id="remix-logo-path5" d="M486.716,354.599C482.369,364.818,474.255,369.197,461.504,369.197C447.304,369.197,435.712,361.606,434.553,345.547L525.258,345.547L525.258,332.409C525.258,297.08,502.365,267.298,459.185,267.298C418.904,267.298,388.766,296.788,388.766,337.956C388.766,379.416,418.325,404.526,459.765,404.526C493.961,404.526,517.724,387.884,524.389,358.102L486.716,354.599ZM435.133,322.773C436.871,310.51,443.537,301.167,458.606,301.167C472.516,301.167,480.05,311.094,480.63,322.773L435.133,322.773Z" fill="rgb(18,18,18)" stroke="none" stroke-width="1"/><path id="remix-logo-path6" d="M768.592,275.78L768.592,406L815.538,406L815.538,275.78L768.592,275.78ZM768.302,263.517L815.828,263.517L815.828,222.056L768.302,222.056L768.302,263.517Z" fill="rgb(18,18,18)" stroke="none" stroke-width="1"/></svg>