<svg xmlns="http://www.w3.org/2000/svg" version="1.1" xmlns:xlink="http://www.w3.org/1999/xlink" xmlns:svgjs="http://svgjs.com/svgjs" width="1440" height="560" preserveAspectRatio="none" viewBox="0 0 1440 560"><g mask="url(&quot;#SvgjsMask1038&quot;)" fill="none"><path d="M1348.0850355087307 658.5577208040236L1461.9067089517378 592.8427470020897 1396.191735149804 479.0210735590826 1282.3700617067968 544.7360473610165z" fill="rgba(255, 0, 60, 0.6)" class="triangle-float2"></path><path d="M1285.500660959941 451.0341226008244L1400.2613768575873 354.7384482174687 1189.2049865765853 336.27340670317807z" fill="rgba(255, 0, 60, 0.6)" class="triangle-float2"></path><path d="M599.41504445144 586.4084233323968L738.4733831246629 628.9228239774703 641.9294450965136 447.35008465917394z" fill="rgba(255, 0, 60, 0.6)" class="triangle-float2"></path><path d="M350.201,473.321C368.228,472.972,384.003,461.421,392.225,445.375C399.78,430.631,396.099,413.737,388.191,399.179C379.811,383.752,367.755,368.246,350.201,368.011C332.371,367.773,319.222,382.637,310.409,398.139C301.724,413.417,297.041,431.526,305.262,447.059C313.961,463.495,331.608,473.681,350.201,473.321" fill="rgba(255, 0, 60, 0.6)" class="triangle-float3"></path><path d="M445.784,672.678C491.663,673.704,533.496,644.361,553.834,603.224C572.243,565.987,558.334,523.82,536.998,488.179C516.397,453.765,485.892,422.98,445.784,422.728C405.328,422.474,372.563,451.852,352.565,487.021C332.829,521.729,327.875,562.891,345.791,598.573C365.743,638.31,401.33,671.684,445.784,672.678" fill="rgba(255, 0, 60, 0.6)" class="triangle-float2"></path><path d="M749.1709655211462 560.661740352519L754.7065718535649 455.03607927418113 593.5002770698486 499.5455003147219z" fill="rgba(255, 0, 60, 0.6)" class="triangle-float2"></path><path d="M1404.028,613.743C1435.538,614.05,1466.312,599.52,1481.754,572.052C1496.927,545.064,1492.565,511.785,1476.082,485.576C1460.666,461.063,1432.98,448.986,1404.028,448.459C1373.985,447.912,1343.033,457.278,1327.284,482.868C1310.86,509.555,1313.029,543.532,1328.88,570.563C1344.543,597.273,1373.065,613.442,1404.028,613.743" fill="rgba(255, 0, 60, 0.6)" class="triangle-float2"></path><path d="M342.618,99.861C367.468,100.06,393.413,91.19,405.078,69.247C416.24,48.251,404.995,24.616,393.76,3.658C381.577,-19.068,368.379,-46.162,342.618,-47.268C315.773,-48.421,295.76,-24.87,283.254,-1.088C271.72,20.845,269.305,46.899,281.867,68.26C294.268,89.349,318.154,99.665,342.618,99.861" fill="rgba(255, 0, 60, 0.6)" class="triangle-float1"></path></g><defs><mask id="SvgjsMask1038"><rect width="1440" height="560" fill="#ffffff"></rect></mask><style>
            @keyframes float1 {
                0%{transform: translate(0, 0)}
                50%{transform: translate(-10px, 0)}
                100%{transform: translate(0, 0)}
            }

            .triangle-float1 {
                animation: float1 5s infinite;
            }

            @keyframes float2 {
                0%{transform: translate(0, 0)}
                50%{transform: translate(-5px, -5px)}
                100%{transform: translate(0, 0)}
            }

            .triangle-float2 {
                animation: float2 4s infinite;
            }

            @keyframes float3 {
                0%{transform: translate(0, 0)}
                50%{transform: translate(0, -10px)}
                100%{transform: translate(0, 0)}
            }

            .triangle-float3 {
                animation: float3 6s infinite;
            }
        </style></defs></svg>