<svg xmlns="http://www.w3.org/2000/svg" version="1.1" xmlns:xlink="http://www.w3.org/1999/xlink" xmlns:svgjs="http://svgjs.com/svgjs" width="1453" height="560" preserveAspectRatio="none" viewBox="0 0 1453 560"><g mask="url(&quot;#SvgjsMask1340&quot;)" fill="none"><g mask="url(&quot;#SvgjsMask1341&quot;)"><path d="M724.5 -11.5L747.5 11.5" stroke="rgba(255, 222, 0, 1)" stroke-width="3.83"></path><path d="M741.75 11.5 a5.75 5.75 0 1 0 11.5 0 a5.75 5.75 0 1 0 -11.5 0z" fill="rgba(255, 222, 0, 1)"></path><path d="M770.5 34.5L770.5 57.5L793.5 80.5L793.5 103.5L793.5 126.5M747.5 -11.5L770.5 11.5L770.5 34.5L793.5 57.5L816.5 80.5" stroke="rgba(255, 222, 0, 1)" stroke-width="3.83"></path><path d="M810.75 80.5 a5.75 5.75 0 1 0 11.5 0 a5.75 5.75 0 1 0 -11.5 0zM787.75 126.5 a5.75 5.75 0 1 0 11.5 0 a5.75 5.75 0 1 0 -11.5 0z" fill="rgba(255, 222, 0, 1)"></path><path d="M701.5 195.5L724.5 218.5L724.5 241.5M701.5 149.5L724.5 172.5M701.5 241.5L678.5 264.5L678.5 287.5L678.5 310.5L678.5 333.5M701.5 -11.5L701.5 11.5L701.5 34.5L701.5 57.5L701.5 80.5L701.5 103.5L701.5 126.5L701.5 149.5L701.5 172.5L701.5 195.5L701.5 218.5L701.5 241.5L701.5 264.5L701.5 287.5" stroke="rgba(255, 0, 60, 1)" stroke-width="3.83"></path><path d="M695.75 287.5 a5.75 5.75 0 1 0 11.5 0 a5.75 5.75 0 1 0 -11.5 0zM718.75 241.5 a5.75 5.75 0 1 0 11.5 0 a5.75 5.75 0 1 0 -11.5 0zM718.75 172.5 a5.75 5.75 0 1 0 11.5 0 a5.75 5.75 0 1 0 -11.5 0zM672.75 333.5 a5.75 5.75 0 1 0 11.5 0 a5.75 5.75 0 1 0 -11.5 0z" fill="rgba(255, 0, 60, 1)"></path><path d="M839.5 126.5L816.5 149.5M839.5 195.5L816.5 218.5M839.5 103.5L816.5 126.5M770.5 -11.5L793.5 11.5L793.5 34.5L816.5 57.5L839.5 80.5L839.5 103.5L839.5 126.5L839.5 149.5L839.5 172.5L839.5 195.5L839.5 218.5" stroke="rgba(255, 0, 60, 1)" stroke-width="3.83"></path><path d="M833.75 218.5 a5.75 5.75 0 1 0 11.5 0 a5.75 5.75 0 1 0 -11.5 0zM810.75 149.5 a5.75 5.75 0 1 0 11.5 0 a5.75 5.75 0 1 0 -11.5 0zM810.75 218.5 a5.75 5.75 0 1 0 11.5 0 a5.75 5.75 0 1 0 -11.5 0zM810.75 126.5 a5.75 5.75 0 1 0 11.5 0 a5.75 5.75 0 1 0 -11.5 0z" fill="rgba(255, 0, 60, 1)"></path><path d="M678.5 103.5L655.5 126.5M678.5 -11.5L678.5 11.5L678.5 34.5L678.5 57.5L678.5 80.5L678.5 103.5L678.5 126.5" stroke="rgba(255, 222, 0, 1)" stroke-width="3.83"></path><path d="M672.75 126.5 a5.75 5.75 0 1 0 11.5 0 a5.75 5.75 0 1 0 -11.5 0zM649.75 126.5 a5.75 5.75 0 1 0 11.5 0 a5.75 5.75 0 1 0 -11.5 0z" fill="rgba(255, 222, 0, 1)"></path><path d="M793.5 -11.5L816.5 11.5L816.5 34.5L839.5 57.5L862.5 80.5L862.5 103.5L862.5 126.5L862.5 149.5" stroke="rgba(255, 0, 60, 1)" stroke-width="3.83"></path><path d="M856.75 149.5 a5.75 5.75 0 1 0 11.5 0 a5.75 5.75 0 1 0 -11.5 0z" fill="rgba(255, 0, 60, 1)"></path><path d="M655.5 -11.5L655.5 11.5L655.5 34.5L655.5 57.5L655.5 80.5" stroke="rgba(255, 222, 0, 1)" stroke-width="3.83"></path><path d="M649.75 80.5 a5.75 5.75 0 1 0 11.5 0 a5.75 5.75 0 1 0 -11.5 0z" fill="rgba(255, 222, 0, 1)"></path><path d="M839.5 11.5L839.5 34.5M816.5 -11.5L839.5 11.5L862.5 34.5L862.5 57.5L885.5 80.5L885.5 103.5L885.5 126.5" stroke="rgba(255, 222, 0, 1)" stroke-width="3.83"></path><path d="M879.75 126.5 a5.75 5.75 0 1 0 11.5 0 a5.75 5.75 0 1 0 -11.5 0zM833.75 34.5 a5.75 5.75 0 1 0 11.5 0 a5.75 5.75 0 1 0 -11.5 0z" fill="rgba(255, 222, 0, 1)"></path><path d="M632.5 -11.5L632.5 11.5L632.5 34.5L632.5 57.5" stroke="rgba(255, 0, 60, 1)" stroke-width="3.83"></path><path d="M626.75 57.5 a5.75 5.75 0 1 0 11.5 0 a5.75 5.75 0 1 0 -11.5 0z" fill="rgba(255, 0, 60, 1)"></path><path d="M839.5 -11.5L862.5 11.5" stroke="rgba(255, 222, 0, 1)" stroke-width="3.83"></path><path d="M856.75 11.5 a5.75 5.75 0 1 0 11.5 0 a5.75 5.75 0 1 0 -11.5 0z" fill="rgba(255, 222, 0, 1)"></path><path d="M609.5 103.5L586.5 126.5L586.5 149.5M609.5 80.5L632.5 103.5M609.5 126.5L632.5 149.5M609.5 -11.5L609.5 11.5L609.5 34.5L609.5 57.5L609.5 80.5L609.5 103.5L609.5 126.5L609.5 149.5L609.5 172.5" stroke="rgba(255, 222, 0, 1)" stroke-width="3.83"></path><path d="M603.75 172.5 a5.75 5.75 0 1 0 11.5 0 a5.75 5.75 0 1 0 -11.5 0zM580.75 149.5 a5.75 5.75 0 1 0 11.5 0 a5.75 5.75 0 1 0 -11.5 0zM626.75 103.5 a5.75 5.75 0 1 0 11.5 0 a5.75 5.75 0 1 0 -11.5 0zM626.75 149.5 a5.75 5.75 0 1 0 11.5 0 a5.75 5.75 0 1 0 -11.5 0z" fill="rgba(255, 222, 0, 1)"></path><path d="M908.5 149.5L885.5 172.5L885.5 195.5M908.5 218.5L885.5 241.5L885.5 264.5L885.5 287.5M862.5 -11.5L885.5 11.5L885.5 34.5L885.5 57.5L908.5 80.5L908.5 103.5L908.5 126.5L908.5 149.5L908.5 172.5L908.5 195.5L908.5 218.5L908.5 241.5" stroke="rgba(255, 0, 60, 1)" stroke-width="3.83"></path><path d="M902.75 241.5 a5.75 5.75 0 1 0 11.5 0 a5.75 5.75 0 1 0 -11.5 0zM879.75 195.5 a5.75 5.75 0 1 0 11.5 0 a5.75 5.75 0 1 0 -11.5 0zM879.75 287.5 a5.75 5.75 0 1 0 11.5 0 a5.75 5.75 0 1 0 -11.5 0z" fill="rgba(255, 0, 60, 1)"></path><path d="M586.5 195.5L609.5 218.5L609.5 241.5M586.5 57.5L586.5 80.5M563.5 172.5L563.5 195.5L563.5 218.5L563.5 241.5L563.5 264.5M586.5 -11.5L586.5 11.5L586.5 34.5L586.5 57.5L563.5 80.5L563.5 103.5L563.5 126.5L563.5 149.5L563.5 172.5L586.5 195.5L586.5 218.5L586.5 241.5L586.5 264.5" stroke="rgba(255, 222, 0, 1)" stroke-width="3.83"></path><path d="M580.75 264.5 a5.75 5.75 0 1 0 11.5 0 a5.75 5.75 0 1 0 -11.5 0zM603.75 241.5 a5.75 5.75 0 1 0 11.5 0 a5.75 5.75 0 1 0 -11.5 0zM580.75 80.5 a5.75 5.75 0 1 0 11.5 0 a5.75 5.75 0 1 0 -11.5 0zM557.75 264.5 a5.75 5.75 0 1 0 11.5 0 a5.75 5.75 0 1 0 -11.5 0z" fill="rgba(255, 222, 0, 1)"></path><path d="M931.5 195.5L954.5 218.5M931.5 149.5L954.5 172.5M931.5 103.5L954.5 126.5L954.5 149.5M885.5 -11.5L908.5 11.5L908.5 34.5L908.5 57.5L931.5 80.5L931.5 103.5L931.5 126.5L931.5 149.5L931.5 172.5L931.5 195.5L931.5 218.5L931.5 241.5L931.5 264.5" stroke="rgba(255, 0, 60, 1)" stroke-width="3.83"></path><path d="M925.75 264.5 a5.75 5.75 0 1 0 11.5 0 a5.75 5.75 0 1 0 -11.5 0zM948.75 218.5 a5.75 5.75 0 1 0 11.5 0 a5.75 5.75 0 1 0 -11.5 0zM948.75 172.5 a5.75 5.75 0 1 0 11.5 0 a5.75 5.75 0 1 0 -11.5 0zM948.75 149.5 a5.75 5.75 0 1 0 11.5 0 a5.75 5.75 0 1 0 -11.5 0z" fill="rgba(255, 0, 60, 1)"></path><path d="M563.5 -11.5L563.5 11.5L563.5 34.5L563.5 57.5" stroke="rgba(255, 222, 0, 1)" stroke-width="3.83"></path><path d="M557.75 57.5 a5.75 5.75 0 1 0 11.5 0 a5.75 5.75 0 1 0 -11.5 0z" fill="rgba(255, 222, 0, 1)"></path><path d="M908.5 -11.5L931.5 11.5L931.5 34.5L931.5 57.5L954.5 80.5" stroke="rgba(255, 0, 60, 1)" stroke-width="3.83"></path><path d="M948.75 80.5 a5.75 5.75 0 1 0 11.5 0 a5.75 5.75 0 1 0 -11.5 0z" fill="rgba(255, 0, 60, 1)"></path><path d="M540.5 172.5L517.5 195.5L494.5 218.5L494.5 241.5L494.5 264.5M540.5 34.5L517.5 57.5L517.5 80.5M540.5 149.5L517.5 172.5M540.5 -11.5L540.5 11.5L540.5 34.5L540.5 57.5L540.5 80.5L540.5 103.5L540.5 126.5L540.5 149.5L540.5 172.5L540.5 195.5L517.5 218.5L517.5 241.5" stroke="rgba(255, 0, 60, 1)" stroke-width="3.83"></path><path d="M511.75 241.5 a5.75 5.75 0 1 0 11.5 0 a5.75 5.75 0 1 0 -11.5 0zM488.75 264.5 a5.75 5.75 0 1 0 11.5 0 a5.75 5.75 0 1 0 -11.5 0zM511.75 80.5 a5.75 5.75 0 1 0 11.5 0 a5.75 5.75 0 1 0 -11.5 0zM511.75 172.5 a5.75 5.75 0 1 0 11.5 0 a5.75 5.75 0 1 0 -11.5 0z" fill="rgba(255, 0, 60, 1)"></path><path d="M977.5 195.5L1000.5 218.5M977.5 241.5L954.5 264.5M931.5 -11.5L954.5 11.5L954.5 34.5L954.5 57.5L977.5 80.5L977.5 103.5L977.5 126.5L977.5 149.5L977.5 172.5L977.5 195.5L977.5 218.5L977.5 241.5L977.5 264.5" stroke="rgba(255, 222, 0, 1)" stroke-width="3.83"></path><path d="M971.75 264.5 a5.75 5.75 0 1 0 11.5 0 a5.75 5.75 0 1 0 -11.5 0zM994.75 218.5 a5.75 5.75 0 1 0 11.5 0 a5.75 5.75 0 1 0 -11.5 0zM948.75 264.5 a5.75 5.75 0 1 0 11.5 0 a5.75 5.75 0 1 0 -11.5 0z" fill="rgba(255, 222, 0, 1)"></path><path d="M1023.5 149.5L1000.5 172.5M1000.5 126.5L1000.5 149.5M954.5 -11.5L977.5 11.5L977.5 34.5L977.5 57.5L1000.5 80.5L1000.5 103.5L1000.5 126.5L1023.5 149.5L1023.5 172.5L1023.5 195.5L1023.5 218.5" stroke="rgba(255, 222, 0, 1)" stroke-width="3.83"></path><path d="M1017.75 218.5 a5.75 5.75 0 1 0 11.5 0 a5.75 5.75 0 1 0 -11.5 0zM994.75 172.5 a5.75 5.75 0 1 0 11.5 0 a5.75 5.75 0 1 0 -11.5 0zM994.75 149.5 a5.75 5.75 0 1 0 11.5 0 a5.75 5.75 0 1 0 -11.5 0z" fill="rgba(255, 222, 0, 1)"></path><path d="M494.5 -11.5L494.5 11.5" stroke="rgba(255, 0, 60, 1)" stroke-width="3.83"></path><path d="M488.75 11.5 a5.75 5.75 0 1 0 11.5 0 a5.75 5.75 0 1 0 -11.5 0z" fill="rgba(255, 0, 60, 1)"></path><path d="M1023.5 103.5L1046.5 126.5M1046.5 264.5L1023.5 287.5L1023.5 310.5L1023.5 333.5M1000.5 34.5L1023.5 57.5L1046.5 80.5L1046.5 103.5M977.5 -11.5L1000.5 11.5L1000.5 34.5L1000.5 57.5L1023.5 80.5L1023.5 103.5L1023.5 126.5L1046.5 149.5L1046.5 172.5L1046.5 195.5L1046.5 218.5L1046.5 241.5L1046.5 264.5L1046.5 287.5" stroke="rgba(255, 0, 60, 1)" stroke-width="3.83"></path><path d="M1040.75 287.5 a5.75 5.75 0 1 0 11.5 0 a5.75 5.75 0 1 0 -11.5 0zM1040.75 126.5 a5.75 5.75 0 1 0 11.5 0 a5.75 5.75 0 1 0 -11.5 0zM1017.75 333.5 a5.75 5.75 0 1 0 11.5 0 a5.75 5.75 0 1 0 -11.5 0zM1040.75 103.5 a5.75 5.75 0 1 0 11.5 0 a5.75 5.75 0 1 0 -11.5 0z" fill="rgba(255, 0, 60, 1)"></path><path d="M448.5 80.5L471.5 103.5L471.5 126.5M448.5 149.5L448.5 172.5L448.5 195.5L448.5 218.5L448.5 241.5M448.5 57.5L471.5 80.5L494.5 103.5L494.5 126.5L494.5 149.5M471.5 -11.5L471.5 11.5L471.5 34.5L448.5 57.5L448.5 80.5L448.5 103.5L448.5 126.5L448.5 149.5L471.5 172.5L471.5 195.5L471.5 218.5" stroke="rgba(255, 0, 60, 1)" stroke-width="3.83"></path><path d="M465.75 218.5 a5.75 5.75 0 1 0 11.5 0 a5.75 5.75 0 1 0 -11.5 0zM465.75 126.5 a5.75 5.75 0 1 0 11.5 0 a5.75 5.75 0 1 0 -11.5 0zM442.75 241.5 a5.75 5.75 0 1 0 11.5 0 a5.75 5.75 0 1 0 -11.5 0zM488.75 149.5 a5.75 5.75 0 1 0 11.5 0 a5.75 5.75 0 1 0 -11.5 0z" fill="rgba(255, 0, 60, 1)"></path><path d="M1000.5 -11.5L1023.5 11.5" stroke="rgba(255, 222, 0, 1)" stroke-width="3.83"></path><path d="M1017.75 11.5 a5.75 5.75 0 1 0 11.5 0 a5.75 5.75 0 1 0 -11.5 0z" fill="rgba(255, 222, 0, 1)"></path><path d="M448.5 -11.5L448.5 11.5L448.5 34.5" stroke="rgba(255, 222, 0, 1)" stroke-width="3.83"></path><path d="M442.75 34.5 a5.75 5.75 0 1 0 11.5 0 a5.75 5.75 0 1 0 -11.5 0z" fill="rgba(255, 222, 0, 1)"></path><path d="M1046.5 11.5L1046.5 34.5L1046.5 57.5M1069.5 218.5L1092.5 241.5L1092.5 264.5L1092.5 287.5M1023.5 -11.5L1046.5 11.5L1069.5 34.5L1069.5 57.5L1069.5 80.5L1069.5 103.5L1069.5 126.5L1069.5 149.5L1069.5 172.5L1069.5 195.5L1069.5 218.5L1069.5 241.5" stroke="rgba(255, 0, 60, 1)" stroke-width="3.83"></path><path d="M1063.75 241.5 a5.75 5.75 0 1 0 11.5 0 a5.75 5.75 0 1 0 -11.5 0zM1040.75 57.5 a5.75 5.75 0 1 0 11.5 0 a5.75 5.75 0 1 0 -11.5 0zM1086.75 287.5 a5.75 5.75 0 1 0 11.5 0 a5.75 5.75 0 1 0 -11.5 0z" fill="rgba(255, 0, 60, 1)"></path><path d="M425.5 241.5L402.5 264.5M402.5 287.5L379.5 310.5L379.5 333.5M425.5 103.5L402.5 126.5L402.5 149.5L402.5 172.5L402.5 195.5M425.5 264.5L425.5 287.5M425.5 -11.5L425.5 11.5L425.5 34.5L425.5 57.5L425.5 80.5L425.5 103.5L425.5 126.5L425.5 149.5L425.5 172.5L425.5 195.5L425.5 218.5L425.5 241.5L425.5 264.5L402.5 287.5L402.5 310.5L402.5 333.5" stroke="rgba(255, 222, 0, 1)" stroke-width="3.83"></path><path d="M396.75 333.5 a5.75 5.75 0 1 0 11.5 0 a5.75 5.75 0 1 0 -11.5 0zM396.75 264.5 a5.75 5.75 0 1 0 11.5 0 a5.75 5.75 0 1 0 -11.5 0zM373.75 333.5 a5.75 5.75 0 1 0 11.5 0 a5.75 5.75 0 1 0 -11.5 0zM396.75 195.5 a5.75 5.75 0 1 0 11.5 0 a5.75 5.75 0 1 0 -11.5 0zM419.75 287.5 a5.75 5.75 0 1 0 11.5 0 a5.75 5.75 0 1 0 -11.5 0z" fill="rgba(255, 222, 0, 1)"></path><path d="M1092.5 149.5L1115.5 172.5M1046.5 -11.5L1069.5 11.5L1092.5 34.5L1092.5 57.5L1092.5 80.5L1092.5 103.5L1092.5 126.5L1092.5 149.5L1092.5 172.5L1092.5 195.5" stroke="rgba(255, 222, 0, 1)" stroke-width="3.83"></path><path d="M1086.75 195.5 a5.75 5.75 0 1 0 11.5 0 a5.75 5.75 0 1 0 -11.5 0zM1109.75 172.5 a5.75 5.75 0 1 0 11.5 0 a5.75 5.75 0 1 0 -11.5 0z" fill="rgba(255, 222, 0, 1)"></path><path d="M402.5 11.5L379.5 34.5L379.5 57.5L379.5 80.5M402.5 80.5L402.5 103.5M402.5 -11.5L402.5 11.5L402.5 34.5L402.5 57.5L402.5 80.5L379.5 103.5L379.5 126.5" stroke="rgba(255, 222, 0, 1)" stroke-width="3.83"></path><path d="M373.75 126.5 a5.75 5.75 0 1 0 11.5 0 a5.75 5.75 0 1 0 -11.5 0zM373.75 80.5 a5.75 5.75 0 1 0 11.5 0 a5.75 5.75 0 1 0 -11.5 0zM396.75 103.5 a5.75 5.75 0 1 0 11.5 0 a5.75 5.75 0 1 0 -11.5 0z" fill="rgba(255, 222, 0, 1)"></path><path d="M1115.5 57.5L1138.5 80.5L1138.5 103.5L1138.5 126.5L1161.5 149.5M1138.5 241.5L1138.5 264.5L1138.5 287.5M1138.5 172.5L1161.5 195.5L1161.5 218.5L1161.5 241.5M1069.5 -11.5L1092.5 11.5L1115.5 34.5L1115.5 57.5L1115.5 80.5L1115.5 103.5L1115.5 126.5L1138.5 149.5L1138.5 172.5L1138.5 195.5L1138.5 218.5L1138.5 241.5L1115.5 264.5L1115.5 287.5" stroke="rgba(255, 222, 0, 1)" stroke-width="3.83"></path><path d="M1109.75 287.5 a5.75 5.75 0 1 0 11.5 0 a5.75 5.75 0 1 0 -11.5 0zM1155.75 149.5 a5.75 5.75 0 1 0 11.5 0 a5.75 5.75 0 1 0 -11.5 0zM1132.75 287.5 a5.75 5.75 0 1 0 11.5 0 a5.75 5.75 0 1 0 -11.5 0zM1155.75 241.5 a5.75 5.75 0 1 0 11.5 0 a5.75 5.75 0 1 0 -11.5 0z" fill="rgba(255, 222, 0, 1)"></path><path d="M356.5 80.5L333.5 103.5L333.5 126.5L333.5 149.5L333.5 172.5M356.5 11.5L333.5 34.5M356.5 57.5L333.5 80.5L310.5 103.5M379.5 -11.5L356.5 11.5L356.5 34.5L356.5 57.5L356.5 80.5L356.5 103.5L356.5 126.5L356.5 149.5" stroke="rgba(255, 0, 60, 1)" stroke-width="3.83"></path><path d="M350.75 149.5 a5.75 5.75 0 1 0 11.5 0 a5.75 5.75 0 1 0 -11.5 0zM327.75 172.5 a5.75 5.75 0 1 0 11.5 0 a5.75 5.75 0 1 0 -11.5 0zM327.75 34.5 a5.75 5.75 0 1 0 11.5 0 a5.75 5.75 0 1 0 -11.5 0zM304.75 103.5 a5.75 5.75 0 1 0 11.5 0 a5.75 5.75 0 1 0 -11.5 0z" fill="rgba(255, 0, 60, 1)"></path></g></g><defs><mask id="SvgjsMask1340"><rect width="1453" height="560" fill="#ffffff"></rect></mask><mask id="SvgjsMask1341"><rect width="1453" height="560" fill="white"></rect><path d="M744.62 11.5 a2.88 2.88 0 1 0 5.76 0 a2.88 2.88 0 1 0 -5.76 0z" fill="black"></path><path d="M813.62 80.5 a2.88 2.88 0 1 0 5.76 0 a2.88 2.88 0 1 0 -5.76 0zM790.62 126.5 a2.88 2.88 0 1 0 5.76 0 a2.88 2.88 0 1 0 -5.76 0z" fill="black"></path><path d="M698.62 287.5 a2.88 2.88 0 1 0 5.76 0 a2.88 2.88 0 1 0 -5.76 0zM721.62 241.5 a2.88 2.88 0 1 0 5.76 0 a2.88 2.88 0 1 0 -5.76 0zM721.62 172.5 a2.88 2.88 0 1 0 5.76 0 a2.88 2.88 0 1 0 -5.76 0zM675.62 333.5 a2.88 2.88 0 1 0 5.76 0 a2.88 2.88 0 1 0 -5.76 0z" fill="black"></path><path d="M836.62 218.5 a2.88 2.88 0 1 0 5.76 0 a2.88 2.88 0 1 0 -5.76 0zM813.62 149.5 a2.88 2.88 0 1 0 5.76 0 a2.88 2.88 0 1 0 -5.76 0zM813.62 218.5 a2.88 2.88 0 1 0 5.76 0 a2.88 2.88 0 1 0 -5.76 0zM813.62 126.5 a2.88 2.88 0 1 0 5.76 0 a2.88 2.88 0 1 0 -5.76 0z" fill="black"></path><path d="M675.62 126.5 a2.88 2.88 0 1 0 5.76 0 a2.88 2.88 0 1 0 -5.76 0zM652.62 126.5 a2.88 2.88 0 1 0 5.76 0 a2.88 2.88 0 1 0 -5.76 0z" fill="black"></path><path d="M859.62 149.5 a2.88 2.88 0 1 0 5.76 0 a2.88 2.88 0 1 0 -5.76 0z" fill="black"></path><path d="M652.62 80.5 a2.88 2.88 0 1 0 5.76 0 a2.88 2.88 0 1 0 -5.76 0z" fill="black"></path><path d="M882.62 126.5 a2.88 2.88 0 1 0 5.76 0 a2.88 2.88 0 1 0 -5.76 0zM836.62 34.5 a2.88 2.88 0 1 0 5.76 0 a2.88 2.88 0 1 0 -5.76 0z" fill="black"></path><path d="M629.62 57.5 a2.88 2.88 0 1 0 5.76 0 a2.88 2.88 0 1 0 -5.76 0z" fill="black"></path><path d="M859.62 11.5 a2.88 2.88 0 1 0 5.76 0 a2.88 2.88 0 1 0 -5.76 0z" fill="black"></path><path d="M606.62 172.5 a2.88 2.88 0 1 0 5.76 0 a2.88 2.88 0 1 0 -5.76 0zM583.62 149.5 a2.88 2.88 0 1 0 5.76 0 a2.88 2.88 0 1 0 -5.76 0zM629.62 103.5 a2.88 2.88 0 1 0 5.76 0 a2.88 2.88 0 1 0 -5.76 0zM629.62 149.5 a2.88 2.88 0 1 0 5.76 0 a2.88 2.88 0 1 0 -5.76 0z" fill="black"></path><path d="M905.62 241.5 a2.88 2.88 0 1 0 5.76 0 a2.88 2.88 0 1 0 -5.76 0zM882.62 195.5 a2.88 2.88 0 1 0 5.76 0 a2.88 2.88 0 1 0 -5.76 0zM882.62 287.5 a2.88 2.88 0 1 0 5.76 0 a2.88 2.88 0 1 0 -5.76 0z" fill="black"></path><path d="M583.62 264.5 a2.88 2.88 0 1 0 5.76 0 a2.88 2.88 0 1 0 -5.76 0zM606.62 241.5 a2.88 2.88 0 1 0 5.76 0 a2.88 2.88 0 1 0 -5.76 0zM583.62 80.5 a2.88 2.88 0 1 0 5.76 0 a2.88 2.88 0 1 0 -5.76 0zM560.62 264.5 a2.88 2.88 0 1 0 5.76 0 a2.88 2.88 0 1 0 -5.76 0z" fill="black"></path><path d="M928.62 264.5 a2.88 2.88 0 1 0 5.76 0 a2.88 2.88 0 1 0 -5.76 0zM951.62 218.5 a2.88 2.88 0 1 0 5.76 0 a2.88 2.88 0 1 0 -5.76 0zM951.62 172.5 a2.88 2.88 0 1 0 5.76 0 a2.88 2.88 0 1 0 -5.76 0zM951.62 149.5 a2.88 2.88 0 1 0 5.76 0 a2.88 2.88 0 1 0 -5.76 0z" fill="black"></path><path d="M560.62 57.5 a2.88 2.88 0 1 0 5.76 0 a2.88 2.88 0 1 0 -5.76 0z" fill="black"></path><path d="M951.62 80.5 a2.88 2.88 0 1 0 5.76 0 a2.88 2.88 0 1 0 -5.76 0z" fill="black"></path><path d="M514.62 241.5 a2.88 2.88 0 1 0 5.76 0 a2.88 2.88 0 1 0 -5.76 0zM491.62 264.5 a2.88 2.88 0 1 0 5.76 0 a2.88 2.88 0 1 0 -5.76 0zM514.62 80.5 a2.88 2.88 0 1 0 5.76 0 a2.88 2.88 0 1 0 -5.76 0zM514.62 172.5 a2.88 2.88 0 1 0 5.76 0 a2.88 2.88 0 1 0 -5.76 0z" fill="black"></path><path d="M974.62 264.5 a2.88 2.88 0 1 0 5.76 0 a2.88 2.88 0 1 0 -5.76 0zM997.62 218.5 a2.88 2.88 0 1 0 5.76 0 a2.88 2.88 0 1 0 -5.76 0zM951.62 264.5 a2.88 2.88 0 1 0 5.76 0 a2.88 2.88 0 1 0 -5.76 0z" fill="black"></path><path d="M1020.62 218.5 a2.88 2.88 0 1 0 5.76 0 a2.88 2.88 0 1 0 -5.76 0zM997.62 172.5 a2.88 2.88 0 1 0 5.76 0 a2.88 2.88 0 1 0 -5.76 0zM997.62 149.5 a2.88 2.88 0 1 0 5.76 0 a2.88 2.88 0 1 0 -5.76 0z" fill="black"></path><path d="M491.62 11.5 a2.88 2.88 0 1 0 5.76 0 a2.88 2.88 0 1 0 -5.76 0z" fill="black"></path><path d="M1043.62 287.5 a2.88 2.88 0 1 0 5.76 0 a2.88 2.88 0 1 0 -5.76 0zM1043.62 126.5 a2.88 2.88 0 1 0 5.76 0 a2.88 2.88 0 1 0 -5.76 0zM1020.62 333.5 a2.88 2.88 0 1 0 5.76 0 a2.88 2.88 0 1 0 -5.76 0zM1043.62 103.5 a2.88 2.88 0 1 0 5.76 0 a2.88 2.88 0 1 0 -5.76 0z" fill="black"></path><path d="M468.62 218.5 a2.88 2.88 0 1 0 5.76 0 a2.88 2.88 0 1 0 -5.76 0zM468.62 126.5 a2.88 2.88 0 1 0 5.76 0 a2.88 2.88 0 1 0 -5.76 0zM445.62 241.5 a2.88 2.88 0 1 0 5.76 0 a2.88 2.88 0 1 0 -5.76 0zM491.62 149.5 a2.88 2.88 0 1 0 5.76 0 a2.88 2.88 0 1 0 -5.76 0z" fill="black"></path><path d="M1020.62 11.5 a2.88 2.88 0 1 0 5.76 0 a2.88 2.88 0 1 0 -5.76 0z" fill="black"></path><path d="M445.62 34.5 a2.88 2.88 0 1 0 5.76 0 a2.88 2.88 0 1 0 -5.76 0z" fill="black"></path><path d="M1066.62 241.5 a2.88 2.88 0 1 0 5.76 0 a2.88 2.88 0 1 0 -5.76 0zM1043.62 57.5 a2.88 2.88 0 1 0 5.76 0 a2.88 2.88 0 1 0 -5.76 0zM1089.62 287.5 a2.88 2.88 0 1 0 5.76 0 a2.88 2.88 0 1 0 -5.76 0z" fill="black"></path><path d="M399.62 333.5 a2.88 2.88 0 1 0 5.76 0 a2.88 2.88 0 1 0 -5.76 0zM399.62 264.5 a2.88 2.88 0 1 0 5.76 0 a2.88 2.88 0 1 0 -5.76 0zM376.62 333.5 a2.88 2.88 0 1 0 5.76 0 a2.88 2.88 0 1 0 -5.76 0zM399.62 195.5 a2.88 2.88 0 1 0 5.76 0 a2.88 2.88 0 1 0 -5.76 0zM422.62 287.5 a2.88 2.88 0 1 0 5.76 0 a2.88 2.88 0 1 0 -5.76 0z" fill="black"></path><path d="M1089.62 195.5 a2.88 2.88 0 1 0 5.76 0 a2.88 2.88 0 1 0 -5.76 0zM1112.62 172.5 a2.88 2.88 0 1 0 5.76 0 a2.88 2.88 0 1 0 -5.76 0z" fill="black"></path><path d="M376.62 126.5 a2.88 2.88 0 1 0 5.76 0 a2.88 2.88 0 1 0 -5.76 0zM376.62 80.5 a2.88 2.88 0 1 0 5.76 0 a2.88 2.88 0 1 0 -5.76 0zM399.62 103.5 a2.88 2.88 0 1 0 5.76 0 a2.88 2.88 0 1 0 -5.76 0z" fill="black"></path><path d="M1112.62 287.5 a2.88 2.88 0 1 0 5.76 0 a2.88 2.88 0 1 0 -5.76 0zM1158.62 149.5 a2.88 2.88 0 1 0 5.76 0 a2.88 2.88 0 1 0 -5.76 0zM1135.62 287.5 a2.88 2.88 0 1 0 5.76 0 a2.88 2.88 0 1 0 -5.76 0zM1158.62 241.5 a2.88 2.88 0 1 0 5.76 0 a2.88 2.88 0 1 0 -5.76 0z" fill="black"></path><path d="M353.62 149.5 a2.88 2.88 0 1 0 5.76 0 a2.88 2.88 0 1 0 -5.76 0zM330.62 172.5 a2.88 2.88 0 1 0 5.76 0 a2.88 2.88 0 1 0 -5.76 0zM330.62 34.5 a2.88 2.88 0 1 0 5.76 0 a2.88 2.88 0 1 0 -5.76 0zM307.62 103.5 a2.88 2.88 0 1 0 5.76 0 a2.88 2.88 0 1 0 -5.76 0z" fill="black"></path></mask></defs></svg>