<svg xmlns="http://www.w3.org/2000/svg" version="1.1" xmlns:xlink="http://www.w3.org/1999/xlink" xmlns:svgjs="http://svgjs.com/svgjs" width="1440" height="800" preserveAspectRatio="none" viewBox="0 0 1440 800"><g mask="url(&quot;#SvgjsMask1065&quot;)" fill="none"><path d="M52.19 423.81L124.94 465.81L124.94 549.81L52.19 591.81L-20.56 549.81L-20.56 465.81zM124.94 549.81L197.69 591.81L197.69 675.81L124.94 717.81L52.19 675.81L52.19 591.81zM270.43 45.81L343.18 87.81L343.18 171.81L270.43 213.81L197.69 171.81L197.69 87.81zM270.43 297.81L343.18 339.81L343.18 423.81L270.43 465.81L197.69 423.81L197.69 339.81zM197.69 675.81L270.43 717.81L270.43 801.81L197.69 843.81L124.94 801.81L124.94 717.81zM415.93 45.81L488.68 87.81L488.68 171.81L415.93 213.81L343.18 171.81L343.18 87.81zM343.18 675.81L415.93 717.81L415.93 801.81L343.18 843.81L270.43 801.81L270.43 717.81zM634.18 423.81L706.92 465.81L706.92 549.81L634.18 591.81L561.43 549.81L561.43 465.81zM634.18 675.81L706.92 717.81L706.92 801.81L634.18 843.81L561.43 801.81L561.43 717.81zM925.17 -80.19L997.92 -38.19L997.92 45.81L925.17 87.81L852.42 45.81L852.42 -38.19zM925.17 423.81L997.92 465.81L997.92 549.81L925.17 591.81L852.42 549.81L852.42 465.81zM1143.41 45.81L1216.16 87.81L1216.16 171.81L1143.41 213.81L1070.66 171.81L1070.66 87.81zM1143.41 549.81L1216.16 591.81L1216.16 675.81L1143.41 717.81L1070.66 675.81L1070.66 591.81zM1288.91 45.81L1361.66 87.81L1361.66 171.81L1288.91 213.81L1216.16 171.81L1216.16 87.81zM1216.16 423.81L1288.91 465.81L1288.91 549.81L1216.16 591.81L1143.41 549.81L1143.41 465.81zM1361.66 -80.19L1434.41 -38.19L1434.41 45.81L1361.66 87.81L1288.91 45.81L1288.91 -38.19zM1361.66 423.81L1434.41 465.81L1434.41 549.81L1361.66 591.81L1288.91 549.81L1288.91 465.81zM1434.41 549.81L1507.15 591.81L1507.15 675.81L1434.41 717.81L1361.66 675.81L1361.66 591.81z" stroke="rgba(255, 221, 0, 1)" stroke-width="2"></path><path d="M43.79 423.81 a8.4 8.4 0 1 0 16.8 0 a8.4 8.4 0 1 0 -16.8 0zM116.54 465.81 a8.4 8.4 0 1 0 16.8 0 a8.4 8.4 0 1 0 -16.8 0zM116.54 549.81 a8.4 8.4 0 1 0 16.8 0 a8.4 8.4 0 1 0 -16.8 0zM43.79 591.81 a8.4 8.4 0 1 0 16.8 0 a8.4 8.4 0 1 0 -16.8 0zM-28.96 549.81 a8.4 8.4 0 1 0 16.8 0 a8.4 8.4 0 1 0 -16.8 0zM-28.96 465.81 a8.4 8.4 0 1 0 16.8 0 a8.4 8.4 0 1 0 -16.8 0zM189.29 591.81 a8.4 8.4 0 1 0 16.8 0 a8.4 8.4 0 1 0 -16.8 0zM189.29 675.81 a8.4 8.4 0 1 0 16.8 0 a8.4 8.4 0 1 0 -16.8 0zM116.54 717.81 a8.4 8.4 0 1 0 16.8 0 a8.4 8.4 0 1 0 -16.8 0zM43.79 675.81 a8.4 8.4 0 1 0 16.8 0 a8.4 8.4 0 1 0 -16.8 0zM262.03 45.81 a8.4 8.4 0 1 0 16.8 0 a8.4 8.4 0 1 0 -16.8 0zM334.78 87.81 a8.4 8.4 0 1 0 16.8 0 a8.4 8.4 0 1 0 -16.8 0zM334.78 171.81 a8.4 8.4 0 1 0 16.8 0 a8.4 8.4 0 1 0 -16.8 0zM262.03 213.81 a8.4 8.4 0 1 0 16.8 0 a8.4 8.4 0 1 0 -16.8 0zM189.29 171.81 a8.4 8.4 0 1 0 16.8 0 a8.4 8.4 0 1 0 -16.8 0zM189.29 87.81 a8.4 8.4 0 1 0 16.8 0 a8.4 8.4 0 1 0 -16.8 0zM262.03 297.81 a8.4 8.4 0 1 0 16.8 0 a8.4 8.4 0 1 0 -16.8 0zM334.78 339.81 a8.4 8.4 0 1 0 16.8 0 a8.4 8.4 0 1 0 -16.8 0zM334.78 423.81 a8.4 8.4 0 1 0 16.8 0 a8.4 8.4 0 1 0 -16.8 0zM262.03 465.81 a8.4 8.4 0 1 0 16.8 0 a8.4 8.4 0 1 0 -16.8 0zM189.29 423.81 a8.4 8.4 0 1 0 16.8 0 a8.4 8.4 0 1 0 -16.8 0zM189.29 339.81 a8.4 8.4 0 1 0 16.8 0 a8.4 8.4 0 1 0 -16.8 0zM262.03 717.81 a8.4 8.4 0 1 0 16.8 0 a8.4 8.4 0 1 0 -16.8 0zM262.03 801.81 a8.4 8.4 0 1 0 16.8 0 a8.4 8.4 0 1 0 -16.8 0zM189.29 843.81 a8.4 8.4 0 1 0 16.8 0 a8.4 8.4 0 1 0 -16.8 0zM116.54 801.81 a8.4 8.4 0 1 0 16.8 0 a8.4 8.4 0 1 0 -16.8 0zM407.53 45.81 a8.4 8.4 0 1 0 16.8 0 a8.4 8.4 0 1 0 -16.8 0zM480.28 87.81 a8.4 8.4 0 1 0 16.8 0 a8.4 8.4 0 1 0 -16.8 0zM480.28 171.81 a8.4 8.4 0 1 0 16.8 0 a8.4 8.4 0 1 0 -16.8 0zM407.53 213.81 a8.4 8.4 0 1 0 16.8 0 a8.4 8.4 0 1 0 -16.8 0zM334.78 675.81 a8.4 8.4 0 1 0 16.8 0 a8.4 8.4 0 1 0 -16.8 0zM407.53 717.81 a8.4 8.4 0 1 0 16.8 0 a8.4 8.4 0 1 0 -16.8 0zM407.53 801.81 a8.4 8.4 0 1 0 16.8 0 a8.4 8.4 0 1 0 -16.8 0zM334.78 843.81 a8.4 8.4 0 1 0 16.8 0 a8.4 8.4 0 1 0 -16.8 0zM625.78 423.81 a8.4 8.4 0 1 0 16.8 0 a8.4 8.4 0 1 0 -16.8 0zM698.52 465.81 a8.4 8.4 0 1 0 16.8 0 a8.4 8.4 0 1 0 -16.8 0zM698.52 549.81 a8.4 8.4 0 1 0 16.8 0 a8.4 8.4 0 1 0 -16.8 0zM625.78 591.81 a8.4 8.4 0 1 0 16.8 0 a8.4 8.4 0 1 0 -16.8 0zM553.03 549.81 a8.4 8.4 0 1 0 16.8 0 a8.4 8.4 0 1 0 -16.8 0zM553.03 465.81 a8.4 8.4 0 1 0 16.8 0 a8.4 8.4 0 1 0 -16.8 0zM625.78 675.81 a8.4 8.4 0 1 0 16.8 0 a8.4 8.4 0 1 0 -16.8 0zM698.52 717.81 a8.4 8.4 0 1 0 16.8 0 a8.4 8.4 0 1 0 -16.8 0zM698.52 801.81 a8.4 8.4 0 1 0 16.8 0 a8.4 8.4 0 1 0 -16.8 0zM625.78 843.81 a8.4 8.4 0 1 0 16.8 0 a8.4 8.4 0 1 0 -16.8 0zM553.03 801.81 a8.4 8.4 0 1 0 16.8 0 a8.4 8.4 0 1 0 -16.8 0zM553.03 717.81 a8.4 8.4 0 1 0 16.8 0 a8.4 8.4 0 1 0 -16.8 0zM916.77 -80.19 a8.4 8.4 0 1 0 16.8 0 a8.4 8.4 0 1 0 -16.8 0zM989.52 -38.19 a8.4 8.4 0 1 0 16.8 0 a8.4 8.4 0 1 0 -16.8 0zM989.52 45.81 a8.4 8.4 0 1 0 16.8 0 a8.4 8.4 0 1 0 -16.8 0zM916.77 87.81 a8.4 8.4 0 1 0 16.8 0 a8.4 8.4 0 1 0 -16.8 0zM844.02 45.81 a8.4 8.4 0 1 0 16.8 0 a8.4 8.4 0 1 0 -16.8 0zM844.02 -38.19 a8.4 8.4 0 1 0 16.8 0 a8.4 8.4 0 1 0 -16.8 0zM916.77 423.81 a8.4 8.4 0 1 0 16.8 0 a8.4 8.4 0 1 0 -16.8 0zM989.52 465.81 a8.4 8.4 0 1 0 16.8 0 a8.4 8.4 0 1 0 -16.8 0zM989.52 549.81 a8.4 8.4 0 1 0 16.8 0 a8.4 8.4 0 1 0 -16.8 0zM916.77 591.81 a8.4 8.4 0 1 0 16.8 0 a8.4 8.4 0 1 0 -16.8 0zM844.02 549.81 a8.4 8.4 0 1 0 16.8 0 a8.4 8.4 0 1 0 -16.8 0zM844.02 465.81 a8.4 8.4 0 1 0 16.8 0 a8.4 8.4 0 1 0 -16.8 0zM1135.01 45.81 a8.4 8.4 0 1 0 16.8 0 a8.4 8.4 0 1 0 -16.8 0zM1207.76 87.81 a8.4 8.4 0 1 0 16.8 0 a8.4 8.4 0 1 0 -16.8 0zM1207.76 171.81 a8.4 8.4 0 1 0 16.8 0 a8.4 8.4 0 1 0 -16.8 0zM1135.01 213.81 a8.4 8.4 0 1 0 16.8 0 a8.4 8.4 0 1 0 -16.8 0zM1062.26 171.81 a8.4 8.4 0 1 0 16.8 0 a8.4 8.4 0 1 0 -16.8 0zM1062.26 87.81 a8.4 8.4 0 1 0 16.8 0 a8.4 8.4 0 1 0 -16.8 0zM1135.01 549.81 a8.4 8.4 0 1 0 16.8 0 a8.4 8.4 0 1 0 -16.8 0zM1207.76 591.81 a8.4 8.4 0 1 0 16.8 0 a8.4 8.4 0 1 0 -16.8 0zM1207.76 675.81 a8.4 8.4 0 1 0 16.8 0 a8.4 8.4 0 1 0 -16.8 0zM1135.01 717.81 a8.4 8.4 0 1 0 16.8 0 a8.4 8.4 0 1 0 -16.8 0zM1062.26 675.81 a8.4 8.4 0 1 0 16.8 0 a8.4 8.4 0 1 0 -16.8 0zM1062.26 591.81 a8.4 8.4 0 1 0 16.8 0 a8.4 8.4 0 1 0 -16.8 0zM1280.51 45.81 a8.4 8.4 0 1 0 16.8 0 a8.4 8.4 0 1 0 -16.8 0zM1353.26 87.81 a8.4 8.4 0 1 0 16.8 0 a8.4 8.4 0 1 0 -16.8 0zM1353.26 171.81 a8.4 8.4 0 1 0 16.8 0 a8.4 8.4 0 1 0 -16.8 0zM1280.51 213.81 a8.4 8.4 0 1 0 16.8 0 a8.4 8.4 0 1 0 -16.8 0zM1207.76 423.81 a8.4 8.4 0 1 0 16.8 0 a8.4 8.4 0 1 0 -16.8 0zM1280.51 465.81 a8.4 8.4 0 1 0 16.8 0 a8.4 8.4 0 1 0 -16.8 0zM1280.51 549.81 a8.4 8.4 0 1 0 16.8 0 a8.4 8.4 0 1 0 -16.8 0zM1135.01 465.81 a8.4 8.4 0 1 0 16.8 0 a8.4 8.4 0 1 0 -16.8 0zM1353.26 -80.19 a8.4 8.4 0 1 0 16.8 0 a8.4 8.4 0 1 0 -16.8 0zM1426.01 -38.19 a8.4 8.4 0 1 0 16.8 0 a8.4 8.4 0 1 0 -16.8 0zM1426.01 45.81 a8.4 8.4 0 1 0 16.8 0 a8.4 8.4 0 1 0 -16.8 0zM1280.51 -38.19 a8.4 8.4 0 1 0 16.8 0 a8.4 8.4 0 1 0 -16.8 0zM1353.26 423.81 a8.4 8.4 0 1 0 16.8 0 a8.4 8.4 0 1 0 -16.8 0zM1426.01 465.81 a8.4 8.4 0 1 0 16.8 0 a8.4 8.4 0 1 0 -16.8 0zM1426.01 549.81 a8.4 8.4 0 1 0 16.8 0 a8.4 8.4 0 1 0 -16.8 0zM1353.26 591.81 a8.4 8.4 0 1 0 16.8 0 a8.4 8.4 0 1 0 -16.8 0zM1498.75 591.81 a8.4 8.4 0 1 0 16.8 0 a8.4 8.4 0 1 0 -16.8 0zM1498.75 675.81 a8.4 8.4 0 1 0 16.8 0 a8.4 8.4 0 1 0 -16.8 0zM1426.01 717.81 a8.4 8.4 0 1 0 16.8 0 a8.4 8.4 0 1 0 -16.8 0zM1353.26 675.81 a8.4 8.4 0 1 0 16.8 0 a8.4 8.4 0 1 0 -16.8 0z" fill="rgba(255, 221, 0, 1)"></path><path d="M0 -84L72.75 -42L72.75 42L0 84L-72.75 42L-72.75 -42zM72.75 42L145.5 84L145.5 168L72.75 210L0 168L0 84zM0 168L72.75 210L72.75 294L0 336L-72.75 294L-72.75 210zM72.75 294L145.5 336L145.5 420L72.75 462L0 420L0 336zM0 420L72.75 462L72.75 546L0 588L-72.75 546L-72.75 462zM72.75 546L145.5 588L145.5 672L72.75 714L0 672L0 588zM0 672L72.75 714L72.75 798L0 840L-72.75 798L-72.75 714zM145.5 -84L218.24 -42L218.24 42L145.5 84L72.75 42L72.75 -42zM218.24 42L290.99 84L290.99 168L218.24 210L145.5 168L145.5 84zM145.5 168L218.24 210L218.24 294L145.5 336L72.75 294L72.75 210zM218.24 294L290.99 336L290.99 420L218.24 462L145.5 420L145.5 336zM145.5 420L218.24 462L218.24 546L145.5 588L72.75 546L72.75 462zM218.24 546L290.99 588L290.99 672L218.24 714L145.5 672L145.5 588zM145.5 672L218.24 714L218.24 798L145.5 840L72.75 798L72.75 714zM290.99 -84L363.74 -42L363.74 42L290.99 84L218.24 42L218.24 -42zM363.74 42L436.49 84L436.49 168L363.74 210L290.99 168L290.99 84zM290.99 168L363.74 210L363.74 294L290.99 336L218.24 294L218.24 210zM363.74 294L436.49 336L436.49 420L363.74 462L290.99 420L290.99 336zM290.99 420L363.74 462L363.74 546L290.99 588L218.24 546L218.24 462zM363.74 546L436.49 588L436.49 672L363.74 714L290.99 672L290.99 588zM290.99 672L363.74 714L363.74 798L290.99 840L218.24 798L218.24 714zM436.49 -84L509.24 -42L509.24 42L436.49 84L363.74 42L363.74 -42zM509.24 42L581.99 84L581.99 168L509.24 210L436.49 168L436.49 84zM436.49 168L509.24 210L509.24 294L436.49 336L363.74 294L363.74 210zM509.24 294L581.99 336L581.99 420L509.24 462L436.49 420L436.49 336zM436.49 420L509.24 462L509.24 546L436.49 588L363.74 546L363.74 462zM509.24 546L581.99 588L581.99 672L509.24 714L436.49 672L436.49 588zM436.49 672L509.24 714L509.24 798L436.49 840L363.74 798L363.74 714zM581.99 -84L654.73 -42L654.73 42L581.99 84L509.24 42L509.24 -42zM654.73 42L727.48 84L727.48 168L654.73 210L581.99 168L581.99 84zM581.99 168L654.73 210L654.73 294L581.99 336L509.24 294L509.24 210zM654.73 294L727.48 336L727.48 420L654.73 462L581.99 420L581.99 336zM581.99 420L654.73 462L654.73 546L581.99 588L509.24 546L509.24 462zM654.73 546L727.48 588L727.48 672L654.73 714L581.99 672L581.99 588zM581.99 672L654.73 714L654.73 798L581.99 840L509.24 798L509.24 714zM727.48 -84L800.23 -42L800.23 42L727.48 84L654.73 42L654.73 -42zM800.23 42L872.98 84L872.98 168L800.23 210L727.48 168L727.48 84zM727.48 168L800.23 210L800.23 294L727.48 336L654.73 294L654.73 210zM800.23 294L872.98 336L872.98 420L800.23 462L727.48 420L727.48 336zM727.48 420L800.23 462L800.23 546L727.48 588L654.73 546L654.73 462zM800.23 546L872.98 588L872.98 672L800.23 714L727.48 672L727.48 588zM727.48 672L800.23 714L800.23 798L727.48 840L654.73 798L654.73 714zM872.98 -84L945.73 -42L945.73 42L872.98 84L800.23 42L800.23 -42zM945.73 42L1018.47 84L1018.47 168L945.73 210L872.98 168L872.98 84zM872.98 168L945.73 210L945.73 294L872.98 336L800.23 294L800.23 210zM945.73 294L1018.47 336L1018.47 420L945.73 462L872.98 420L872.98 336zM872.98 420L945.73 462L945.73 546L872.98 588L800.23 546L800.23 462zM945.73 546L1018.47 588L1018.47 672L945.73 714L872.98 672L872.98 588zM872.98 672L945.73 714L945.73 798L872.98 840L800.23 798L800.23 714zM1018.47 -84L1091.22 -42L1091.22 42L1018.47 84L945.73 42L945.73 -42zM1091.22 42L1163.97 84L1163.97 168L1091.22 210L1018.47 168L1018.47 84zM1018.47 168L1091.22 210L1091.22 294L1018.47 336L945.73 294L945.73 210zM1091.22 294L1163.97 336L1163.97 420L1091.22 462L1018.47 420L1018.47 336zM1018.47 420L1091.22 462L1091.22 546L1018.47 588L945.73 546L945.73 462zM1091.22 546L1163.97 588L1163.97 672L1091.22 714L1018.47 672L1018.47 588zM1018.47 672L1091.22 714L1091.22 798L1018.47 840L945.73 798L945.73 714zM1163.97 -84L1236.72 -42L1236.72 42L1163.97 84L1091.22 42L1091.22 -42zM1236.72 42L1309.47 84L1309.47 168L1236.72 210L1163.97 168L1163.97 84zM1163.97 168L1236.72 210L1236.72 294L1163.97 336L1091.22 294L1091.22 210zM1236.72 294L1309.47 336L1309.47 420L1236.72 462L1163.97 420L1163.97 336zM1163.97 420L1236.72 462L1236.72 546L1163.97 588L1091.22 546L1091.22 462zM1236.72 546L1309.47 588L1309.47 672L1236.72 714L1163.97 672L1163.97 588zM1163.97 672L1236.72 714L1236.72 798L1163.97 840L1091.22 798L1091.22 714zM1309.47 -84L1382.22 -42L1382.22 42L1309.47 84L1236.72 42L1236.72 -42zM1382.22 42L1454.96 84L1454.96 168L1382.22 210L1309.47 168L1309.47 84zM1309.47 168L1382.22 210L1382.22 294L1309.47 336L1236.72 294L1236.72 210zM1382.22 294L1454.96 336L1454.96 420L1382.22 462L1309.47 420L1309.47 336zM1309.47 420L1382.22 462L1382.22 546L1309.47 588L1236.72 546L1236.72 462zM1382.22 546L1454.96 588L1454.96 672L1382.22 714L1309.47 672L1309.47 588zM1309.47 672L1382.22 714L1382.22 798L1309.47 840L1236.72 798L1236.72 714z" stroke="rgba(255, 0, 60, 1)" stroke-width="2"></path></g><defs><mask id="SvgjsMask1065"><rect width="1440" height="800" fill="#ffffff"></rect></mask></defs></svg>