<svg xmlns="http://www.w3.org/2000/svg" version="1.1" xmlns:xlink="http://www.w3.org/1999/xlink" xmlns:svgjs="http://svgjs.com/svgjs" width="1440" height="800" preserveAspectRatio="none" viewBox="0 0 1440 800"><g mask="url(&quot;#SvgjsMask1571&quot;)" fill="none"><path d="M0.32 -10.56L73.07 31.44L73.07 115.44L0.32 157.44L-72.43 115.44L-72.43 31.44zM73.07 619.44L145.82 661.44L145.82 745.44L73.07 787.44L0.32 745.44L0.32 661.44zM0.32 745.44L73.07 787.44L73.07 871.44L0.32 913.44L-72.43 871.44L-72.43 787.44zM145.82 -10.56L218.56 31.44L218.56 115.44L145.82 157.44L73.07 115.44L73.07 31.44zM145.82 241.44L218.56 283.44L218.56 367.44L145.82 409.44L73.07 367.44L73.07 283.44zM218.56 619.44L291.31 661.44L291.31 745.44L218.56 787.44L145.82 745.44L145.82 661.44zM364.06 115.44L436.81 157.44L436.81 241.44L364.06 283.44L291.31 241.44L291.31 157.44zM291.31 241.44L364.06 283.44L364.06 367.44L291.31 409.44L218.56 367.44L218.56 283.44zM364.06 367.44L436.81 409.44L436.81 493.44L364.06 535.44L291.31 493.44L291.31 409.44zM291.31 493.44L364.06 535.44L364.06 619.44L291.31 661.44L218.56 619.44L218.56 535.44zM509.56 367.44L582.31 409.44L582.31 493.44L509.56 535.44L436.81 493.44L436.81 409.44zM655.05 115.44L727.8 157.44L727.8 241.44L655.05 283.44L582.31 241.44L582.31 157.44zM582.31 241.44L655.05 283.44L655.05 367.44L582.31 409.44L509.56 367.44L509.56 283.44zM727.8 -10.56L800.55 31.44L800.55 115.44L727.8 157.44L655.05 115.44L655.05 31.44zM727.8 241.44L800.55 283.44L800.55 367.44L727.8 409.44L655.05 367.44L655.05 283.44zM727.8 493.44L800.55 535.44L800.55 619.44L727.8 661.44L655.05 619.44L655.05 535.44zM727.8 745.44L800.55 787.44L800.55 871.44L727.8 913.44L655.05 871.44L655.05 787.44zM1018.79 241.44L1091.54 283.44L1091.54 367.44L1018.79 409.44L946.05 367.44L946.05 283.44zM1018.79 745.44L1091.54 787.44L1091.54 871.44L1018.79 913.44L946.05 871.44L946.05 787.44zM1164.29 493.44L1237.04 535.44L1237.04 619.44L1164.29 661.44L1091.54 619.44L1091.54 535.44zM1309.79 -10.56L1382.54 31.44L1382.54 115.44L1309.79 157.44L1237.04 115.44L1237.04 31.44zM1309.79 493.44L1382.54 535.44L1382.54 619.44L1309.79 661.44L1237.04 619.44L1237.04 535.44z" stroke="url(#SvgjsLinearGradient1572)" stroke-width="2"></path><path d="M-8.08 -10.56 a8.4 8.4 0 1 0 16.8 0 a8.4 8.4 0 1 0 -16.8 0zM64.67 31.44 a8.4 8.4 0 1 0 16.8 0 a8.4 8.4 0 1 0 -16.8 0zM64.67 115.44 a8.4 8.4 0 1 0 16.8 0 a8.4 8.4 0 1 0 -16.8 0zM-8.08 157.44 a8.4 8.4 0 1 0 16.8 0 a8.4 8.4 0 1 0 -16.8 0zM-80.83 115.44 a8.4 8.4 0 1 0 16.8 0 a8.4 8.4 0 1 0 -16.8 0zM-80.83 31.44 a8.4 8.4 0 1 0 16.8 0 a8.4 8.4 0 1 0 -16.8 0zM64.67 619.44 a8.4 8.4 0 1 0 16.8 0 a8.4 8.4 0 1 0 -16.8 0zM137.42 661.44 a8.4 8.4 0 1 0 16.8 0 a8.4 8.4 0 1 0 -16.8 0zM137.42 745.44 a8.4 8.4 0 1 0 16.8 0 a8.4 8.4 0 1 0 -16.8 0zM64.67 787.44 a8.4 8.4 0 1 0 16.8 0 a8.4 8.4 0 1 0 -16.8 0zM-8.08 745.44 a8.4 8.4 0 1 0 16.8 0 a8.4 8.4 0 1 0 -16.8 0zM-8.08 661.44 a8.4 8.4 0 1 0 16.8 0 a8.4 8.4 0 1 0 -16.8 0zM64.67 871.44 a8.4 8.4 0 1 0 16.8 0 a8.4 8.4 0 1 0 -16.8 0zM-8.08 913.44 a8.4 8.4 0 1 0 16.8 0 a8.4 8.4 0 1 0 -16.8 0zM-80.83 871.44 a8.4 8.4 0 1 0 16.8 0 a8.4 8.4 0 1 0 -16.8 0zM-80.83 787.44 a8.4 8.4 0 1 0 16.8 0 a8.4 8.4 0 1 0 -16.8 0zM137.42 -10.56 a8.4 8.4 0 1 0 16.8 0 a8.4 8.4 0 1 0 -16.8 0zM210.16 31.44 a8.4 8.4 0 1 0 16.8 0 a8.4 8.4 0 1 0 -16.8 0zM210.16 115.44 a8.4 8.4 0 1 0 16.8 0 a8.4 8.4 0 1 0 -16.8 0zM137.42 157.44 a8.4 8.4 0 1 0 16.8 0 a8.4 8.4 0 1 0 -16.8 0zM137.42 241.44 a8.4 8.4 0 1 0 16.8 0 a8.4 8.4 0 1 0 -16.8 0zM210.16 283.44 a8.4 8.4 0 1 0 16.8 0 a8.4 8.4 0 1 0 -16.8 0zM210.16 367.44 a8.4 8.4 0 1 0 16.8 0 a8.4 8.4 0 1 0 -16.8 0zM137.42 409.44 a8.4 8.4 0 1 0 16.8 0 a8.4 8.4 0 1 0 -16.8 0zM64.67 367.44 a8.4 8.4 0 1 0 16.8 0 a8.4 8.4 0 1 0 -16.8 0zM64.67 283.44 a8.4 8.4 0 1 0 16.8 0 a8.4 8.4 0 1 0 -16.8 0zM210.16 619.44 a8.4 8.4 0 1 0 16.8 0 a8.4 8.4 0 1 0 -16.8 0zM282.91 661.44 a8.4 8.4 0 1 0 16.8 0 a8.4 8.4 0 1 0 -16.8 0zM282.91 745.44 a8.4 8.4 0 1 0 16.8 0 a8.4 8.4 0 1 0 -16.8 0zM210.16 787.44 a8.4 8.4 0 1 0 16.8 0 a8.4 8.4 0 1 0 -16.8 0zM355.66 115.44 a8.4 8.4 0 1 0 16.8 0 a8.4 8.4 0 1 0 -16.8 0zM428.41 157.44 a8.4 8.4 0 1 0 16.8 0 a8.4 8.4 0 1 0 -16.8 0zM428.41 241.44 a8.4 8.4 0 1 0 16.8 0 a8.4 8.4 0 1 0 -16.8 0zM355.66 283.44 a8.4 8.4 0 1 0 16.8 0 a8.4 8.4 0 1 0 -16.8 0zM282.91 241.44 a8.4 8.4 0 1 0 16.8 0 a8.4 8.4 0 1 0 -16.8 0zM282.91 157.44 a8.4 8.4 0 1 0 16.8 0 a8.4 8.4 0 1 0 -16.8 0zM355.66 367.44 a8.4 8.4 0 1 0 16.8 0 a8.4 8.4 0 1 0 -16.8 0zM282.91 409.44 a8.4 8.4 0 1 0 16.8 0 a8.4 8.4 0 1 0 -16.8 0zM428.41 409.44 a8.4 8.4 0 1 0 16.8 0 a8.4 8.4 0 1 0 -16.8 0zM428.41 493.44 a8.4 8.4 0 1 0 16.8 0 a8.4 8.4 0 1 0 -16.8 0zM355.66 535.44 a8.4 8.4 0 1 0 16.8 0 a8.4 8.4 0 1 0 -16.8 0zM282.91 493.44 a8.4 8.4 0 1 0 16.8 0 a8.4 8.4 0 1 0 -16.8 0zM355.66 619.44 a8.4 8.4 0 1 0 16.8 0 a8.4 8.4 0 1 0 -16.8 0zM210.16 535.44 a8.4 8.4 0 1 0 16.8 0 a8.4 8.4 0 1 0 -16.8 0zM501.16 367.44 a8.4 8.4 0 1 0 16.8 0 a8.4 8.4 0 1 0 -16.8 0zM573.91 409.44 a8.4 8.4 0 1 0 16.8 0 a8.4 8.4 0 1 0 -16.8 0zM573.91 493.44 a8.4 8.4 0 1 0 16.8 0 a8.4 8.4 0 1 0 -16.8 0zM501.16 535.44 a8.4 8.4 0 1 0 16.8 0 a8.4 8.4 0 1 0 -16.8 0zM646.65 115.44 a8.4 8.4 0 1 0 16.8 0 a8.4 8.4 0 1 0 -16.8 0zM719.4 157.44 a8.4 8.4 0 1 0 16.8 0 a8.4 8.4 0 1 0 -16.8 0zM719.4 241.44 a8.4 8.4 0 1 0 16.8 0 a8.4 8.4 0 1 0 -16.8 0zM646.65 283.44 a8.4 8.4 0 1 0 16.8 0 a8.4 8.4 0 1 0 -16.8 0zM573.91 241.44 a8.4 8.4 0 1 0 16.8 0 a8.4 8.4 0 1 0 -16.8 0zM573.91 157.44 a8.4 8.4 0 1 0 16.8 0 a8.4 8.4 0 1 0 -16.8 0zM646.65 367.44 a8.4 8.4 0 1 0 16.8 0 a8.4 8.4 0 1 0 -16.8 0zM501.16 283.44 a8.4 8.4 0 1 0 16.8 0 a8.4 8.4 0 1 0 -16.8 0zM719.4 -10.56 a8.4 8.4 0 1 0 16.8 0 a8.4 8.4 0 1 0 -16.8 0zM792.15 31.44 a8.4 8.4 0 1 0 16.8 0 a8.4 8.4 0 1 0 -16.8 0zM792.15 115.44 a8.4 8.4 0 1 0 16.8 0 a8.4 8.4 0 1 0 -16.8 0zM646.65 31.44 a8.4 8.4 0 1 0 16.8 0 a8.4 8.4 0 1 0 -16.8 0zM792.15 283.44 a8.4 8.4 0 1 0 16.8 0 a8.4 8.4 0 1 0 -16.8 0zM792.15 367.44 a8.4 8.4 0 1 0 16.8 0 a8.4 8.4 0 1 0 -16.8 0zM719.4 409.44 a8.4 8.4 0 1 0 16.8 0 a8.4 8.4 0 1 0 -16.8 0zM719.4 493.44 a8.4 8.4 0 1 0 16.8 0 a8.4 8.4 0 1 0 -16.8 0zM792.15 535.44 a8.4 8.4 0 1 0 16.8 0 a8.4 8.4 0 1 0 -16.8 0zM792.15 619.44 a8.4 8.4 0 1 0 16.8 0 a8.4 8.4 0 1 0 -16.8 0zM719.4 661.44 a8.4 8.4 0 1 0 16.8 0 a8.4 8.4 0 1 0 -16.8 0zM646.65 619.44 a8.4 8.4 0 1 0 16.8 0 a8.4 8.4 0 1 0 -16.8 0zM646.65 535.44 a8.4 8.4 0 1 0 16.8 0 a8.4 8.4 0 1 0 -16.8 0zM719.4 745.44 a8.4 8.4 0 1 0 16.8 0 a8.4 8.4 0 1 0 -16.8 0zM792.15 787.44 a8.4 8.4 0 1 0 16.8 0 a8.4 8.4 0 1 0 -16.8 0zM792.15 871.44 a8.4 8.4 0 1 0 16.8 0 a8.4 8.4 0 1 0 -16.8 0zM719.4 913.44 a8.4 8.4 0 1 0 16.8 0 a8.4 8.4 0 1 0 -16.8 0zM646.65 871.44 a8.4 8.4 0 1 0 16.8 0 a8.4 8.4 0 1 0 -16.8 0zM646.65 787.44 a8.4 8.4 0 1 0 16.8 0 a8.4 8.4 0 1 0 -16.8 0zM1010.39 241.44 a8.4 8.4 0 1 0 16.8 0 a8.4 8.4 0 1 0 -16.8 0zM1083.14 283.44 a8.4 8.4 0 1 0 16.8 0 a8.4 8.4 0 1 0 -16.8 0zM1083.14 367.44 a8.4 8.4 0 1 0 16.8 0 a8.4 8.4 0 1 0 -16.8 0zM1010.39 409.44 a8.4 8.4 0 1 0 16.8 0 a8.4 8.4 0 1 0 -16.8 0zM937.65 367.44 a8.4 8.4 0 1 0 16.8 0 a8.4 8.4 0 1 0 -16.8 0zM937.65 283.44 a8.4 8.4 0 1 0 16.8 0 a8.4 8.4 0 1 0 -16.8 0zM1010.39 745.44 a8.4 8.4 0 1 0 16.8 0 a8.4 8.4 0 1 0 -16.8 0zM1083.14 787.44 a8.4 8.4 0 1 0 16.8 0 a8.4 8.4 0 1 0 -16.8 0zM1083.14 871.44 a8.4 8.4 0 1 0 16.8 0 a8.4 8.4 0 1 0 -16.8 0zM1010.39 913.44 a8.4 8.4 0 1 0 16.8 0 a8.4 8.4 0 1 0 -16.8 0zM937.65 871.44 a8.4 8.4 0 1 0 16.8 0 a8.4 8.4 0 1 0 -16.8 0zM937.65 787.44 a8.4 8.4 0 1 0 16.8 0 a8.4 8.4 0 1 0 -16.8 0zM1155.89 493.44 a8.4 8.4 0 1 0 16.8 0 a8.4 8.4 0 1 0 -16.8 0zM1228.64 535.44 a8.4 8.4 0 1 0 16.8 0 a8.4 8.4 0 1 0 -16.8 0zM1228.64 619.44 a8.4 8.4 0 1 0 16.8 0 a8.4 8.4 0 1 0 -16.8 0zM1155.89 661.44 a8.4 8.4 0 1 0 16.8 0 a8.4 8.4 0 1 0 -16.8 0zM1083.14 619.44 a8.4 8.4 0 1 0 16.8 0 a8.4 8.4 0 1 0 -16.8 0zM1083.14 535.44 a8.4 8.4 0 1 0 16.8 0 a8.4 8.4 0 1 0 -16.8 0zM1301.39 -10.56 a8.4 8.4 0 1 0 16.8 0 a8.4 8.4 0 1 0 -16.8 0zM1374.14 31.44 a8.4 8.4 0 1 0 16.8 0 a8.4 8.4 0 1 0 -16.8 0zM1374.14 115.44 a8.4 8.4 0 1 0 16.8 0 a8.4 8.4 0 1 0 -16.8 0zM1301.39 157.44 a8.4 8.4 0 1 0 16.8 0 a8.4 8.4 0 1 0 -16.8 0zM1228.64 115.44 a8.4 8.4 0 1 0 16.8 0 a8.4 8.4 0 1 0 -16.8 0zM1228.64 31.44 a8.4 8.4 0 1 0 16.8 0 a8.4 8.4 0 1 0 -16.8 0zM1301.39 493.44 a8.4 8.4 0 1 0 16.8 0 a8.4 8.4 0 1 0 -16.8 0zM1374.14 535.44 a8.4 8.4 0 1 0 16.8 0 a8.4 8.4 0 1 0 -16.8 0zM1374.14 619.44 a8.4 8.4 0 1 0 16.8 0 a8.4 8.4 0 1 0 -16.8 0zM1301.39 661.44 a8.4 8.4 0 1 0 16.8 0 a8.4 8.4 0 1 0 -16.8 0z" fill="url(#SvgjsLinearGradient1572)"></path><path d="M0 -84L72.75 -42L72.75 42L0 84L-72.75 42L-72.75 -42zM72.75 42L145.5 84L145.5 168L72.75 210L0 168L0 84zM0 168L72.75 210L72.75 294L0 336L-72.75 294L-72.75 210zM72.75 294L145.5 336L145.5 420L72.75 462L0 420L0 336zM0 420L72.75 462L72.75 546L0 588L-72.75 546L-72.75 462zM72.75 546L145.5 588L145.5 672L72.75 714L0 672L0 588zM0 672L72.75 714L72.75 798L0 840L-72.75 798L-72.75 714zM145.5 -84L218.24 -42L218.24 42L145.5 84L72.75 42L72.75 -42zM218.24 42L290.99 84L290.99 168L218.24 210L145.5 168L145.5 84zM145.5 168L218.24 210L218.24 294L145.5 336L72.75 294L72.75 210zM218.24 294L290.99 336L290.99 420L218.24 462L145.5 420L145.5 336zM145.5 420L218.24 462L218.24 546L145.5 588L72.75 546L72.75 462zM218.24 546L290.99 588L290.99 672L218.24 714L145.5 672L145.5 588zM145.5 672L218.24 714L218.24 798L145.5 840L72.75 798L72.75 714zM290.99 -84L363.74 -42L363.74 42L290.99 84L218.24 42L218.24 -42zM363.74 42L436.49 84L436.49 168L363.74 210L290.99 168L290.99 84zM290.99 168L363.74 210L363.74 294L290.99 336L218.24 294L218.24 210zM363.74 294L436.49 336L436.49 420L363.74 462L290.99 420L290.99 336zM290.99 420L363.74 462L363.74 546L290.99 588L218.24 546L218.24 462zM363.74 546L436.49 588L436.49 672L363.74 714L290.99 672L290.99 588zM290.99 672L363.74 714L363.74 798L290.99 840L218.24 798L218.24 714zM436.49 -84L509.24 -42L509.24 42L436.49 84L363.74 42L363.74 -42zM509.24 42L581.99 84L581.99 168L509.24 210L436.49 168L436.49 84zM436.49 168L509.24 210L509.24 294L436.49 336L363.74 294L363.74 210zM509.24 294L581.99 336L581.99 420L509.24 462L436.49 420L436.49 336zM436.49 420L509.24 462L509.24 546L436.49 588L363.74 546L363.74 462zM509.24 546L581.99 588L581.99 672L509.24 714L436.49 672L436.49 588zM436.49 672L509.24 714L509.24 798L436.49 840L363.74 798L363.74 714zM581.99 -84L654.73 -42L654.73 42L581.99 84L509.24 42L509.24 -42zM654.73 42L727.48 84L727.48 168L654.73 210L581.99 168L581.99 84zM581.99 168L654.73 210L654.73 294L581.99 336L509.24 294L509.24 210zM654.73 294L727.48 336L727.48 420L654.73 462L581.99 420L581.99 336zM581.99 420L654.73 462L654.73 546L581.99 588L509.24 546L509.24 462zM654.73 546L727.48 588L727.48 672L654.73 714L581.99 672L581.99 588zM581.99 672L654.73 714L654.73 798L581.99 840L509.24 798L509.24 714zM727.48 -84L800.23 -42L800.23 42L727.48 84L654.73 42L654.73 -42zM800.23 42L872.98 84L872.98 168L800.23 210L727.48 168L727.48 84zM727.48 168L800.23 210L800.23 294L727.48 336L654.73 294L654.73 210zM800.23 294L872.98 336L872.98 420L800.23 462L727.48 420L727.48 336zM727.48 420L800.23 462L800.23 546L727.48 588L654.73 546L654.73 462zM800.23 546L872.98 588L872.98 672L800.23 714L727.48 672L727.48 588zM727.48 672L800.23 714L800.23 798L727.48 840L654.73 798L654.73 714zM872.98 -84L945.73 -42L945.73 42L872.98 84L800.23 42L800.23 -42zM945.73 42L1018.47 84L1018.47 168L945.73 210L872.98 168L872.98 84zM872.98 168L945.73 210L945.73 294L872.98 336L800.23 294L800.23 210zM945.73 294L1018.47 336L1018.47 420L945.73 462L872.98 420L872.98 336zM872.98 420L945.73 462L945.73 546L872.98 588L800.23 546L800.23 462zM945.73 546L1018.47 588L1018.47 672L945.73 714L872.98 672L872.98 588zM872.98 672L945.73 714L945.73 798L872.98 840L800.23 798L800.23 714zM1018.47 -84L1091.22 -42L1091.22 42L1018.47 84L945.73 42L945.73 -42zM1091.22 42L1163.97 84L1163.97 168L1091.22 210L1018.47 168L1018.47 84zM1018.47 168L1091.22 210L1091.22 294L1018.47 336L945.73 294L945.73 210zM1091.22 294L1163.97 336L1163.97 420L1091.22 462L1018.47 420L1018.47 336zM1018.47 420L1091.22 462L1091.22 546L1018.47 588L945.73 546L945.73 462zM1091.22 546L1163.97 588L1163.97 672L1091.22 714L1018.47 672L1018.47 588zM1018.47 672L1091.22 714L1091.22 798L1018.47 840L945.73 798L945.73 714zM1163.97 -84L1236.72 -42L1236.72 42L1163.97 84L1091.22 42L1091.22 -42zM1236.72 42L1309.47 84L1309.47 168L1236.72 210L1163.97 168L1163.97 84zM1163.97 168L1236.72 210L1236.72 294L1163.97 336L1091.22 294L1091.22 210zM1236.72 294L1309.47 336L1309.47 420L1236.72 462L1163.97 420L1163.97 336zM1163.97 420L1236.72 462L1236.72 546L1163.97 588L1091.22 546L1091.22 462zM1236.72 546L1309.47 588L1309.47 672L1236.72 714L1163.97 672L1163.97 588zM1163.97 672L1236.72 714L1236.72 798L1163.97 840L1091.22 798L1091.22 714zM1309.47 -84L1382.22 -42L1382.22 42L1309.47 84L1236.72 42L1236.72 -42zM1382.22 42L1454.96 84L1454.96 168L1382.22 210L1309.47 168L1309.47 84zM1309.47 168L1382.22 210L1382.22 294L1309.47 336L1236.72 294L1236.72 210zM1382.22 294L1454.96 336L1454.96 420L1382.22 462L1309.47 420L1309.47 336zM1309.47 420L1382.22 462L1382.22 546L1309.47 588L1236.72 546L1236.72 462zM1382.22 546L1454.96 588L1454.96 672L1382.22 714L1309.47 672L1309.47 588zM1309.47 672L1382.22 714L1382.22 798L1309.47 840L1236.72 798L1236.72 714z" stroke="rgba(255, 0, 60, 1)" stroke-width="2"></path></g><defs><mask id="SvgjsMask1571"><rect width="1440" height="800" fill="#ffffff"></rect></mask><linearGradient x1="0" y1="400" x2="1440" y2="400" gradientUnits="userSpaceOnUse" id="SvgjsLinearGradient1572"><stop stop-color="rgba(0, 255, 244, 1)" offset="0"></stop><stop stop-color="#03305d" offset="1"></stop></linearGradient></defs></svg>