<svg xmlns="http://www.w3.org/2000/svg" version="1.1" xmlns:xlink="http://www.w3.org/1999/xlink" xmlns:svgjs="http://svgjs.com/svgjs" width="1440" height="800" preserveAspectRatio="none" viewBox="0 0 1440 800"><g mask="url(&quot;#SvgjsMask1061&quot;)" fill="none"><path d="M73.24 102.91L145.99 144.91L145.99 228.91L73.24 270.91L0.49 228.91L0.49 144.91zM73.24 354.91L145.99 396.91L145.99 480.91L73.24 522.91L0.49 480.91L0.49 396.91zM145.99 228.91L218.73 270.91L218.73 354.91L145.99 396.91L73.24 354.91L73.24 270.91zM364.23 354.91L436.98 396.91L436.98 480.91L364.23 522.91L291.48 480.91L291.48 396.91zM291.48 480.91L364.23 522.91L364.23 606.91L291.48 648.91L218.73 606.91L218.73 522.91zM291.48 732.91L364.23 774.91L364.23 858.91L291.48 900.91L218.73 858.91L218.73 774.91zM509.73 102.91L582.48 144.91L582.48 228.91L509.73 270.91L436.98 228.91L436.98 144.91zM436.98 228.91L509.73 270.91L509.73 354.91L436.98 396.91L364.23 354.91L364.23 270.91zM655.22 102.91L727.97 144.91L727.97 228.91L655.22 270.91L582.48 228.91L582.48 144.91zM582.48 228.91L655.22 270.91L655.22 354.91L582.48 396.91L509.73 354.91L509.73 270.91zM655.22 606.91L727.97 648.91L727.97 732.91L655.22 774.91L582.48 732.91L582.48 648.91zM800.72 354.91L873.47 396.91L873.47 480.91L800.72 522.91L727.97 480.91L727.97 396.91zM727.97 480.91L800.72 522.91L800.72 606.91L727.97 648.91L655.22 606.91L655.22 522.91zM946.22 102.91L1018.96 144.91L1018.96 228.91L946.22 270.91L873.47 228.91L873.47 144.91zM946.22 354.91L1018.96 396.91L1018.96 480.91L946.22 522.91L873.47 480.91L873.47 396.91zM1018.96 228.91L1091.71 270.91L1091.71 354.91L1018.96 396.91L946.22 354.91L946.22 270.91zM1091.71 354.91L1164.46 396.91L1164.46 480.91L1091.71 522.91L1018.96 480.91L1018.96 396.91zM1164.46 228.91L1237.21 270.91L1237.21 354.91L1164.46 396.91L1091.71 354.91L1091.71 270.91zM1309.96 -23.09L1382.71 18.91L1382.71 102.91L1309.96 144.91L1237.21 102.91L1237.21 18.91zM1309.96 228.91L1382.71 270.91L1382.71 354.91L1309.96 396.91L1237.21 354.91L1237.21 270.91zM1382.71 354.91L1455.45 396.91L1455.45 480.91L1382.71 522.91L1309.96 480.91L1309.96 396.91zM1309.96 732.91L1382.71 774.91L1382.71 858.91L1309.96 900.91L1237.21 858.91L1237.21 774.91z" stroke="rgba(255, 221, 0, 1)" stroke-width="2"></path><path d="M64.84 102.91 a8.4 8.4 0 1 0 16.8 0 a8.4 8.4 0 1 0 -16.8 0zM137.59 144.91 a8.4 8.4 0 1 0 16.8 0 a8.4 8.4 0 1 0 -16.8 0zM137.59 228.91 a8.4 8.4 0 1 0 16.8 0 a8.4 8.4 0 1 0 -16.8 0zM64.84 270.91 a8.4 8.4 0 1 0 16.8 0 a8.4 8.4 0 1 0 -16.8 0zM-7.91 228.91 a8.4 8.4 0 1 0 16.8 0 a8.4 8.4 0 1 0 -16.8 0zM-7.91 144.91 a8.4 8.4 0 1 0 16.8 0 a8.4 8.4 0 1 0 -16.8 0zM64.84 354.91 a8.4 8.4 0 1 0 16.8 0 a8.4 8.4 0 1 0 -16.8 0zM137.59 396.91 a8.4 8.4 0 1 0 16.8 0 a8.4 8.4 0 1 0 -16.8 0zM137.59 480.91 a8.4 8.4 0 1 0 16.8 0 a8.4 8.4 0 1 0 -16.8 0zM64.84 522.91 a8.4 8.4 0 1 0 16.8 0 a8.4 8.4 0 1 0 -16.8 0zM-7.91 480.91 a8.4 8.4 0 1 0 16.8 0 a8.4 8.4 0 1 0 -16.8 0zM-7.91 396.91 a8.4 8.4 0 1 0 16.8 0 a8.4 8.4 0 1 0 -16.8 0zM210.33 270.91 a8.4 8.4 0 1 0 16.8 0 a8.4 8.4 0 1 0 -16.8 0zM210.33 354.91 a8.4 8.4 0 1 0 16.8 0 a8.4 8.4 0 1 0 -16.8 0zM355.83 354.91 a8.4 8.4 0 1 0 16.8 0 a8.4 8.4 0 1 0 -16.8 0zM428.58 396.91 a8.4 8.4 0 1 0 16.8 0 a8.4 8.4 0 1 0 -16.8 0zM428.58 480.91 a8.4 8.4 0 1 0 16.8 0 a8.4 8.4 0 1 0 -16.8 0zM355.83 522.91 a8.4 8.4 0 1 0 16.8 0 a8.4 8.4 0 1 0 -16.8 0zM283.08 480.91 a8.4 8.4 0 1 0 16.8 0 a8.4 8.4 0 1 0 -16.8 0zM283.08 396.91 a8.4 8.4 0 1 0 16.8 0 a8.4 8.4 0 1 0 -16.8 0zM355.83 606.91 a8.4 8.4 0 1 0 16.8 0 a8.4 8.4 0 1 0 -16.8 0zM283.08 648.91 a8.4 8.4 0 1 0 16.8 0 a8.4 8.4 0 1 0 -16.8 0zM210.33 606.91 a8.4 8.4 0 1 0 16.8 0 a8.4 8.4 0 1 0 -16.8 0zM210.33 522.91 a8.4 8.4 0 1 0 16.8 0 a8.4 8.4 0 1 0 -16.8 0zM283.08 732.91 a8.4 8.4 0 1 0 16.8 0 a8.4 8.4 0 1 0 -16.8 0zM355.83 774.91 a8.4 8.4 0 1 0 16.8 0 a8.4 8.4 0 1 0 -16.8 0zM355.83 858.91 a8.4 8.4 0 1 0 16.8 0 a8.4 8.4 0 1 0 -16.8 0zM283.08 900.91 a8.4 8.4 0 1 0 16.8 0 a8.4 8.4 0 1 0 -16.8 0zM210.33 858.91 a8.4 8.4 0 1 0 16.8 0 a8.4 8.4 0 1 0 -16.8 0zM210.33 774.91 a8.4 8.4 0 1 0 16.8 0 a8.4 8.4 0 1 0 -16.8 0zM501.33 102.91 a8.4 8.4 0 1 0 16.8 0 a8.4 8.4 0 1 0 -16.8 0zM574.08 144.91 a8.4 8.4 0 1 0 16.8 0 a8.4 8.4 0 1 0 -16.8 0zM574.08 228.91 a8.4 8.4 0 1 0 16.8 0 a8.4 8.4 0 1 0 -16.8 0zM501.33 270.91 a8.4 8.4 0 1 0 16.8 0 a8.4 8.4 0 1 0 -16.8 0zM428.58 228.91 a8.4 8.4 0 1 0 16.8 0 a8.4 8.4 0 1 0 -16.8 0zM428.58 144.91 a8.4 8.4 0 1 0 16.8 0 a8.4 8.4 0 1 0 -16.8 0zM501.33 354.91 a8.4 8.4 0 1 0 16.8 0 a8.4 8.4 0 1 0 -16.8 0zM355.83 270.91 a8.4 8.4 0 1 0 16.8 0 a8.4 8.4 0 1 0 -16.8 0zM646.82 102.91 a8.4 8.4 0 1 0 16.8 0 a8.4 8.4 0 1 0 -16.8 0zM719.57 144.91 a8.4 8.4 0 1 0 16.8 0 a8.4 8.4 0 1 0 -16.8 0zM719.57 228.91 a8.4 8.4 0 1 0 16.8 0 a8.4 8.4 0 1 0 -16.8 0zM646.82 270.91 a8.4 8.4 0 1 0 16.8 0 a8.4 8.4 0 1 0 -16.8 0zM646.82 354.91 a8.4 8.4 0 1 0 16.8 0 a8.4 8.4 0 1 0 -16.8 0zM574.08 396.91 a8.4 8.4 0 1 0 16.8 0 a8.4 8.4 0 1 0 -16.8 0zM646.82 606.91 a8.4 8.4 0 1 0 16.8 0 a8.4 8.4 0 1 0 -16.8 0zM719.57 648.91 a8.4 8.4 0 1 0 16.8 0 a8.4 8.4 0 1 0 -16.8 0zM719.57 732.91 a8.4 8.4 0 1 0 16.8 0 a8.4 8.4 0 1 0 -16.8 0zM646.82 774.91 a8.4 8.4 0 1 0 16.8 0 a8.4 8.4 0 1 0 -16.8 0zM574.08 732.91 a8.4 8.4 0 1 0 16.8 0 a8.4 8.4 0 1 0 -16.8 0zM574.08 648.91 a8.4 8.4 0 1 0 16.8 0 a8.4 8.4 0 1 0 -16.8 0zM792.32 354.91 a8.4 8.4 0 1 0 16.8 0 a8.4 8.4 0 1 0 -16.8 0zM865.07 396.91 a8.4 8.4 0 1 0 16.8 0 a8.4 8.4 0 1 0 -16.8 0zM865.07 480.91 a8.4 8.4 0 1 0 16.8 0 a8.4 8.4 0 1 0 -16.8 0zM792.32 522.91 a8.4 8.4 0 1 0 16.8 0 a8.4 8.4 0 1 0 -16.8 0zM719.57 480.91 a8.4 8.4 0 1 0 16.8 0 a8.4 8.4 0 1 0 -16.8 0zM719.57 396.91 a8.4 8.4 0 1 0 16.8 0 a8.4 8.4 0 1 0 -16.8 0zM792.32 606.91 a8.4 8.4 0 1 0 16.8 0 a8.4 8.4 0 1 0 -16.8 0zM646.82 522.91 a8.4 8.4 0 1 0 16.8 0 a8.4 8.4 0 1 0 -16.8 0zM937.82 102.91 a8.4 8.4 0 1 0 16.8 0 a8.4 8.4 0 1 0 -16.8 0zM1010.56 144.91 a8.4 8.4 0 1 0 16.8 0 a8.4 8.4 0 1 0 -16.8 0zM1010.56 228.91 a8.4 8.4 0 1 0 16.8 0 a8.4 8.4 0 1 0 -16.8 0zM937.82 270.91 a8.4 8.4 0 1 0 16.8 0 a8.4 8.4 0 1 0 -16.8 0zM865.07 228.91 a8.4 8.4 0 1 0 16.8 0 a8.4 8.4 0 1 0 -16.8 0zM865.07 144.91 a8.4 8.4 0 1 0 16.8 0 a8.4 8.4 0 1 0 -16.8 0zM937.82 354.91 a8.4 8.4 0 1 0 16.8 0 a8.4 8.4 0 1 0 -16.8 0zM1010.56 396.91 a8.4 8.4 0 1 0 16.8 0 a8.4 8.4 0 1 0 -16.8 0zM1010.56 480.91 a8.4 8.4 0 1 0 16.8 0 a8.4 8.4 0 1 0 -16.8 0zM937.82 522.91 a8.4 8.4 0 1 0 16.8 0 a8.4 8.4 0 1 0 -16.8 0zM1083.31 270.91 a8.4 8.4 0 1 0 16.8 0 a8.4 8.4 0 1 0 -16.8 0zM1083.31 354.91 a8.4 8.4 0 1 0 16.8 0 a8.4 8.4 0 1 0 -16.8 0zM1156.06 396.91 a8.4 8.4 0 1 0 16.8 0 a8.4 8.4 0 1 0 -16.8 0zM1156.06 480.91 a8.4 8.4 0 1 0 16.8 0 a8.4 8.4 0 1 0 -16.8 0zM1083.31 522.91 a8.4 8.4 0 1 0 16.8 0 a8.4 8.4 0 1 0 -16.8 0zM1156.06 228.91 a8.4 8.4 0 1 0 16.8 0 a8.4 8.4 0 1 0 -16.8 0zM1228.81 270.91 a8.4 8.4 0 1 0 16.8 0 a8.4 8.4 0 1 0 -16.8 0zM1228.81 354.91 a8.4 8.4 0 1 0 16.8 0 a8.4 8.4 0 1 0 -16.8 0zM1301.56 -23.09 a8.4 8.4 0 1 0 16.8 0 a8.4 8.4 0 1 0 -16.8 0zM1374.31 18.91 a8.4 8.4 0 1 0 16.8 0 a8.4 8.4 0 1 0 -16.8 0zM1374.31 102.91 a8.4 8.4 0 1 0 16.8 0 a8.4 8.4 0 1 0 -16.8 0zM1301.56 144.91 a8.4 8.4 0 1 0 16.8 0 a8.4 8.4 0 1 0 -16.8 0zM1228.81 102.91 a8.4 8.4 0 1 0 16.8 0 a8.4 8.4 0 1 0 -16.8 0zM1228.81 18.91 a8.4 8.4 0 1 0 16.8 0 a8.4 8.4 0 1 0 -16.8 0zM1301.56 228.91 a8.4 8.4 0 1 0 16.8 0 a8.4 8.4 0 1 0 -16.8 0zM1374.31 270.91 a8.4 8.4 0 1 0 16.8 0 a8.4 8.4 0 1 0 -16.8 0zM1374.31 354.91 a8.4 8.4 0 1 0 16.8 0 a8.4 8.4 0 1 0 -16.8 0zM1301.56 396.91 a8.4 8.4 0 1 0 16.8 0 a8.4 8.4 0 1 0 -16.8 0zM1447.05 396.91 a8.4 8.4 0 1 0 16.8 0 a8.4 8.4 0 1 0 -16.8 0zM1447.05 480.91 a8.4 8.4 0 1 0 16.8 0 a8.4 8.4 0 1 0 -16.8 0zM1374.31 522.91 a8.4 8.4 0 1 0 16.8 0 a8.4 8.4 0 1 0 -16.8 0zM1301.56 480.91 a8.4 8.4 0 1 0 16.8 0 a8.4 8.4 0 1 0 -16.8 0zM1301.56 732.91 a8.4 8.4 0 1 0 16.8 0 a8.4 8.4 0 1 0 -16.8 0zM1374.31 774.91 a8.4 8.4 0 1 0 16.8 0 a8.4 8.4 0 1 0 -16.8 0zM1374.31 858.91 a8.4 8.4 0 1 0 16.8 0 a8.4 8.4 0 1 0 -16.8 0zM1301.56 900.91 a8.4 8.4 0 1 0 16.8 0 a8.4 8.4 0 1 0 -16.8 0zM1228.81 858.91 a8.4 8.4 0 1 0 16.8 0 a8.4 8.4 0 1 0 -16.8 0zM1228.81 774.91 a8.4 8.4 0 1 0 16.8 0 a8.4 8.4 0 1 0 -16.8 0z" fill="rgba(255, 221, 0, 1)"></path><path d="M0 -84L72.75 -42L72.75 42L0 84L-72.75 42L-72.75 -42zM72.75 42L145.5 84L145.5 168L72.75 210L0 168L0 84zM0 168L72.75 210L72.75 294L0 336L-72.75 294L-72.75 210zM72.75 294L145.5 336L145.5 420L72.75 462L0 420L0 336zM0 420L72.75 462L72.75 546L0 588L-72.75 546L-72.75 462zM72.75 546L145.5 588L145.5 672L72.75 714L0 672L0 588zM0 672L72.75 714L72.75 798L0 840L-72.75 798L-72.75 714zM145.5 -84L218.24 -42L218.24 42L145.5 84L72.75 42L72.75 -42zM218.24 42L290.99 84L290.99 168L218.24 210L145.5 168L145.5 84zM145.5 168L218.24 210L218.24 294L145.5 336L72.75 294L72.75 210zM218.24 294L290.99 336L290.99 420L218.24 462L145.5 420L145.5 336zM145.5 420L218.24 462L218.24 546L145.5 588L72.75 546L72.75 462zM218.24 546L290.99 588L290.99 672L218.24 714L145.5 672L145.5 588zM145.5 672L218.24 714L218.24 798L145.5 840L72.75 798L72.75 714zM290.99 -84L363.74 -42L363.74 42L290.99 84L218.24 42L218.24 -42zM363.74 42L436.49 84L436.49 168L363.74 210L290.99 168L290.99 84zM290.99 168L363.74 210L363.74 294L290.99 336L218.24 294L218.24 210zM363.74 294L436.49 336L436.49 420L363.74 462L290.99 420L290.99 336zM290.99 420L363.74 462L363.74 546L290.99 588L218.24 546L218.24 462zM363.74 546L436.49 588L436.49 672L363.74 714L290.99 672L290.99 588zM290.99 672L363.74 714L363.74 798L290.99 840L218.24 798L218.24 714zM436.49 -84L509.24 -42L509.24 42L436.49 84L363.74 42L363.74 -42zM509.24 42L581.99 84L581.99 168L509.24 210L436.49 168L436.49 84zM436.49 168L509.24 210L509.24 294L436.49 336L363.74 294L363.74 210zM509.24 294L581.99 336L581.99 420L509.24 462L436.49 420L436.49 336zM436.49 420L509.24 462L509.24 546L436.49 588L363.74 546L363.74 462zM509.24 546L581.99 588L581.99 672L509.24 714L436.49 672L436.49 588zM436.49 672L509.24 714L509.24 798L436.49 840L363.74 798L363.74 714zM581.99 -84L654.73 -42L654.73 42L581.99 84L509.24 42L509.24 -42zM654.73 42L727.48 84L727.48 168L654.73 210L581.99 168L581.99 84zM581.99 168L654.73 210L654.73 294L581.99 336L509.24 294L509.24 210zM654.73 294L727.48 336L727.48 420L654.73 462L581.99 420L581.99 336zM581.99 420L654.73 462L654.73 546L581.99 588L509.24 546L509.24 462zM654.73 546L727.48 588L727.48 672L654.73 714L581.99 672L581.99 588zM581.99 672L654.73 714L654.73 798L581.99 840L509.24 798L509.24 714zM727.48 -84L800.23 -42L800.23 42L727.48 84L654.73 42L654.73 -42zM800.23 42L872.98 84L872.98 168L800.23 210L727.48 168L727.48 84zM727.48 168L800.23 210L800.23 294L727.48 336L654.73 294L654.73 210zM800.23 294L872.98 336L872.98 420L800.23 462L727.48 420L727.48 336zM727.48 420L800.23 462L800.23 546L727.48 588L654.73 546L654.73 462zM800.23 546L872.98 588L872.98 672L800.23 714L727.48 672L727.48 588zM727.48 672L800.23 714L800.23 798L727.48 840L654.73 798L654.73 714zM872.98 -84L945.73 -42L945.73 42L872.98 84L800.23 42L800.23 -42zM945.73 42L1018.47 84L1018.47 168L945.73 210L872.98 168L872.98 84zM872.98 168L945.73 210L945.73 294L872.98 336L800.23 294L800.23 210zM945.73 294L1018.47 336L1018.47 420L945.73 462L872.98 420L872.98 336zM872.98 420L945.73 462L945.73 546L872.98 588L800.23 546L800.23 462zM945.73 546L1018.47 588L1018.47 672L945.73 714L872.98 672L872.98 588zM872.98 672L945.73 714L945.73 798L872.98 840L800.23 798L800.23 714zM1018.47 -84L1091.22 -42L1091.22 42L1018.47 84L945.73 42L945.73 -42zM1091.22 42L1163.97 84L1163.97 168L1091.22 210L1018.47 168L1018.47 84zM1018.47 168L1091.22 210L1091.22 294L1018.47 336L945.73 294L945.73 210zM1091.22 294L1163.97 336L1163.97 420L1091.22 462L1018.47 420L1018.47 336zM1018.47 420L1091.22 462L1091.22 546L1018.47 588L945.73 546L945.73 462zM1091.22 546L1163.97 588L1163.97 672L1091.22 714L1018.47 672L1018.47 588zM1018.47 672L1091.22 714L1091.22 798L1018.47 840L945.73 798L945.73 714zM1163.97 -84L1236.72 -42L1236.72 42L1163.97 84L1091.22 42L1091.22 -42zM1236.72 42L1309.47 84L1309.47 168L1236.72 210L1163.97 168L1163.97 84zM1163.97 168L1236.72 210L1236.72 294L1163.97 336L1091.22 294L1091.22 210zM1236.72 294L1309.47 336L1309.47 420L1236.72 462L1163.97 420L1163.97 336zM1163.97 420L1236.72 462L1236.72 546L1163.97 588L1091.22 546L1091.22 462zM1236.72 546L1309.47 588L1309.47 672L1236.72 714L1163.97 672L1163.97 588zM1163.97 672L1236.72 714L1236.72 798L1163.97 840L1091.22 798L1091.22 714zM1309.47 -84L1382.22 -42L1382.22 42L1309.47 84L1236.72 42L1236.72 -42zM1382.22 42L1454.96 84L1454.96 168L1382.22 210L1309.47 168L1309.47 84zM1309.47 168L1382.22 210L1382.22 294L1309.47 336L1236.72 294L1236.72 210zM1382.22 294L1454.96 336L1454.96 420L1382.22 462L1309.47 420L1309.47 336zM1309.47 420L1382.22 462L1382.22 546L1309.47 588L1236.72 546L1236.72 462zM1382.22 546L1454.96 588L1454.96 672L1382.22 714L1309.47 672L1309.47 588zM1309.47 672L1382.22 714L1382.22 798L1309.47 840L1236.72 798L1236.72 714z" stroke="rgba(255, 0, 60, 1)" stroke-width="2"></path></g><defs><mask id="SvgjsMask1061"><rect width="1440" height="800" fill="#ffffff"></rect></mask></defs></svg>