<svg xmlns="http://www.w3.org/2000/svg" version="1.1" xmlns:xlink="http://www.w3.org/1999/xlink" xmlns:svgjs="http://svgjs.com/svgjs" width="1440" height="560" preserveAspectRatio="none" viewBox="0 0 1440 560"><g mask="url(&quot;#SvgjsMask1006&quot;)" fill="none"><path d="M-110.58 359.3L-110.58 359.3" stroke="rgba(18, 114, 190, 1)" stroke-width="1.5"></path><path d="M-110.58 359.3L53.91 391.41" stroke="rgba(18, 114, 190, 1)" stroke-width="1.5"></path><path d="M-110.58 359.3L-37.91 526.47" stroke="rgba(18, 114, 190, 1)" stroke-width="1.5"></path><path d="M-110.58 359.3L83.99 534.67" stroke="rgba(18, 114, 190, 1)" stroke-width="1.5"></path><path d="M-37.91 526.47L-37.91 526.47" stroke="rgba(18, 114, 190, 1)" stroke-width="1.5"></path><path d="M-37.91 526.47L83.99 534.67" stroke="rgba(18, 114, 190, 1)" stroke-width="1.5"></path><path d="M-37.91 526.47L53.91 391.41" stroke="rgba(18, 114, 190, 1)" stroke-width="1.5"></path><path d="M-37.91 526.47L-94.87 700.54" stroke="rgba(18, 114, 190, 1)" stroke-width="1.5"></path><path d="M-37.91 526.47L79.67 704.83" stroke="rgba(18, 114, 190, 1)" stroke-width="1.5"></path><path d="M-37.91 526.47L202.28 411.56" stroke="rgba(18, 114, 190, 1)" stroke-width="1.5"></path><path d="M-94.87 700.54L-94.87 700.54" stroke="rgba(18, 114, 190, 1)" stroke-width="1.5"></path><path d="M-94.87 700.54L79.67 704.83" stroke="rgba(18, 114, 190, 1)" stroke-width="1.5"></path><path d="M-94.87 700.54L83.99 534.67" stroke="rgba(18, 114, 190, 1)" stroke-width="1.5"></path><path d="M-94.87 700.54L-110.58 359.3" stroke="rgba(18, 114, 190, 1)" stroke-width="1.5"></path><path d="M-94.87 700.54L53.91 391.41" stroke="rgba(18, 114, 190, 1)" stroke-width="1.5"></path><path d="M53.91 391.41L53.91 391.41" stroke="rgba(18, 114, 190, 1)" stroke-width="1.5"></path><path d="M53.91 391.41L83.99 534.67" stroke="rgba(18, 114, 190, 1)" stroke-width="1.5"></path><path d="M53.91 391.41L202.28 411.56" stroke="rgba(18, 114, 190, 1)" stroke-width="1.5"></path><path d="M53.91 391.41L230.7 512.39" stroke="rgba(18, 114, 190, 1)" stroke-width="1.5"></path><path d="M83.99 534.67L83.99 534.67" stroke="rgba(18, 114, 190, 1)" stroke-width="1.5"></path><path d="M83.99 534.67L230.7 512.39" stroke="rgba(18, 114, 190, 1)" stroke-width="1.5"></path><path d="M83.99 534.67L79.67 704.83" stroke="rgba(18, 114, 190, 1)" stroke-width="1.5"></path><path d="M83.99 534.67L202.28 411.56" stroke="rgba(18, 114, 190, 1)" stroke-width="1.5"></path><path d="M79.67 704.83L79.67 704.83" stroke="rgba(18, 114, 190, 1)" stroke-width="1.5"></path><path d="M79.67 704.83L259.11 690.03" stroke="rgba(18, 114, 190, 1)" stroke-width="1.5"></path><path d="M202.28 411.56L202.28 411.56" stroke="rgba(18, 114, 190, 1)" stroke-width="1.5"></path><path d="M202.28 411.56L230.7 512.39" stroke="rgba(18, 114, 190, 1)" stroke-width="1.5"></path><path d="M202.28 411.56L389.68 398.15" stroke="rgba(18, 114, 190, 1)" stroke-width="1.5"></path><path d="M202.28 411.56L386.58 513.41" stroke="rgba(18, 114, 190, 1)" stroke-width="1.5"></path><path d="M230.7 512.39L230.7 512.39" stroke="rgba(18, 114, 190, 1)" stroke-width="1.5"></path><path d="M230.7 512.39L386.58 513.41" stroke="rgba(18, 114, 190, 1)" stroke-width="1.5"></path><path d="M230.7 512.39L259.11 690.03" stroke="rgba(18, 114, 190, 1)" stroke-width="1.5"></path><path d="M259.11 690.03L259.11 690.03" stroke="rgba(18, 114, 190, 1)" stroke-width="1.5"></path><path d="M259.11 690.03L382.52 645.73" stroke="rgba(18, 114, 190, 1)" stroke-width="1.5"></path><path d="M259.11 690.03L386.58 513.41" stroke="rgba(18, 114, 190, 1)" stroke-width="1.5"></path><path d="M259.11 690.03L83.99 534.67" stroke="rgba(18, 114, 190, 1)" stroke-width="1.5"></path><path d="M389.68 398.15L389.68 398.15" stroke="rgba(18, 114, 190, 1)" stroke-width="1.5"></path><path d="M389.68 398.15L386.58 513.41" stroke="rgba(18, 114, 190, 1)" stroke-width="1.5"></path><path d="M389.68 398.15L553.83 373.62" stroke="rgba(18, 114, 190, 1)" stroke-width="1.5"></path><path d="M389.68 398.15L490.72 541.86" stroke="rgba(18, 114, 190, 1)" stroke-width="1.5"></path><path d="M389.68 398.15L230.7 512.39" stroke="rgba(18, 114, 190, 1)" stroke-width="1.5"></path><path d="M386.58 513.41L386.58 513.41" stroke="rgba(18, 114, 190, 1)" stroke-width="1.5"></path><path d="M386.58 513.41L490.72 541.86" stroke="rgba(18, 114, 190, 1)" stroke-width="1.5"></path><path d="M386.58 513.41L382.52 645.73" stroke="rgba(18, 114, 190, 1)" stroke-width="1.5"></path><path d="M386.58 513.41L510.73 672.73" stroke="rgba(18, 114, 190, 1)" stroke-width="1.5"></path><path d="M382.52 645.73L382.52 645.73" stroke="rgba(18, 114, 190, 1)" stroke-width="1.5"></path><path d="M382.52 645.73L510.73 672.73" stroke="rgba(18, 114, 190, 1)" stroke-width="1.5"></path><path d="M382.52 645.73L490.72 541.86" stroke="rgba(18, 114, 190, 1)" stroke-width="1.5"></path><path d="M382.52 645.73L230.7 512.39" stroke="rgba(18, 114, 190, 1)" stroke-width="1.5"></path><path d="M382.52 645.73L389.68 398.15" stroke="rgba(18, 114, 190, 1)" stroke-width="1.5"></path><path d="M553.83 373.62L553.83 373.62" stroke="rgba(18, 114, 190, 1)" stroke-width="1.5"></path><path d="M553.83 373.62L695 407.05" stroke="rgba(18, 114, 190, 1)" stroke-width="1.5"></path><path d="M553.83 373.62L656.32 259.03" stroke="rgba(18, 114, 190, 1)" stroke-width="1.5"></path><path d="M490.72 541.86L490.72 541.86" stroke="rgba(18, 114, 190, 1)" stroke-width="1.5"></path><path d="M490.72 541.86L510.73 672.73" stroke="rgba(18, 114, 190, 1)" stroke-width="1.5"></path><path d="M490.72 541.86L662.73 493.09" stroke="rgba(18, 114, 190, 1)" stroke-width="1.5"></path><path d="M510.73 672.73L510.73 672.73" stroke="rgba(18, 114, 190, 1)" stroke-width="1.5"></path><path d="M510.73 672.73L691.31 656.09" stroke="rgba(18, 114, 190, 1)" stroke-width="1.5"></path><path d="M656.32 259.03L656.32 259.03" stroke="rgba(18, 114, 190, 1)" stroke-width="1.5"></path><path d="M656.32 259.03L797.57 227.3" stroke="rgba(18, 114, 190, 1)" stroke-width="1.5"></path><path d="M656.32 259.03L695 407.05" stroke="rgba(18, 114, 190, 1)" stroke-width="1.5"></path><path d="M656.32 259.03L662.73 493.09" stroke="rgba(18, 114, 190, 1)" stroke-width="1.5"></path><path d="M656.32 259.03L389.68 398.15" stroke="rgba(18, 114, 190, 1)" stroke-width="1.5"></path><path d="M656.32 259.03L954.25 380.18" stroke="rgba(18, 114, 190, 1)" stroke-width="1.5"></path><path d="M695 407.05L695 407.05" stroke="rgba(18, 114, 190, 1)" stroke-width="1.5"></path><path d="M695 407.05L662.73 493.09" stroke="rgba(18, 114, 190, 1)" stroke-width="1.5"></path><path d="M662.73 493.09L662.73 493.09" stroke="rgba(18, 114, 190, 1)" stroke-width="1.5"></path><path d="M662.73 493.09L553.83 373.62" stroke="rgba(18, 114, 190, 1)" stroke-width="1.5"></path><path d="M691.31 656.09L691.31 656.09" stroke="rgba(18, 114, 190, 1)" stroke-width="1.5"></path><path d="M691.31 656.09L844.99 696.22" stroke="rgba(18, 114, 190, 1)" stroke-width="1.5"></path><path d="M691.31 656.09L662.73 493.09" stroke="rgba(18, 114, 190, 1)" stroke-width="1.5"></path><path d="M797.57 227.3L797.57 227.3" stroke="rgba(18, 114, 190, 1)" stroke-width="1.5"></path><path d="M797.57 227.3L998.46 212.01" stroke="rgba(18, 114, 190, 1)" stroke-width="1.5"></path><path d="M834.65 530.94L834.65 530.94" stroke="rgba(18, 114, 190, 1)" stroke-width="1.5"></path><path d="M834.65 530.94L948.59 519.96" stroke="rgba(18, 114, 190, 1)" stroke-width="1.5"></path><path d="M834.65 530.94L844.99 696.22" stroke="rgba(18, 114, 190, 1)" stroke-width="1.5"></path><path d="M834.65 530.94L662.73 493.09" stroke="rgba(18, 114, 190, 1)" stroke-width="1.5"></path><path d="M834.65 530.94L695 407.05" stroke="rgba(18, 114, 190, 1)" stroke-width="1.5"></path><path d="M834.65 530.94L691.31 656.09" stroke="rgba(18, 114, 190, 1)" stroke-width="1.5"></path><path d="M834.65 530.94L954.25 380.18" stroke="rgba(18, 114, 190, 1)" stroke-width="1.5"></path><path d="M844.99 696.22L844.99 696.22" stroke="rgba(18, 114, 190, 1)" stroke-width="1.5"></path><path d="M844.99 696.22L959.59 677.46" stroke="rgba(18, 114, 190, 1)" stroke-width="1.5"></path><path d="M844.99 696.22L948.59 519.96" stroke="rgba(18, 114, 190, 1)" stroke-width="1.5"></path><path d="M844.99 696.22L1102.76 700.56" stroke="rgba(18, 114, 190, 1)" stroke-width="1.5"></path><path d="M1005.14 -67.1L1005.14 -67.1" stroke="rgba(18, 114, 190, 1)" stroke-width="1.5"></path><path d="M1005.14 -67.1L1135.82 -70.88" stroke="rgba(18, 114, 190, 1)" stroke-width="1.5"></path><path d="M1005.14 -67.1L1012.28 88.41" stroke="rgba(18, 114, 190, 1)" stroke-width="1.5"></path><path d="M1005.14 -67.1L1157.58 72.51" stroke="rgba(18, 114, 190, 1)" stroke-width="1.5"></path><path d="M1012.28 88.41L1012.28 88.41" stroke="rgba(18, 114, 190, 1)" stroke-width="1.5"></path><path d="M1012.28 88.41L998.46 212.01" stroke="rgba(18, 114, 190, 1)" stroke-width="1.5"></path><path d="M1012.28 88.41L1157.58 72.51" stroke="rgba(18, 114, 190, 1)" stroke-width="1.5"></path><path d="M1012.28 88.41L1135.82 -70.88" stroke="rgba(18, 114, 190, 1)" stroke-width="1.5"></path><path d="M1012.28 88.41L1142.68 249.9" stroke="rgba(18, 114, 190, 1)" stroke-width="1.5"></path><path d="M998.46 212.01L998.46 212.01" stroke="rgba(18, 114, 190, 1)" stroke-width="1.5"></path><path d="M998.46 212.01L1142.68 249.9" stroke="rgba(18, 114, 190, 1)" stroke-width="1.5"></path><path d="M998.46 212.01L954.25 380.18" stroke="rgba(18, 114, 190, 1)" stroke-width="1.5"></path><path d="M998.46 212.01L1157.58 72.51" stroke="rgba(18, 114, 190, 1)" stroke-width="1.5"></path><path d="M954.25 380.18L954.25 380.18" stroke="rgba(18, 114, 190, 1)" stroke-width="1.5"></path><path d="M954.25 380.18L948.59 519.96" stroke="rgba(18, 114, 190, 1)" stroke-width="1.5"></path><path d="M954.25 380.18L1093.12 401.81" stroke="rgba(18, 114, 190, 1)" stroke-width="1.5"></path><path d="M954.25 380.18L797.57 227.3" stroke="rgba(18, 114, 190, 1)" stroke-width="1.5"></path><path d="M948.59 519.96L948.59 519.96" stroke="rgba(18, 114, 190, 1)" stroke-width="1.5"></path><path d="M948.59 519.96L959.59 677.46" stroke="rgba(18, 114, 190, 1)" stroke-width="1.5"></path><path d="M959.59 677.46L959.59 677.46" stroke="rgba(18, 114, 190, 1)" stroke-width="1.5"></path><path d="M959.59 677.46L1102.76 700.56" stroke="rgba(18, 114, 190, 1)" stroke-width="1.5"></path><path d="M1135.82 -70.88L1135.82 -70.88" stroke="rgba(18, 114, 190, 1)" stroke-width="1.5"></path><path d="M1135.82 -70.88L1242.55 -85.44" stroke="rgba(18, 114, 190, 1)" stroke-width="1.5"></path><path d="M1135.82 -70.88L1157.58 72.51" stroke="rgba(18, 114, 190, 1)" stroke-width="1.5"></path><path d="M1157.58 72.51L1157.58 72.51" stroke="rgba(18, 114, 190, 1)" stroke-width="1.5"></path><path d="M1157.58 72.51L1238.83 73.73" stroke="rgba(18, 114, 190, 1)" stroke-width="1.5"></path><path d="M1157.58 72.51L1142.68 249.9" stroke="rgba(18, 114, 190, 1)" stroke-width="1.5"></path><path d="M1157.58 72.51L1242.55 -85.44" stroke="rgba(18, 114, 190, 1)" stroke-width="1.5"></path><path d="M1157.58 72.51L1297.11 197.74" stroke="rgba(18, 114, 190, 1)" stroke-width="1.5"></path><path d="M1142.68 249.9L1142.68 249.9" stroke="rgba(18, 114, 190, 1)" stroke-width="1.5"></path><path d="M1142.68 249.9L1093.12 401.81" stroke="rgba(18, 114, 190, 1)" stroke-width="1.5"></path><path d="M1093.12 401.81L1093.12 401.81" stroke="rgba(18, 114, 190, 1)" stroke-width="1.5"></path><path d="M1093.12 401.81L1134.33 552" stroke="rgba(18, 114, 190, 1)" stroke-width="1.5"></path><path d="M1134.33 552L1134.33 552" stroke="rgba(18, 114, 190, 1)" stroke-width="1.5"></path><path d="M1134.33 552L1102.76 700.56" stroke="rgba(18, 114, 190, 1)" stroke-width="1.5"></path><path d="M1134.33 552L1280.21 650.95" stroke="rgba(18, 114, 190, 1)" stroke-width="1.5"></path><path d="M1134.33 552L948.59 519.96" stroke="rgba(18, 114, 190, 1)" stroke-width="1.5"></path><path d="M1134.33 552L959.59 677.46" stroke="rgba(18, 114, 190, 1)" stroke-width="1.5"></path><path d="M1134.33 552L954.25 380.18" stroke="rgba(18, 114, 190, 1)" stroke-width="1.5"></path><path d="M1102.76 700.56L1102.76 700.56" stroke="rgba(18, 114, 190, 1)" stroke-width="1.5"></path><path d="M1242.55 -85.44L1242.55 -85.44" stroke="rgba(18, 114, 190, 1)" stroke-width="1.5"></path><path d="M1242.55 -85.44L1238.83 73.73" stroke="rgba(18, 114, 190, 1)" stroke-width="1.5"></path><path d="M1238.83 73.73L1238.83 73.73" stroke="rgba(18, 114, 190, 1)" stroke-width="1.5"></path><path d="M1238.83 73.73L1297.11 197.74" stroke="rgba(18, 114, 190, 1)" stroke-width="1.5"></path><path d="M1238.83 73.73L1135.82 -70.88" stroke="rgba(18, 114, 190, 1)" stroke-width="1.5"></path><path d="M1238.83 73.73L1438.77 75.67" stroke="rgba(18, 114, 190, 1)" stroke-width="1.5"></path><path d="M1238.83 73.73L1142.68 249.9" stroke="rgba(18, 114, 190, 1)" stroke-width="1.5"></path><path d="M1297.11 197.74L1297.11 197.74" stroke="rgba(18, 114, 190, 1)" stroke-width="1.5"></path><path d="M1297.11 197.74L1439.29 218.26" stroke="rgba(18, 114, 190, 1)" stroke-width="1.5"></path><path d="M1297.11 197.74L1142.68 249.9" stroke="rgba(18, 114, 190, 1)" stroke-width="1.5"></path><path d="M1297.11 197.74L1438.77 75.67" stroke="rgba(18, 114, 190, 1)" stroke-width="1.5"></path><path d="M1280.21 650.95L1280.21 650.95" stroke="rgba(18, 114, 190, 1)" stroke-width="1.5"></path><path d="M1280.21 650.95L1424.41 662.43" stroke="rgba(18, 114, 190, 1)" stroke-width="1.5"></path><path d="M1280.21 650.95L1102.76 700.56" stroke="rgba(18, 114, 190, 1)" stroke-width="1.5"></path><path d="M1280.21 650.95L1547.12 680.59" stroke="rgba(18, 114, 190, 1)" stroke-width="1.5"></path><path d="M1280.21 650.95L1435.28 400.64" stroke="rgba(18, 114, 190, 1)" stroke-width="1.5"></path><path d="M1280.21 650.95L1093.12 401.81" stroke="rgba(18, 114, 190, 1)" stroke-width="1.5"></path><path d="M1454.8 -43.11L1454.8 -43.11" stroke="rgba(18, 114, 190, 1)" stroke-width="1.5"></path><path d="M1454.8 -43.11L1549.27 -41.72" stroke="rgba(18, 114, 190, 1)" stroke-width="1.5"></path><path d="M1454.8 -43.11L1438.77 75.67" stroke="rgba(18, 114, 190, 1)" stroke-width="1.5"></path><path d="M1438.77 75.67L1438.77 75.67" stroke="rgba(18, 114, 190, 1)" stroke-width="1.5"></path><path d="M1438.77 75.67L1565.73 92.23" stroke="rgba(18, 114, 190, 1)" stroke-width="1.5"></path><path d="M1439.29 218.26L1439.29 218.26" stroke="rgba(18, 114, 190, 1)" stroke-width="1.5"></path><path d="M1439.29 218.26L1541.84 228.07" stroke="rgba(18, 114, 190, 1)" stroke-width="1.5"></path><path d="M1439.29 218.26L1438.77 75.67" stroke="rgba(18, 114, 190, 1)" stroke-width="1.5"></path><path d="M1439.29 218.26L1565.73 92.23" stroke="rgba(18, 114, 190, 1)" stroke-width="1.5"></path><path d="M1435.28 400.64L1435.28 400.64" stroke="rgba(18, 114, 190, 1)" stroke-width="1.5"></path><path d="M1435.28 400.64L1548.91 364.18" stroke="rgba(18, 114, 190, 1)" stroke-width="1.5"></path><path d="M1435.28 400.64L1439.29 218.26" stroke="rgba(18, 114, 190, 1)" stroke-width="1.5"></path><path d="M1435.28 400.64L1541.84 228.07" stroke="rgba(18, 114, 190, 1)" stroke-width="1.5"></path><path d="M1435.28 400.64L1603.16 522.58" stroke="rgba(18, 114, 190, 1)" stroke-width="1.5"></path><path d="M1424.41 662.43L1424.41 662.43" stroke="rgba(18, 114, 190, 1)" stroke-width="1.5"></path><path d="M1424.41 662.43L1547.12 680.59" stroke="rgba(18, 114, 190, 1)" stroke-width="1.5"></path><path d="M1424.41 662.43L1603.16 522.58" stroke="rgba(18, 114, 190, 1)" stroke-width="1.5"></path><path d="M1424.41 662.43L1435.28 400.64" stroke="rgba(18, 114, 190, 1)" stroke-width="1.5"></path><path d="M1424.41 662.43L1134.33 552" stroke="rgba(18, 114, 190, 1)" stroke-width="1.5"></path><path d="M1424.41 662.43L1548.91 364.18" stroke="rgba(18, 114, 190, 1)" stroke-width="1.5"></path><path d="M1549.27 -41.72L1549.27 -41.72" stroke="rgba(18, 114, 190, 1)" stroke-width="1.5"></path><path d="M1549.27 -41.72L1565.73 92.23" stroke="rgba(18, 114, 190, 1)" stroke-width="1.5"></path><path d="M1565.73 92.23L1565.73 92.23" stroke="rgba(18, 114, 190, 1)" stroke-width="1.5"></path><path d="M1565.73 92.23L1541.84 228.07" stroke="rgba(18, 114, 190, 1)" stroke-width="1.5"></path><path d="M1565.73 92.23L1454.8 -43.11" stroke="rgba(18, 114, 190, 1)" stroke-width="1.5"></path><path d="M1565.73 92.23L1548.91 364.18" stroke="rgba(18, 114, 190, 1)" stroke-width="1.5"></path><path d="M1541.84 228.07L1541.84 228.07" stroke="rgba(18, 114, 190, 1)" stroke-width="1.5"></path><path d="M1541.84 228.07L1548.91 364.18" stroke="rgba(18, 114, 190, 1)" stroke-width="1.5"></path><path d="M1541.84 228.07L1438.77 75.67" stroke="rgba(18, 114, 190, 1)" stroke-width="1.5"></path><path d="M1541.84 228.07L1297.11 197.74" stroke="rgba(18, 114, 190, 1)" stroke-width="1.5"></path><path d="M1548.91 364.18L1548.91 364.18" stroke="rgba(18, 114, 190, 1)" stroke-width="1.5"></path><path d="M1548.91 364.18L1603.16 522.58" stroke="rgba(18, 114, 190, 1)" stroke-width="1.5"></path><path d="M1548.91 364.18L1439.29 218.26" stroke="rgba(18, 114, 190, 1)" stroke-width="1.5"></path><path d="M1603.16 522.58L1603.16 522.58" stroke="rgba(18, 114, 190, 1)" stroke-width="1.5"></path><path d="M1603.16 522.58L1547.12 680.59" stroke="rgba(18, 114, 190, 1)" stroke-width="1.5"></path><path d="M1547.12 680.59L1547.12 680.59" stroke="rgba(18, 114, 190, 1)" stroke-width="1.5"></path><circle r="5" cx="-110.58" cy="359.3" fill="rgba(18, 114, 190, 1)"></circle><circle r="5" cx="-37.91" cy="526.47" fill="rgba(18, 114, 190, 1)"></circle><circle r="5" cx="-94.87" cy="700.54" fill="rgba(18, 114, 190, 1)"></circle><circle r="5" cx="53.91" cy="391.41" fill="rgba(18, 114, 190, 1)"></circle><circle r="5" cx="83.99" cy="534.67" fill="rgba(18, 114, 190, 1)"></circle><circle r="5" cx="79.67" cy="704.83" fill="rgba(18, 114, 190, 1)"></circle><circle r="5" cx="202.28" cy="411.56" fill="rgba(18, 114, 190, 1)"></circle><circle r="5" cx="230.7" cy="512.39" fill="rgba(18, 114, 190, 1)"></circle><circle r="5" cx="259.11" cy="690.03" fill="rgba(18, 114, 190, 1)"></circle><circle r="5" cx="389.68" cy="398.15" fill="rgba(18, 114, 190, 1)"></circle><circle r="5" cx="386.58" cy="513.41" fill="rgba(18, 114, 190, 1)"></circle><circle r="5" cx="382.52" cy="645.73" fill="rgba(18, 114, 190, 1)"></circle><circle r="5" cx="553.83" cy="373.62" fill="rgba(18, 114, 190, 1)"></circle><circle r="5" cx="490.72" cy="541.86" fill="rgba(18, 114, 190, 1)"></circle><circle r="5" cx="510.73" cy="672.73" fill="rgba(18, 114, 190, 1)"></circle><circle r="5" cx="656.32" cy="259.03" fill="rgba(18, 114, 190, 1)"></circle><circle r="5" cx="695" cy="407.05" fill="rgba(18, 114, 190, 1)"></circle><circle r="5" cx="662.73" cy="493.09" fill="rgba(18, 114, 190, 1)"></circle><circle r="5" cx="691.31" cy="656.09" fill="rgba(18, 114, 190, 1)"></circle><circle r="5" cx="797.57" cy="227.3" fill="rgba(18, 114, 190, 1)"></circle><circle r="5" cx="834.65" cy="530.94" fill="rgba(18, 114, 190, 1)"></circle><circle r="5" cx="844.99" cy="696.22" fill="rgba(18, 114, 190, 1)"></circle><circle r="5" cx="1005.14" cy="-67.1" fill="rgba(18, 114, 190, 1)"></circle><circle r="5" cx="1012.28" cy="88.41" fill="rgba(18, 114, 190, 1)"></circle><circle r="5" cx="998.46" cy="212.01" fill="rgba(18, 114, 190, 1)"></circle><circle r="5" cx="954.25" cy="380.18" fill="rgba(18, 114, 190, 1)"></circle><circle r="5" cx="948.59" cy="519.96" fill="rgba(18, 114, 190, 1)"></circle><circle r="5" cx="959.59" cy="677.46" fill="rgba(18, 114, 190, 1)"></circle><circle r="5" cx="1135.82" cy="-70.88" fill="rgba(18, 114, 190, 1)"></circle><circle r="5" cx="1157.58" cy="72.51" fill="rgba(18, 114, 190, 1)"></circle><circle r="5" cx="1142.68" cy="249.9" fill="rgba(18, 114, 190, 1)"></circle><circle r="5" cx="1093.12" cy="401.81" fill="rgba(18, 114, 190, 1)"></circle><circle r="5" cx="1134.33" cy="552" fill="rgba(18, 114, 190, 1)"></circle><circle r="5" cx="1102.76" cy="700.56" fill="rgba(18, 114, 190, 1)"></circle><circle r="5" cx="1242.55" cy="-85.44" fill="rgba(18, 114, 190, 1)"></circle><circle r="5" cx="1238.83" cy="73.73" fill="rgba(18, 114, 190, 1)"></circle><circle r="5" cx="1297.11" cy="197.74" fill="rgba(18, 114, 190, 1)"></circle><circle r="5" cx="1280.21" cy="650.95" fill="rgba(18, 114, 190, 1)"></circle><circle r="5" cx="1454.8" cy="-43.11" fill="rgba(18, 114, 190, 1)"></circle><circle r="5" cx="1438.77" cy="75.67" fill="rgba(18, 114, 190, 1)"></circle><circle r="5" cx="1439.29" cy="218.26" fill="rgba(18, 114, 190, 1)"></circle><circle r="5" cx="1435.28" cy="400.64" fill="rgba(18, 114, 190, 1)"></circle><circle r="5" cx="1424.41" cy="662.43" fill="rgba(18, 114, 190, 1)"></circle><circle r="5" cx="1549.27" cy="-41.72" fill="rgba(18, 114, 190, 1)"></circle><circle r="5" cx="1565.73" cy="92.23" fill="rgba(18, 114, 190, 1)"></circle><circle r="5" cx="1541.84" cy="228.07" fill="rgba(18, 114, 190, 1)"></circle><circle r="5" cx="1548.91" cy="364.18" fill="rgba(18, 114, 190, 1)"></circle><circle r="5" cx="1603.16" cy="522.58" fill="rgba(18, 114, 190, 1)"></circle><circle r="5" cx="1547.12" cy="680.59" fill="rgba(18, 114, 190, 1)"></circle><path d="M-110.57 691.88L-110.57 691.88" stroke="hsl(204, 100%, 65%)" stroke-width="1.5"></path><path d="M-110.57 691.88L47.27 655.21" stroke="hsl(204, 100%, 65%)" stroke-width="1.5"></path><path d="M-110.57 691.88L-41.12 536.14" stroke="hsl(204, 100%, 65%)" stroke-width="1.5"></path><path d="M-110.57 691.88L64.82 553.42" stroke="hsl(204, 100%, 65%)" stroke-width="1.5"></path><path d="M249.63 535.11L249.63 535.11" stroke="hsl(204, 100%, 65%)" stroke-width="1.5"></path><path d="M249.63 535.11L362.65 534.47" stroke="hsl(204, 100%, 65%)" stroke-width="1.5"></path><path d="M249.63 535.11L255.17 695.49" stroke="hsl(204, 100%, 65%)" stroke-width="1.5"></path><path d="M249.63 535.11L64.82 553.42" stroke="hsl(204, 100%, 65%)" stroke-width="1.5"></path><path d="M249.63 535.11L370.49 699.36" stroke="hsl(204, 100%, 65%)" stroke-width="1.5"></path><path d="M249.63 535.11L47.27 655.21" stroke="hsl(204, 100%, 65%)" stroke-width="1.5"></path><path d="M362.65 534.47L362.65 534.47" stroke="hsl(204, 100%, 65%)" stroke-width="1.5"></path><path d="M362.65 534.47L525.18 522.67" stroke="hsl(204, 100%, 65%)" stroke-width="1.5"></path><path d="M362.65 534.47L370.49 699.36" stroke="hsl(204, 100%, 65%)" stroke-width="1.5"></path><path d="M362.65 534.47L255.17 695.49" stroke="hsl(204, 100%, 65%)" stroke-width="1.5"></path><path d="M525.18 522.67L525.18 522.67" stroke="hsl(204, 100%, 65%)" stroke-width="1.5"></path><path d="M525.18 522.67L647.05 497.89" stroke="hsl(204, 100%, 65%)" stroke-width="1.5"></path><path d="M525.18 522.67L534.76 686.48" stroke="hsl(204, 100%, 65%)" stroke-width="1.5"></path><path d="M534.76 686.48L534.76 686.48" stroke="hsl(204, 100%, 65%)" stroke-width="1.5"></path><path d="M534.76 686.48L694.44 670.8" stroke="hsl(204, 100%, 65%)" stroke-width="1.5"></path><path d="M534.76 686.48L370.49 699.36" stroke="hsl(204, 100%, 65%)" stroke-width="1.5"></path><path d="M534.76 686.48L647.05 497.89" stroke="hsl(204, 100%, 65%)" stroke-width="1.5"></path><path d="M855.88 529.77L855.88 529.77" stroke="hsl(204, 100%, 65%)" stroke-width="1.5"></path><path d="M855.88 529.77L999.76 514.06" stroke="hsl(204, 100%, 65%)" stroke-width="1.5"></path><path d="M855.88 529.77L824.78 694.96" stroke="hsl(204, 100%, 65%)" stroke-width="1.5"></path><path d="M824.78 694.96L824.78 694.96" stroke="hsl(204, 100%, 65%)" stroke-width="1.5"></path><path d="M824.78 694.96L694.44 670.8" stroke="hsl(204, 100%, 65%)" stroke-width="1.5"></path><path d="M824.78 694.96L999.87 694.09" stroke="hsl(204, 100%, 65%)" stroke-width="1.5"></path><path d="M824.78 694.96L999.76 514.06" stroke="hsl(204, 100%, 65%)" stroke-width="1.5"></path><path d="M999.87 694.09L999.87 694.09" stroke="hsl(204, 100%, 65%)" stroke-width="1.5"></path><path d="M999.87 694.09L1129.02 709.92" stroke="hsl(204, 100%, 65%)" stroke-width="1.5"></path><path d="M999.87 694.09L999.76 514.06" stroke="hsl(204, 100%, 65%)" stroke-width="1.5"></path><path d="M999.87 694.09L1147.57 559.02" stroke="hsl(204, 100%, 65%)" stroke-width="1.5"></path><path d="M1312.18 -86.86L1312.18 -86.86" stroke="hsl(204, 100%, 65%)" stroke-width="1.5"></path><path d="M1312.18 -86.86L1395.33 -61.44" stroke="hsl(204, 100%, 65%)" stroke-width="1.5"></path><path d="M1312.18 -86.86L1415.67 67.2" stroke="hsl(204, 100%, 65%)" stroke-width="1.5"></path><path d="M1312.18 -86.86L1295.48 110.32" stroke="hsl(204, 100%, 65%)" stroke-width="1.5"></path><path d="M1295.48 110.32L1295.48 110.32" stroke="hsl(204, 100%, 65%)" stroke-width="1.5"></path><path d="M1295.48 110.32L1277.95 196.61" stroke="hsl(204, 100%, 65%)" stroke-width="1.5"></path><path d="M1295.48 110.32L1415.67 67.2" stroke="hsl(204, 100%, 65%)" stroke-width="1.5"></path><path d="M1295.48 110.32L1405.55 244.59" stroke="hsl(204, 100%, 65%)" stroke-width="1.5"></path><path d="M1295.48 110.32L1395.33 -61.44" stroke="hsl(204, 100%, 65%)" stroke-width="1.5"></path><path d="M1295.48 110.32L1100.4 195.92" stroke="hsl(204, 100%, 65%)" stroke-width="1.5"></path><path d="M1277.95 196.61L1277.95 196.61" stroke="hsl(204, 100%, 65%)" stroke-width="1.5"></path><path d="M1277.95 196.61L1405.55 244.59" stroke="hsl(204, 100%, 65%)" stroke-width="1.5"></path><path d="M1277.95 196.61L1295.21 353.68" stroke="hsl(204, 100%, 65%)" stroke-width="1.5"></path><path d="M1277.95 196.61L1100.4 195.92" stroke="hsl(204, 100%, 65%)" stroke-width="1.5"></path><path d="M1553.32 639.85L1553.32 639.85" stroke="hsl(204, 100%, 65%)" stroke-width="1.5"></path><path d="M1553.32 639.85L1598.01 539.64" stroke="hsl(204, 100%, 65%)" stroke-width="1.5"></path><path d="M1553.32 639.85L1415.21 638.67" stroke="hsl(204, 100%, 65%)" stroke-width="1.5"></path><path d="M1553.32 639.85L1431 512.56" stroke="hsl(204, 100%, 65%)" stroke-width="1.5"></path><path d="M1553.32 639.85L1568.27 411.45" stroke="hsl(204, 100%, 65%)" stroke-width="1.5"></path><path d="M1553.32 639.85L1294.75 652.68" stroke="hsl(204, 100%, 65%)" stroke-width="1.5"></path><path d="M-41.12 536.14L-41.12 536.14" stroke="hsl(204, 100%, 65%)" stroke-width="1.5"></path><path d="M-41.12 536.14L64.82 553.42" stroke="hsl(204, 100%, 65%)" stroke-width="1.5"></path><path d="M-41.12 536.14L47.27 655.21" stroke="hsl(204, 100%, 65%)" stroke-width="1.5"></path><path d="M-41.12 536.14L249.63 535.11" stroke="hsl(204, 100%, 65%)" stroke-width="1.5"></path><path d="M64.82 553.42L64.82 553.42" stroke="hsl(204, 100%, 65%)" stroke-width="1.5"></path><path d="M64.82 553.42L47.27 655.21" stroke="hsl(204, 100%, 65%)" stroke-width="1.5"></path><path d="M47.27 655.21L47.27 655.21" stroke="hsl(204, 100%, 65%)" stroke-width="1.5"></path><path d="M255.17 695.49L255.17 695.49" stroke="hsl(204, 100%, 65%)" stroke-width="1.5"></path><path d="M255.17 695.49L370.49 699.36" stroke="hsl(204, 100%, 65%)" stroke-width="1.5"></path><path d="M255.17 695.49L47.27 655.21" stroke="hsl(204, 100%, 65%)" stroke-width="1.5"></path><path d="M255.17 695.49L64.82 553.42" stroke="hsl(204, 100%, 65%)" stroke-width="1.5"></path><path d="M370.49 699.36L370.49 699.36" stroke="hsl(204, 100%, 65%)" stroke-width="1.5"></path><path d="M647.05 497.89L647.05 497.89" stroke="hsl(204, 100%, 65%)" stroke-width="1.5"></path><path d="M647.05 497.89L694.44 670.8" stroke="hsl(204, 100%, 65%)" stroke-width="1.5"></path><path d="M647.05 497.89L789.66 343.97" stroke="hsl(204, 100%, 65%)" stroke-width="1.5"></path><path d="M647.05 497.89L855.88 529.77" stroke="hsl(204, 100%, 65%)" stroke-width="1.5"></path><path d="M647.05 497.89L824.78 694.96" stroke="hsl(204, 100%, 65%)" stroke-width="1.5"></path><path d="M694.44 670.8L694.44 670.8" stroke="hsl(204, 100%, 65%)" stroke-width="1.5"></path><path d="M789.66 343.97L789.66 343.97" stroke="hsl(204, 100%, 65%)" stroke-width="1.5"></path><path d="M789.66 343.97L967.7 382.09" stroke="hsl(204, 100%, 65%)" stroke-width="1.5"></path><path d="M789.66 343.97L855.88 529.77" stroke="hsl(204, 100%, 65%)" stroke-width="1.5"></path><path d="M789.66 343.97L999.76 514.06" stroke="hsl(204, 100%, 65%)" stroke-width="1.5"></path><path d="M789.66 343.97L525.18 522.67" stroke="hsl(204, 100%, 65%)" stroke-width="1.5"></path><path d="M967.7 382.09L967.7 382.09" stroke="hsl(204, 100%, 65%)" stroke-width="1.5"></path><path d="M967.7 382.09L999.76 514.06" stroke="hsl(204, 100%, 65%)" stroke-width="1.5"></path><path d="M967.7 382.09L1111.64 346.15" stroke="hsl(204, 100%, 65%)" stroke-width="1.5"></path><path d="M967.7 382.09L855.88 529.77" stroke="hsl(204, 100%, 65%)" stroke-width="1.5"></path><path d="M967.7 382.09L1100.4 195.92" stroke="hsl(204, 100%, 65%)" stroke-width="1.5"></path><path d="M967.7 382.09L1147.57 559.02" stroke="hsl(204, 100%, 65%)" stroke-width="1.5"></path><path d="M999.76 514.06L999.76 514.06" stroke="hsl(204, 100%, 65%)" stroke-width="1.5"></path><path d="M1100.4 195.92L1100.4 195.92" stroke="hsl(204, 100%, 65%)" stroke-width="1.5"></path><path d="M1100.4 195.92L1111.64 346.15" stroke="hsl(204, 100%, 65%)" stroke-width="1.5"></path><path d="M1111.64 346.15L1111.64 346.15" stroke="hsl(204, 100%, 65%)" stroke-width="1.5"></path><path d="M1111.64 346.15L1295.21 353.68" stroke="hsl(204, 100%, 65%)" stroke-width="1.5"></path><path d="M1111.64 346.15L999.76 514.06" stroke="hsl(204, 100%, 65%)" stroke-width="1.5"></path><path d="M1147.57 559.02L1147.57 559.02" stroke="hsl(204, 100%, 65%)" stroke-width="1.5"></path><path d="M1147.57 559.02L1129.02 709.92" stroke="hsl(204, 100%, 65%)" stroke-width="1.5"></path><path d="M1147.57 559.02L999.76 514.06" stroke="hsl(204, 100%, 65%)" stroke-width="1.5"></path><path d="M1129.02 709.92L1129.02 709.92" stroke="hsl(204, 100%, 65%)" stroke-width="1.5"></path><path d="M1129.02 709.92L1294.75 652.68" stroke="hsl(204, 100%, 65%)" stroke-width="1.5"></path><path d="M1295.21 353.68L1295.21 353.68" stroke="hsl(204, 100%, 65%)" stroke-width="1.5"></path><path d="M1295.21 353.68L1427.93 395.55" stroke="hsl(204, 100%, 65%)" stroke-width="1.5"></path><path d="M1295.21 353.68L1405.55 244.59" stroke="hsl(204, 100%, 65%)" stroke-width="1.5"></path><path d="M1303.14 548.17L1303.14 548.17" stroke="hsl(204, 100%, 65%)" stroke-width="1.5"></path><path d="M1303.14 548.17L1294.75 652.68" stroke="hsl(204, 100%, 65%)" stroke-width="1.5"></path><path d="M1303.14 548.17L1431 512.56" stroke="hsl(204, 100%, 65%)" stroke-width="1.5"></path><path d="M1303.14 548.17L1415.21 638.67" stroke="hsl(204, 100%, 65%)" stroke-width="1.5"></path><path d="M1303.14 548.17L1147.57 559.02" stroke="hsl(204, 100%, 65%)" stroke-width="1.5"></path><path d="M1303.14 548.17L1295.21 353.68" stroke="hsl(204, 100%, 65%)" stroke-width="1.5"></path><path d="M1303.14 548.17L1427.93 395.55" stroke="hsl(204, 100%, 65%)" stroke-width="1.5"></path><path d="M1294.75 652.68L1294.75 652.68" stroke="hsl(204, 100%, 65%)" stroke-width="1.5"></path><path d="M1294.75 652.68L1415.21 638.67" stroke="hsl(204, 100%, 65%)" stroke-width="1.5"></path><path d="M1294.75 652.68L1147.57 559.02" stroke="hsl(204, 100%, 65%)" stroke-width="1.5"></path><path d="M1294.75 652.68L1431 512.56" stroke="hsl(204, 100%, 65%)" stroke-width="1.5"></path><path d="M1395.33 -61.44L1395.33 -61.44" stroke="hsl(204, 100%, 65%)" stroke-width="1.5"></path><path d="M1395.33 -61.44L1415.67 67.2" stroke="hsl(204, 100%, 65%)" stroke-width="1.5"></path><path d="M1415.67 67.2L1415.67 67.2" stroke="hsl(204, 100%, 65%)" stroke-width="1.5"></path><path d="M1405.55 244.59L1405.55 244.59" stroke="hsl(204, 100%, 65%)" stroke-width="1.5"></path><path d="M1405.55 244.59L1427.93 395.55" stroke="hsl(204, 100%, 65%)" stroke-width="1.5"></path><path d="M1427.93 395.55L1427.93 395.55" stroke="hsl(204, 100%, 65%)" stroke-width="1.5"></path><path d="M1427.93 395.55L1431 512.56" stroke="hsl(204, 100%, 65%)" stroke-width="1.5"></path><path d="M1427.93 395.55L1568.27 411.45" stroke="hsl(204, 100%, 65%)" stroke-width="1.5"></path><path d="M1431 512.56L1431 512.56" stroke="hsl(204, 100%, 65%)" stroke-width="1.5"></path><path d="M1431 512.56L1415.21 638.67" stroke="hsl(204, 100%, 65%)" stroke-width="1.5"></path><path d="M1431 512.56L1598.01 539.64" stroke="hsl(204, 100%, 65%)" stroke-width="1.5"></path><path d="M1431 512.56L1568.27 411.45" stroke="hsl(204, 100%, 65%)" stroke-width="1.5"></path><path d="M1415.21 638.67L1415.21 638.67" stroke="hsl(204, 100%, 65%)" stroke-width="1.5"></path><path d="M1559.04 -39.44L1559.04 -39.44" stroke="hsl(204, 100%, 65%)" stroke-width="1.5"></path><path d="M1559.04 -39.44L1583.91 95.08" stroke="hsl(204, 100%, 65%)" stroke-width="1.5"></path><path d="M1559.04 -39.44L1395.33 -61.44" stroke="hsl(204, 100%, 65%)" stroke-width="1.5"></path><path d="M1559.04 -39.44L1415.67 67.2" stroke="hsl(204, 100%, 65%)" stroke-width="1.5"></path><path d="M1559.04 -39.44L1312.18 -86.86" stroke="hsl(204, 100%, 65%)" stroke-width="1.5"></path><path d="M1559.04 -39.44L1561.69 246.24" stroke="hsl(204, 100%, 65%)" stroke-width="1.5"></path><path d="M1583.91 95.08L1583.91 95.08" stroke="hsl(204, 100%, 65%)" stroke-width="1.5"></path><path d="M1583.91 95.08L1561.69 246.24" stroke="hsl(204, 100%, 65%)" stroke-width="1.5"></path><path d="M1583.91 95.08L1415.67 67.2" stroke="hsl(204, 100%, 65%)" stroke-width="1.5"></path><path d="M1561.69 246.24L1561.69 246.24" stroke="hsl(204, 100%, 65%)" stroke-width="1.5"></path><path d="M1561.69 246.24L1405.55 244.59" stroke="hsl(204, 100%, 65%)" stroke-width="1.5"></path><path d="M1561.69 246.24L1568.27 411.45" stroke="hsl(204, 100%, 65%)" stroke-width="1.5"></path><path d="M1561.69 246.24L1427.93 395.55" stroke="hsl(204, 100%, 65%)" stroke-width="1.5"></path><path d="M1568.27 411.45L1568.27 411.45" stroke="hsl(204, 100%, 65%)" stroke-width="1.5"></path><path d="M1568.27 411.45L1598.01 539.64" stroke="hsl(204, 100%, 65%)" stroke-width="1.5"></path><path d="M1568.27 411.45L1405.55 244.59" stroke="hsl(204, 100%, 65%)" stroke-width="1.5"></path><path d="M1598.01 539.64L1598.01 539.64" stroke="hsl(204, 100%, 65%)" stroke-width="1.5"></path><path d="M1598.01 539.64L1415.21 638.67" stroke="hsl(204, 100%, 65%)" stroke-width="1.5"></path><path d="M1598.01 539.64L1427.93 395.55" stroke="hsl(204, 100%, 65%)" stroke-width="1.5"></path><path d="M1598.01 539.64L1303.14 548.17" stroke="hsl(204, 100%, 65%)" stroke-width="1.5"></path><circle r="25" cx="-110.57" cy="691.88" fill="url(#SvgjsRadialGradient1007)"></circle><circle r="25" cx="249.63" cy="535.11" fill="url(#SvgjsRadialGradient1007)"></circle><circle r="25" cx="362.65" cy="534.47" fill="url(#SvgjsRadialGradient1007)"></circle><circle r="25" cx="525.18" cy="522.67" fill="url(#SvgjsRadialGradient1007)"></circle><circle r="25" cx="534.76" cy="686.48" fill="url(#SvgjsRadialGradient1007)"></circle><circle r="25" cx="855.88" cy="529.77" fill="url(#SvgjsRadialGradient1007)"></circle><circle r="25" cx="824.78" cy="694.96" fill="url(#SvgjsRadialGradient1007)"></circle><circle r="25" cx="999.87" cy="694.09" fill="url(#SvgjsRadialGradient1007)"></circle><circle r="25" cx="1312.18" cy="-86.86" fill="url(#SvgjsRadialGradient1007)"></circle><circle r="25" cx="1295.48" cy="110.32" fill="url(#SvgjsRadialGradient1007)"></circle><circle r="25" cx="1277.95" cy="196.61" fill="url(#SvgjsRadialGradient1007)"></circle><circle r="25" cx="1553.32" cy="639.85" fill="url(#SvgjsRadialGradient1007)"></circle><circle r="5" cx="-41.12" cy="536.14" fill="#80ccff"></circle><circle r="5" cx="64.82" cy="553.42" fill="#80ccff"></circle><circle r="5" cx="47.27" cy="655.21" fill="#80ccff"></circle><circle r="5" cx="255.17" cy="695.49" fill="#80ccff"></circle><circle r="5" cx="370.49" cy="699.36" fill="#80ccff"></circle><circle r="5" cx="647.05" cy="497.89" fill="#80ccff"></circle><circle r="5" cx="694.44" cy="670.8" fill="#80ccff"></circle><circle r="5" cx="789.66" cy="343.97" fill="#80ccff"></circle><circle r="5" cx="967.7" cy="382.09" fill="#80ccff"></circle><circle r="5" cx="999.76" cy="514.06" fill="#80ccff"></circle><circle r="5" cx="1100.4" cy="195.92" fill="#80ccff"></circle><circle r="5" cx="1111.64" cy="346.15" fill="#80ccff"></circle><circle r="5" cx="1147.57" cy="559.02" fill="#80ccff"></circle><circle r="5" cx="1129.02" cy="709.92" fill="#80ccff"></circle><circle r="5" cx="1295.21" cy="353.68" fill="#80ccff"></circle><circle r="5" cx="1303.14" cy="548.17" fill="#80ccff"></circle><circle r="5" cx="1294.75" cy="652.68" fill="#80ccff"></circle><circle r="5" cx="1395.33" cy="-61.44" fill="#80ccff"></circle><circle r="5" cx="1415.67" cy="67.2" fill="#80ccff"></circle><circle r="5" cx="1405.55" cy="244.59" fill="#80ccff"></circle><circle r="5" cx="1427.93" cy="395.55" fill="#80ccff"></circle><circle r="5" cx="1431" cy="512.56" fill="#80ccff"></circle><circle r="5" cx="1415.21" cy="638.67" fill="#80ccff"></circle><circle r="5" cx="1559.04" cy="-39.44" fill="#80ccff"></circle><circle r="5" cx="1583.91" cy="95.08" fill="#80ccff"></circle><circle r="5" cx="1561.69" cy="246.24" fill="#80ccff"></circle><circle r="5" cx="1568.27" cy="411.45" fill="#80ccff"></circle><circle r="5" cx="1598.01" cy="539.64" fill="#80ccff"></circle></g><defs><mask id="SvgjsMask1006"><rect width="1440" height="560" fill="#ffffff"></rect></mask><radialGradient id="SvgjsRadialGradient1007"><stop stop-color="#ffffff" offset="0.1"></stop><stop stop-color="rgba(0, 153, 255, 1)" offset="0.2"></stop><stop stop-color="rgba(0, 153, 255, 0)" offset="1"></stop></radialGradient></defs></svg>