<svg xmlns="http://www.w3.org/2000/svg" version="1.1" xmlns:xlink="http://www.w3.org/1999/xlink" xmlns:svgjs="http://svgjs.com/svgjs" width="1440" height="700" preserveAspectRatio="none" viewBox="0 0 1440 700"><g mask="url(&quot;#SvgjsMask1042&quot;)" fill="none"><path d="M-45.5 708.43L-45.5 708.43" stroke="rgba(255, 0, 60, 1)" stroke-width="1.5"></path><path d="M-45.5 708.43L-67.24 825.43" stroke="rgba(255, 0, 60, 1)" stroke-width="1.5"></path><path d="M-45.5 708.43L98.54 710.72" stroke="rgba(255, 0, 60, 1)" stroke-width="1.5"></path><path d="M-67.24 825.43L-67.24 825.43" stroke="rgba(255, 0, 60, 1)" stroke-width="1.5"></path><path d="M-67.24 825.43L75.14 801.79" stroke="rgba(255, 0, 60, 1)" stroke-width="1.5"></path><path d="M-67.24 825.43L98.54 710.72" stroke="rgba(255, 0, 60, 1)" stroke-width="1.5"></path><path d="M-67.24 825.43L208.29 841.47" stroke="rgba(255, 0, 60, 1)" stroke-width="1.5"></path><path d="M91.3 526.74L91.3 526.74" stroke="rgba(255, 0, 60, 1)" stroke-width="1.5"></path><path d="M91.3 526.74L224.11 507.1" stroke="rgba(255, 0, 60, 1)" stroke-width="1.5"></path><path d="M91.3 526.74L98.54 710.72" stroke="rgba(255, 0, 60, 1)" stroke-width="1.5"></path><path d="M91.3 526.74L-45.5 708.43" stroke="rgba(255, 0, 60, 1)" stroke-width="1.5"></path><path d="M91.3 526.74L364.07 549.9" stroke="rgba(255, 0, 60, 1)" stroke-width="1.5"></path><path d="M91.3 526.74L75.14 801.79" stroke="rgba(255, 0, 60, 1)" stroke-width="1.5"></path><path d="M91.3 526.74L208.29 841.47" stroke="rgba(255, 0, 60, 1)" stroke-width="1.5"></path><path d="M98.54 710.72L98.54 710.72" stroke="rgba(255, 0, 60, 1)" stroke-width="1.5"></path><path d="M98.54 710.72L75.14 801.79" stroke="rgba(255, 0, 60, 1)" stroke-width="1.5"></path><path d="M98.54 710.72L208.29 841.47" stroke="rgba(255, 0, 60, 1)" stroke-width="1.5"></path><path d="M75.14 801.79L75.14 801.79" stroke="rgba(255, 0, 60, 1)" stroke-width="1.5"></path><path d="M75.14 801.79L208.29 841.47" stroke="rgba(255, 0, 60, 1)" stroke-width="1.5"></path><path d="M75.14 801.79L-45.5 708.43" stroke="rgba(255, 0, 60, 1)" stroke-width="1.5"></path><path d="M224.11 507.1L224.11 507.1" stroke="rgba(255, 0, 60, 1)" stroke-width="1.5"></path><path d="M224.11 507.1L364.07 549.9" stroke="rgba(255, 0, 60, 1)" stroke-width="1.5"></path><path d="M224.11 507.1L98.54 710.72" stroke="rgba(255, 0, 60, 1)" stroke-width="1.5"></path><path d="M224.11 507.1L388.7 688.79" stroke="rgba(255, 0, 60, 1)" stroke-width="1.5"></path><path d="M208.29 841.47L208.29 841.47" stroke="rgba(255, 0, 60, 1)" stroke-width="1.5"></path><path d="M208.29 841.47L402.59 850.95" stroke="rgba(255, 0, 60, 1)" stroke-width="1.5"></path><path d="M208.29 841.47L388.7 688.79" stroke="rgba(255, 0, 60, 1)" stroke-width="1.5"></path><path d="M208.29 841.47L-45.5 708.43" stroke="rgba(255, 0, 60, 1)" stroke-width="1.5"></path><path d="M364.07 549.9L364.07 549.9" stroke="rgba(255, 0, 60, 1)" stroke-width="1.5"></path><path d="M364.07 549.9L388.7 688.79" stroke="rgba(255, 0, 60, 1)" stroke-width="1.5"></path><path d="M388.7 688.79L388.7 688.79" stroke="rgba(255, 0, 60, 1)" stroke-width="1.5"></path><path d="M388.7 688.79L493.65 694.29" stroke="rgba(255, 0, 60, 1)" stroke-width="1.5"></path><path d="M388.7 688.79L402.59 850.95" stroke="rgba(255, 0, 60, 1)" stroke-width="1.5"></path><path d="M402.59 850.95L402.59 850.95" stroke="rgba(255, 0, 60, 1)" stroke-width="1.5"></path><path d="M402.59 850.95L557.9 832.49" stroke="rgba(255, 0, 60, 1)" stroke-width="1.5"></path><path d="M535.41 377.72L535.41 377.72" stroke="rgba(255, 0, 60, 1)" stroke-width="1.5"></path><path d="M535.41 377.72L542.62 505.49" stroke="rgba(255, 0, 60, 1)" stroke-width="1.5"></path><path d="M535.41 377.72L673.79 532.21" stroke="rgba(255, 0, 60, 1)" stroke-width="1.5"></path><path d="M535.41 377.72L364.07 549.9" stroke="rgba(255, 0, 60, 1)" stroke-width="1.5"></path><path d="M542.62 505.49L542.62 505.49" stroke="rgba(255, 0, 60, 1)" stroke-width="1.5"></path><path d="M542.62 505.49L673.79 532.21" stroke="rgba(255, 0, 60, 1)" stroke-width="1.5"></path><path d="M493.65 694.29L493.65 694.29" stroke="rgba(255, 0, 60, 1)" stroke-width="1.5"></path><path d="M493.65 694.29L557.9 832.49" stroke="rgba(255, 0, 60, 1)" stroke-width="1.5"></path><path d="M493.65 694.29L660.08 657.52" stroke="rgba(255, 0, 60, 1)" stroke-width="1.5"></path><path d="M493.65 694.29L402.59 850.95" stroke="rgba(255, 0, 60, 1)" stroke-width="1.5"></path><path d="M493.65 694.29L364.07 549.9" stroke="rgba(255, 0, 60, 1)" stroke-width="1.5"></path><path d="M493.65 694.29L542.62 505.49" stroke="rgba(255, 0, 60, 1)" stroke-width="1.5"></path><path d="M557.9 832.49L557.9 832.49" stroke="rgba(255, 0, 60, 1)" stroke-width="1.5"></path><path d="M557.9 832.49L709.56 827.86" stroke="rgba(255, 0, 60, 1)" stroke-width="1.5"></path><path d="M557.9 832.49L660.08 657.52" stroke="rgba(255, 0, 60, 1)" stroke-width="1.5"></path><path d="M557.9 832.49L388.7 688.79" stroke="rgba(255, 0, 60, 1)" stroke-width="1.5"></path><path d="M557.9 832.49L801.56 825.77" stroke="rgba(255, 0, 60, 1)" stroke-width="1.5"></path><path d="M673.79 532.21L673.79 532.21" stroke="rgba(255, 0, 60, 1)" stroke-width="1.5"></path><path d="M673.79 532.21L660.08 657.52" stroke="rgba(255, 0, 60, 1)" stroke-width="1.5"></path><path d="M660.08 657.52L660.08 657.52" stroke="rgba(255, 0, 60, 1)" stroke-width="1.5"></path><path d="M660.08 657.52L798.58 691.59" stroke="rgba(255, 0, 60, 1)" stroke-width="1.5"></path><path d="M660.08 657.52L709.56 827.86" stroke="rgba(255, 0, 60, 1)" stroke-width="1.5"></path><path d="M660.08 657.52L542.62 505.49" stroke="rgba(255, 0, 60, 1)" stroke-width="1.5"></path><path d="M709.56 827.86L709.56 827.86" stroke="rgba(255, 0, 60, 1)" stroke-width="1.5"></path><path d="M709.56 827.86L801.56 825.77" stroke="rgba(255, 0, 60, 1)" stroke-width="1.5"></path><path d="M709.56 827.86L798.58 691.59" stroke="rgba(255, 0, 60, 1)" stroke-width="1.5"></path><path d="M709.56 827.86L493.65 694.29" stroke="rgba(255, 0, 60, 1)" stroke-width="1.5"></path><path d="M709.56 827.86L971.55 705.48" stroke="rgba(255, 0, 60, 1)" stroke-width="1.5"></path><path d="M820.9 192.12L820.9 192.12" stroke="rgba(255, 0, 60, 1)" stroke-width="1.5"></path><path d="M820.9 192.12L1010.72 188.54" stroke="rgba(255, 0, 60, 1)" stroke-width="1.5"></path><path d="M820.9 192.12L982.14 70.04" stroke="rgba(255, 0, 60, 1)" stroke-width="1.5"></path><path d="M844.34 398.78L844.34 398.78" stroke="rgba(255, 0, 60, 1)" stroke-width="1.5"></path><path d="M844.34 398.78L844.06 493.11" stroke="rgba(255, 0, 60, 1)" stroke-width="1.5"></path><path d="M844.34 398.78L949.14 402.75" stroke="rgba(255, 0, 60, 1)" stroke-width="1.5"></path><path d="M844.34 398.78L820.9 192.12" stroke="rgba(255, 0, 60, 1)" stroke-width="1.5"></path><path d="M844.34 398.78L673.79 532.21" stroke="rgba(255, 0, 60, 1)" stroke-width="1.5"></path><path d="M844.06 493.11L844.06 493.11" stroke="rgba(255, 0, 60, 1)" stroke-width="1.5"></path><path d="M844.06 493.11L949.14 402.75" stroke="rgba(255, 0, 60, 1)" stroke-width="1.5"></path><path d="M844.06 493.11L1004.98 559.58" stroke="rgba(255, 0, 60, 1)" stroke-width="1.5"></path><path d="M844.06 493.11L673.79 532.21" stroke="rgba(255, 0, 60, 1)" stroke-width="1.5"></path><path d="M798.58 691.59L798.58 691.59" stroke="rgba(255, 0, 60, 1)" stroke-width="1.5"></path><path d="M798.58 691.59L801.56 825.77" stroke="rgba(255, 0, 60, 1)" stroke-width="1.5"></path><path d="M801.56 825.77L801.56 825.77" stroke="rgba(255, 0, 60, 1)" stroke-width="1.5"></path><path d="M950.61 -84.32L950.61 -84.32" stroke="rgba(255, 0, 60, 1)" stroke-width="1.5"></path><path d="M950.61 -84.32L1100.08 -79.94" stroke="rgba(255, 0, 60, 1)" stroke-width="1.5"></path><path d="M950.61 -84.32L982.14 70.04" stroke="rgba(255, 0, 60, 1)" stroke-width="1.5"></path><path d="M950.61 -84.32L1124.77 95.51" stroke="rgba(255, 0, 60, 1)" stroke-width="1.5"></path><path d="M950.61 -84.32L1010.72 188.54" stroke="rgba(255, 0, 60, 1)" stroke-width="1.5"></path><path d="M982.14 70.04L982.14 70.04" stroke="rgba(255, 0, 60, 1)" stroke-width="1.5"></path><path d="M982.14 70.04L1010.72 188.54" stroke="rgba(255, 0, 60, 1)" stroke-width="1.5"></path><path d="M982.14 70.04L1124.77 95.51" stroke="rgba(255, 0, 60, 1)" stroke-width="1.5"></path><path d="M982.14 70.04L1100.08 -79.94" stroke="rgba(255, 0, 60, 1)" stroke-width="1.5"></path><path d="M982.14 70.04L1149.15 234.42" stroke="rgba(255, 0, 60, 1)" stroke-width="1.5"></path><path d="M1010.72 188.54L1010.72 188.54" stroke="rgba(255, 0, 60, 1)" stroke-width="1.5"></path><path d="M1010.72 188.54L1149.15 234.42" stroke="rgba(255, 0, 60, 1)" stroke-width="1.5"></path><path d="M1010.72 188.54L1124.77 95.51" stroke="rgba(255, 0, 60, 1)" stroke-width="1.5"></path><path d="M1010.72 188.54L949.14 402.75" stroke="rgba(255, 0, 60, 1)" stroke-width="1.5"></path><path d="M1010.72 188.54L1247.44 251.26" stroke="rgba(255, 0, 60, 1)" stroke-width="1.5"></path><path d="M949.14 402.75L949.14 402.75" stroke="rgba(255, 0, 60, 1)" stroke-width="1.5"></path><path d="M949.14 402.75L1004.98 559.58" stroke="rgba(255, 0, 60, 1)" stroke-width="1.5"></path><path d="M1004.98 559.58L1004.98 559.58" stroke="rgba(255, 0, 60, 1)" stroke-width="1.5"></path><path d="M1004.98 559.58L971.55 705.48" stroke="rgba(255, 0, 60, 1)" stroke-width="1.5"></path><path d="M971.55 705.48L971.55 705.48" stroke="rgba(255, 0, 60, 1)" stroke-width="1.5"></path><path d="M971.55 705.48L1007.23 794.07" stroke="rgba(255, 0, 60, 1)" stroke-width="1.5"></path><path d="M1007.23 794.07L1007.23 794.07" stroke="rgba(255, 0, 60, 1)" stroke-width="1.5"></path><path d="M1007.23 794.07L1116 837.47" stroke="rgba(255, 0, 60, 1)" stroke-width="1.5"></path><path d="M1007.23 794.07L1147.91 686.88" stroke="rgba(255, 0, 60, 1)" stroke-width="1.5"></path><path d="M1100.08 -79.94L1100.08 -79.94" stroke="rgba(255, 0, 60, 1)" stroke-width="1.5"></path><path d="M1100.08 -79.94L1124.77 95.51" stroke="rgba(255, 0, 60, 1)" stroke-width="1.5"></path><path d="M1100.08 -79.94L1277.3 -70.78" stroke="rgba(255, 0, 60, 1)" stroke-width="1.5"></path><path d="M1100.08 -79.94L1264.96 71.13" stroke="rgba(255, 0, 60, 1)" stroke-width="1.5"></path><path d="M1100.08 -79.94L1010.72 188.54" stroke="rgba(255, 0, 60, 1)" stroke-width="1.5"></path><path d="M1124.77 95.51L1124.77 95.51" stroke="rgba(255, 0, 60, 1)" stroke-width="1.5"></path><path d="M1124.77 95.51L1149.15 234.42" stroke="rgba(255, 0, 60, 1)" stroke-width="1.5"></path><path d="M1124.77 95.51L1264.96 71.13" stroke="rgba(255, 0, 60, 1)" stroke-width="1.5"></path><path d="M1149.15 234.42L1149.15 234.42" stroke="rgba(255, 0, 60, 1)" stroke-width="1.5"></path><path d="M1149.15 234.42L1247.44 251.26" stroke="rgba(255, 0, 60, 1)" stroke-width="1.5"></path><path d="M1149.15 234.42L1288.48 340.99" stroke="rgba(255, 0, 60, 1)" stroke-width="1.5"></path><path d="M1156.79 502.65L1156.79 502.65" stroke="rgba(255, 0, 60, 1)" stroke-width="1.5"></path><path d="M1156.79 502.65L1252.06 559.67" stroke="rgba(255, 0, 60, 1)" stroke-width="1.5"></path><path d="M1156.79 502.65L1004.98 559.58" stroke="rgba(255, 0, 60, 1)" stroke-width="1.5"></path><path d="M1147.91 686.88L1147.91 686.88" stroke="rgba(255, 0, 60, 1)" stroke-width="1.5"></path><path d="M1147.91 686.88L1116 837.47" stroke="rgba(255, 0, 60, 1)" stroke-width="1.5"></path><path d="M1147.91 686.88L1309.42 696.54" stroke="rgba(255, 0, 60, 1)" stroke-width="1.5"></path><path d="M1147.91 686.88L1252.06 559.67" stroke="rgba(255, 0, 60, 1)" stroke-width="1.5"></path><path d="M1116 837.47L1116 837.47" stroke="rgba(255, 0, 60, 1)" stroke-width="1.5"></path><path d="M1116 837.47L1261.07 851.99" stroke="rgba(255, 0, 60, 1)" stroke-width="1.5"></path><path d="M1116 837.47L971.55 705.48" stroke="rgba(255, 0, 60, 1)" stroke-width="1.5"></path><path d="M1116 837.47L1309.42 696.54" stroke="rgba(255, 0, 60, 1)" stroke-width="1.5"></path><path d="M1277.3 -70.78L1277.3 -70.78" stroke="rgba(255, 0, 60, 1)" stroke-width="1.5"></path><path d="M1277.3 -70.78L1264.96 71.13" stroke="rgba(255, 0, 60, 1)" stroke-width="1.5"></path><path d="M1277.3 -70.78L1433.46 -83.05" stroke="rgba(255, 0, 60, 1)" stroke-width="1.5"></path><path d="M1277.3 -70.78L1427.53 43.18" stroke="rgba(255, 0, 60, 1)" stroke-width="1.5"></path><path d="M1277.3 -70.78L1124.77 95.51" stroke="rgba(255, 0, 60, 1)" stroke-width="1.5"></path><path d="M1277.3 -70.78L1551.64 -48.28" stroke="rgba(255, 0, 60, 1)" stroke-width="1.5"></path><path d="M1264.96 71.13L1264.96 71.13" stroke="rgba(255, 0, 60, 1)" stroke-width="1.5"></path><path d="M1264.96 71.13L1427.53 43.18" stroke="rgba(255, 0, 60, 1)" stroke-width="1.5"></path><path d="M1264.96 71.13L1247.44 251.26" stroke="rgba(255, 0, 60, 1)" stroke-width="1.5"></path><path d="M1247.44 251.26L1247.44 251.26" stroke="rgba(255, 0, 60, 1)" stroke-width="1.5"></path><path d="M1247.44 251.26L1288.48 340.99" stroke="rgba(255, 0, 60, 1)" stroke-width="1.5"></path><path d="M1288.48 340.99L1288.48 340.99" stroke="rgba(255, 0, 60, 1)" stroke-width="1.5"></path><path d="M1288.48 340.99L1388.91 389.3" stroke="rgba(255, 0, 60, 1)" stroke-width="1.5"></path><path d="M1288.48 340.99L1414.88 257" stroke="rgba(255, 0, 60, 1)" stroke-width="1.5"></path><path d="M1252.06 559.67L1252.06 559.67" stroke="rgba(255, 0, 60, 1)" stroke-width="1.5"></path><path d="M1252.06 559.67L1309.42 696.54" stroke="rgba(255, 0, 60, 1)" stroke-width="1.5"></path><path d="M1252.06 559.67L1388.91 389.3" stroke="rgba(255, 0, 60, 1)" stroke-width="1.5"></path><path d="M1309.42 696.54L1309.42 696.54" stroke="rgba(255, 0, 60, 1)" stroke-width="1.5"></path><path d="M1309.42 696.54L1447.33 682.34" stroke="rgba(255, 0, 60, 1)" stroke-width="1.5"></path><path d="M1309.42 696.54L1410.62 805.05" stroke="rgba(255, 0, 60, 1)" stroke-width="1.5"></path><path d="M1309.42 696.54L1261.07 851.99" stroke="rgba(255, 0, 60, 1)" stroke-width="1.5"></path><path d="M1261.07 851.99L1261.07 851.99" stroke="rgba(255, 0, 60, 1)" stroke-width="1.5"></path><path d="M1261.07 851.99L1410.62 805.05" stroke="rgba(255, 0, 60, 1)" stroke-width="1.5"></path><path d="M1433.46 -83.05L1433.46 -83.05" stroke="rgba(255, 0, 60, 1)" stroke-width="1.5"></path><path d="M1433.46 -83.05L1551.64 -48.28" stroke="rgba(255, 0, 60, 1)" stroke-width="1.5"></path><path d="M1433.46 -83.05L1427.53 43.18" stroke="rgba(255, 0, 60, 1)" stroke-width="1.5"></path><path d="M1433.46 -83.05L1264.96 71.13" stroke="rgba(255, 0, 60, 1)" stroke-width="1.5"></path><path d="M1433.46 -83.05L1567.61 109.41" stroke="rgba(255, 0, 60, 1)" stroke-width="1.5"></path><path d="M1427.53 43.18L1427.53 43.18" stroke="rgba(255, 0, 60, 1)" stroke-width="1.5"></path><path d="M1427.53 43.18L1551.64 -48.28" stroke="rgba(255, 0, 60, 1)" stroke-width="1.5"></path><path d="M1414.88 257L1414.88 257" stroke="rgba(255, 0, 60, 1)" stroke-width="1.5"></path><path d="M1414.88 257L1388.91 389.3" stroke="rgba(255, 0, 60, 1)" stroke-width="1.5"></path><path d="M1388.91 389.3L1388.91 389.3" stroke="rgba(255, 0, 60, 1)" stroke-width="1.5"></path><path d="M1388.91 389.3L1541.09 411.63" stroke="rgba(255, 0, 60, 1)" stroke-width="1.5"></path><path d="M1388.91 389.3L1247.44 251.26" stroke="rgba(255, 0, 60, 1)" stroke-width="1.5"></path><path d="M1388.91 389.3L1563.03 487.88" stroke="rgba(255, 0, 60, 1)" stroke-width="1.5"></path><path d="M1447.33 682.34L1447.33 682.34" stroke="rgba(255, 0, 60, 1)" stroke-width="1.5"></path><path d="M1447.33 682.34L1410.62 805.05" stroke="rgba(255, 0, 60, 1)" stroke-width="1.5"></path><path d="M1447.33 682.34L1553.71 818.69" stroke="rgba(255, 0, 60, 1)" stroke-width="1.5"></path><path d="M1447.33 682.34L1563.03 487.88" stroke="rgba(255, 0, 60, 1)" stroke-width="1.5"></path><path d="M1447.33 682.34L1252.06 559.67" stroke="rgba(255, 0, 60, 1)" stroke-width="1.5"></path><path d="M1410.62 805.05L1410.62 805.05" stroke="rgba(255, 0, 60, 1)" stroke-width="1.5"></path><path d="M1410.62 805.05L1553.71 818.69" stroke="rgba(255, 0, 60, 1)" stroke-width="1.5"></path><path d="M1551.64 -48.28L1551.64 -48.28" stroke="rgba(255, 0, 60, 1)" stroke-width="1.5"></path><path d="M1551.64 -48.28L1567.61 109.41" stroke="rgba(255, 0, 60, 1)" stroke-width="1.5"></path><path d="M1551.64 -48.28L1568.22 238.29" stroke="rgba(255, 0, 60, 1)" stroke-width="1.5"></path><path d="M1567.61 109.41L1567.61 109.41" stroke="rgba(255, 0, 60, 1)" stroke-width="1.5"></path><path d="M1567.61 109.41L1568.22 238.29" stroke="rgba(255, 0, 60, 1)" stroke-width="1.5"></path><path d="M1567.61 109.41L1427.53 43.18" stroke="rgba(255, 0, 60, 1)" stroke-width="1.5"></path><path d="M1568.22 238.29L1568.22 238.29" stroke="rgba(255, 0, 60, 1)" stroke-width="1.5"></path><path d="M1568.22 238.29L1414.88 257" stroke="rgba(255, 0, 60, 1)" stroke-width="1.5"></path><path d="M1568.22 238.29L1541.09 411.63" stroke="rgba(255, 0, 60, 1)" stroke-width="1.5"></path><path d="M1541.09 411.63L1541.09 411.63" stroke="rgba(255, 0, 60, 1)" stroke-width="1.5"></path><path d="M1541.09 411.63L1563.03 487.88" stroke="rgba(255, 0, 60, 1)" stroke-width="1.5"></path><path d="M1563.03 487.88L1563.03 487.88" stroke="rgba(255, 0, 60, 1)" stroke-width="1.5"></path><path d="M1563.03 487.88L1568.22 238.29" stroke="rgba(255, 0, 60, 1)" stroke-width="1.5"></path><path d="M1563.03 487.88L1414.88 257" stroke="rgba(255, 0, 60, 1)" stroke-width="1.5"></path><path d="M1553.71 818.69L1553.71 818.69" stroke="rgba(255, 0, 60, 1)" stroke-width="1.5"></path><path d="M1553.71 818.69L1309.42 696.54" stroke="rgba(255, 0, 60, 1)" stroke-width="1.5"></path><path d="M1553.71 818.69L1261.07 851.99" stroke="rgba(255, 0, 60, 1)" stroke-width="1.5"></path><path d="M1553.71 818.69L1563.03 487.88" stroke="rgba(255, 0, 60, 1)" stroke-width="1.5"></path><circle r="5" cx="-45.5" cy="708.43" fill="rgba(255, 0, 60, 1)"></circle><circle r="5" cx="-67.24" cy="825.43" fill="rgba(255, 0, 60, 1)"></circle><circle r="5" cx="91.3" cy="526.74" fill="rgba(255, 0, 60, 1)"></circle><circle r="5" cx="98.54" cy="710.72" fill="rgba(255, 0, 60, 1)"></circle><circle r="5" cx="75.14" cy="801.79" fill="rgba(255, 0, 60, 1)"></circle><circle r="5" cx="224.11" cy="507.1" fill="rgba(255, 0, 60, 1)"></circle><circle r="5" cx="208.29" cy="841.47" fill="rgba(255, 0, 60, 1)"></circle><circle r="5" cx="364.07" cy="549.9" fill="rgba(255, 0, 60, 1)"></circle><circle r="5" cx="388.7" cy="688.79" fill="rgba(255, 0, 60, 1)"></circle><circle r="5" cx="402.59" cy="850.95" fill="rgba(255, 0, 60, 1)"></circle><circle r="5" cx="535.41" cy="377.72" fill="rgba(255, 0, 60, 1)"></circle><circle r="5" cx="542.62" cy="505.49" fill="rgba(255, 0, 60, 1)"></circle><circle r="5" cx="493.65" cy="694.29" fill="rgba(255, 0, 60, 1)"></circle><circle r="5" cx="557.9" cy="832.49" fill="rgba(255, 0, 60, 1)"></circle><circle r="5" cx="673.79" cy="532.21" fill="rgba(255, 0, 60, 1)"></circle><circle r="5" cx="660.08" cy="657.52" fill="rgba(255, 0, 60, 1)"></circle><circle r="5" cx="709.56" cy="827.86" fill="rgba(255, 0, 60, 1)"></circle><circle r="5" cx="820.9" cy="192.12" fill="rgba(255, 0, 60, 1)"></circle><circle r="5" cx="844.34" cy="398.78" fill="rgba(255, 0, 60, 1)"></circle><circle r="5" cx="844.06" cy="493.11" fill="rgba(255, 0, 60, 1)"></circle><circle r="5" cx="798.58" cy="691.59" fill="rgba(255, 0, 60, 1)"></circle><circle r="5" cx="801.56" cy="825.77" fill="rgba(255, 0, 60, 1)"></circle><circle r="5" cx="950.61" cy="-84.32" fill="rgba(255, 0, 60, 1)"></circle><circle r="5" cx="982.14" cy="70.04" fill="rgba(255, 0, 60, 1)"></circle><circle r="5" cx="1010.72" cy="188.54" fill="rgba(255, 0, 60, 1)"></circle><circle r="5" cx="949.14" cy="402.75" fill="rgba(255, 0, 60, 1)"></circle><circle r="5" cx="1004.98" cy="559.58" fill="rgba(255, 0, 60, 1)"></circle><circle r="5" cx="971.55" cy="705.48" fill="rgba(255, 0, 60, 1)"></circle><circle r="5" cx="1007.23" cy="794.07" fill="rgba(255, 0, 60, 1)"></circle><circle r="5" cx="1100.08" cy="-79.94" fill="rgba(255, 0, 60, 1)"></circle><circle r="5" cx="1124.77" cy="95.51" fill="rgba(255, 0, 60, 1)"></circle><circle r="5" cx="1149.15" cy="234.42" fill="rgba(255, 0, 60, 1)"></circle><circle r="5" cx="1156.79" cy="502.65" fill="rgba(255, 0, 60, 1)"></circle><circle r="5" cx="1147.91" cy="686.88" fill="rgba(255, 0, 60, 1)"></circle><circle r="5" cx="1116" cy="837.47" fill="rgba(255, 0, 60, 1)"></circle><circle r="5" cx="1277.3" cy="-70.78" fill="rgba(255, 0, 60, 1)"></circle><circle r="5" cx="1264.96" cy="71.13" fill="rgba(255, 0, 60, 1)"></circle><circle r="5" cx="1247.44" cy="251.26" fill="rgba(255, 0, 60, 1)"></circle><circle r="5" cx="1288.48" cy="340.99" fill="rgba(255, 0, 60, 1)"></circle><circle r="5" cx="1252.06" cy="559.67" fill="rgba(255, 0, 60, 1)"></circle><circle r="5" cx="1309.42" cy="696.54" fill="rgba(255, 0, 60, 1)"></circle><circle r="5" cx="1261.07" cy="851.99" fill="rgba(255, 0, 60, 1)"></circle><circle r="5" cx="1433.46" cy="-83.05" fill="rgba(255, 0, 60, 1)"></circle><circle r="5" cx="1427.53" cy="43.18" fill="rgba(255, 0, 60, 1)"></circle><circle r="5" cx="1414.88" cy="257" fill="rgba(255, 0, 60, 1)"></circle><circle r="5" cx="1388.91" cy="389.3" fill="rgba(255, 0, 60, 1)"></circle><circle r="5" cx="1447.33" cy="682.34" fill="rgba(255, 0, 60, 1)"></circle><circle r="5" cx="1410.62" cy="805.05" fill="rgba(255, 0, 60, 1)"></circle><circle r="5" cx="1551.64" cy="-48.28" fill="rgba(255, 0, 60, 1)"></circle><circle r="5" cx="1567.61" cy="109.41" fill="rgba(255, 0, 60, 1)"></circle><circle r="5" cx="1568.22" cy="238.29" fill="rgba(255, 0, 60, 1)"></circle><circle r="5" cx="1541.09" cy="411.63" fill="rgba(255, 0, 60, 1)"></circle><circle r="5" cx="1563.03" cy="487.88" fill="rgba(255, 0, 60, 1)"></circle><circle r="5" cx="1553.71" cy="818.69" fill="rgba(255, 0, 60, 1)"></circle><path d="M545.93 539.07L545.93 539.07" stroke="hsl(46.39999999999998, 100%, 65%)" stroke-width="1.5"></path><path d="M545.93 539.07L642.18 643.22" stroke="hsl(46.39999999999998, 100%, 65%)" stroke-width="1.5"></path><path d="M545.93 539.07L685.08 508.09" stroke="hsl(46.39999999999998, 100%, 65%)" stroke-width="1.5"></path><path d="M545.93 539.07L543.15 706.49" stroke="hsl(46.39999999999998, 100%, 65%)" stroke-width="1.5"></path><path d="M545.93 539.07L378.74 553.4" stroke="hsl(46.39999999999998, 100%, 65%)" stroke-width="1.5"></path><path d="M495.2 830.97L495.2 830.97" stroke="hsl(46.39999999999998, 100%, 65%)" stroke-width="1.5"></path><path d="M495.2 830.97L363.72 821.79" stroke="hsl(46.39999999999998, 100%, 65%)" stroke-width="1.5"></path><path d="M495.2 830.97L543.15 706.49" stroke="hsl(46.39999999999998, 100%, 65%)" stroke-width="1.5"></path><path d="M495.2 830.97L395.66 687.58" stroke="hsl(46.39999999999998, 100%, 65%)" stroke-width="1.5"></path><path d="M495.2 830.97L642.18 643.22" stroke="hsl(46.39999999999998, 100%, 65%)" stroke-width="1.5"></path><path d="M685.08 508.09L685.08 508.09" stroke="hsl(46.39999999999998, 100%, 65%)" stroke-width="1.5"></path><path d="M685.08 508.09L642.18 643.22" stroke="hsl(46.39999999999998, 100%, 65%)" stroke-width="1.5"></path><path d="M685.08 508.09L834.85 551.32" stroke="hsl(46.39999999999998, 100%, 65%)" stroke-width="1.5"></path><path d="M685.08 508.09L823.49 647.1" stroke="hsl(46.39999999999998, 100%, 65%)" stroke-width="1.5"></path><path d="M685.08 508.09L543.15 706.49" stroke="hsl(46.39999999999998, 100%, 65%)" stroke-width="1.5"></path><path d="M642.18 643.22L642.18 643.22" stroke="hsl(46.39999999999998, 100%, 65%)" stroke-width="1.5"></path><path d="M642.18 643.22L543.15 706.49" stroke="hsl(46.39999999999998, 100%, 65%)" stroke-width="1.5"></path><path d="M835.92 854.84L835.92 854.84" stroke="hsl(46.39999999999998, 100%, 65%)" stroke-width="1.5"></path><path d="M835.92 854.84L955.22 800.78" stroke="hsl(46.39999999999998, 100%, 65%)" stroke-width="1.5"></path><path d="M835.92 854.84L823.49 647.1" stroke="hsl(46.39999999999998, 100%, 65%)" stroke-width="1.5"></path><path d="M835.92 854.84L948.87 639.97" stroke="hsl(46.39999999999998, 100%, 65%)" stroke-width="1.5"></path><path d="M1097.18 489.7L1097.18 489.7" stroke="hsl(46.39999999999998, 100%, 65%)" stroke-width="1.5"></path><path d="M1097.18 489.7L1112.76 412.45" stroke="hsl(46.39999999999998, 100%, 65%)" stroke-width="1.5"></path><path d="M1097.18 489.7L994.86 507.09" stroke="hsl(46.39999999999998, 100%, 65%)" stroke-width="1.5"></path><path d="M1097.18 489.7L1141.01 644.25" stroke="hsl(46.39999999999998, 100%, 65%)" stroke-width="1.5"></path><path d="M1097.18 489.7L970.62 377.26" stroke="hsl(46.39999999999998, 100%, 65%)" stroke-width="1.5"></path><path d="M1097.18 489.7L948.87 639.97" stroke="hsl(46.39999999999998, 100%, 65%)" stroke-width="1.5"></path><path d="M1097.18 489.7L1292.23 401.44" stroke="hsl(46.39999999999998, 100%, 65%)" stroke-width="1.5"></path><path d="M1292.23 401.44L1292.23 401.44" stroke="hsl(46.39999999999998, 100%, 65%)" stroke-width="1.5"></path><path d="M1292.23 401.44L1441.19 407.23" stroke="hsl(46.39999999999998, 100%, 65%)" stroke-width="1.5"></path><path d="M1292.23 401.44L1112.76 412.45" stroke="hsl(46.39999999999998, 100%, 65%)" stroke-width="1.5"></path><path d="M1394.66 -43.03L1394.66 -43.03" stroke="hsl(46.39999999999998, 100%, 65%)" stroke-width="1.5"></path><path d="M1394.66 -43.03L1306.62 -45.88" stroke="hsl(46.39999999999998, 100%, 65%)" stroke-width="1.5"></path><path d="M1394.66 -43.03L1393.85 67" stroke="hsl(46.39999999999998, 100%, 65%)" stroke-width="1.5"></path><path d="M1441.19 407.23L1441.19 407.23" stroke="hsl(46.39999999999998, 100%, 65%)" stroke-width="1.5"></path><path d="M1441.19 407.23L1442.02 513.57" stroke="hsl(46.39999999999998, 100%, 65%)" stroke-width="1.5"></path><path d="M1441.19 407.23L1422.22 222.47" stroke="hsl(46.39999999999998, 100%, 65%)" stroke-width="1.5"></path><path d="M1441.19 407.23L1585.95 524.26" stroke="hsl(46.39999999999998, 100%, 65%)" stroke-width="1.5"></path><path d="M1441.19 407.23L1577.67 249.07" stroke="hsl(46.39999999999998, 100%, 65%)" stroke-width="1.5"></path><path d="M1387.9 693.19L1387.9 693.19" stroke="hsl(46.39999999999998, 100%, 65%)" stroke-width="1.5"></path><path d="M1387.9 693.19L1305.11 668.51" stroke="hsl(46.39999999999998, 100%, 65%)" stroke-width="1.5"></path><path d="M1387.9 693.19L1257.84 812.01" stroke="hsl(46.39999999999998, 100%, 65%)" stroke-width="1.5"></path><path d="M1387.9 693.19L1563.43 672.52" stroke="hsl(46.39999999999998, 100%, 65%)" stroke-width="1.5"></path><path d="M1387.9 693.19L1442.02 513.57" stroke="hsl(46.39999999999998, 100%, 65%)" stroke-width="1.5"></path><path d="M1564.3 823.83L1564.3 823.83" stroke="hsl(46.39999999999998, 100%, 65%)" stroke-width="1.5"></path><path d="M1564.3 823.83L1563.43 672.52" stroke="hsl(46.39999999999998, 100%, 65%)" stroke-width="1.5"></path><path d="M1564.3 823.83L1387.9 693.19" stroke="hsl(46.39999999999998, 100%, 65%)" stroke-width="1.5"></path><path d="M-75.92 684.23L-75.92 684.23" stroke="hsl(46.39999999999998, 100%, 65%)" stroke-width="1.5"></path><path d="M-75.92 684.23L93.05 706.48" stroke="hsl(46.39999999999998, 100%, 65%)" stroke-width="1.5"></path><path d="M-75.92 684.23L-77.74 862.13" stroke="hsl(46.39999999999998, 100%, 65%)" stroke-width="1.5"></path><path d="M-75.92 684.23L51.8 827.72" stroke="hsl(46.39999999999998, 100%, 65%)" stroke-width="1.5"></path><path d="M-77.74 862.13L-77.74 862.13" stroke="hsl(46.39999999999998, 100%, 65%)" stroke-width="1.5"></path><path d="M-77.74 862.13L51.8 827.72" stroke="hsl(46.39999999999998, 100%, 65%)" stroke-width="1.5"></path><path d="M-77.74 862.13L93.05 706.48" stroke="hsl(46.39999999999998, 100%, 65%)" stroke-width="1.5"></path><path d="M-77.74 862.13L195.91 811.76" stroke="hsl(46.39999999999998, 100%, 65%)" stroke-width="1.5"></path><path d="M-77.74 862.13L192.95 697.01" stroke="hsl(46.39999999999998, 100%, 65%)" stroke-width="1.5"></path><path d="M-77.74 862.13L363.72 821.79" stroke="hsl(46.39999999999998, 100%, 65%)" stroke-width="1.5"></path><path d="M93.05 706.48L93.05 706.48" stroke="hsl(46.39999999999998, 100%, 65%)" stroke-width="1.5"></path><path d="M93.05 706.48L192.95 697.01" stroke="hsl(46.39999999999998, 100%, 65%)" stroke-width="1.5"></path><path d="M93.05 706.48L51.8 827.72" stroke="hsl(46.39999999999998, 100%, 65%)" stroke-width="1.5"></path><path d="M93.05 706.48L195.91 811.76" stroke="hsl(46.39999999999998, 100%, 65%)" stroke-width="1.5"></path><path d="M51.8 827.72L51.8 827.72" stroke="hsl(46.39999999999998, 100%, 65%)" stroke-width="1.5"></path><path d="M254.6 556.27L254.6 556.27" stroke="hsl(46.39999999999998, 100%, 65%)" stroke-width="1.5"></path><path d="M254.6 556.27L378.74 553.4" stroke="hsl(46.39999999999998, 100%, 65%)" stroke-width="1.5"></path><path d="M254.6 556.27L192.95 697.01" stroke="hsl(46.39999999999998, 100%, 65%)" stroke-width="1.5"></path><path d="M254.6 556.27L395.66 687.58" stroke="hsl(46.39999999999998, 100%, 65%)" stroke-width="1.5"></path><path d="M254.6 556.27L93.05 706.48" stroke="hsl(46.39999999999998, 100%, 65%)" stroke-width="1.5"></path><path d="M254.6 556.27L195.91 811.76" stroke="hsl(46.39999999999998, 100%, 65%)" stroke-width="1.5"></path><path d="M254.6 556.27L363.72 821.79" stroke="hsl(46.39999999999998, 100%, 65%)" stroke-width="1.5"></path><path d="M192.95 697.01L192.95 697.01" stroke="hsl(46.39999999999998, 100%, 65%)" stroke-width="1.5"></path><path d="M192.95 697.01L195.91 811.76" stroke="hsl(46.39999999999998, 100%, 65%)" stroke-width="1.5"></path><path d="M192.95 697.01L51.8 827.72" stroke="hsl(46.39999999999998, 100%, 65%)" stroke-width="1.5"></path><path d="M192.95 697.01L395.66 687.58" stroke="hsl(46.39999999999998, 100%, 65%)" stroke-width="1.5"></path><path d="M195.91 811.76L195.91 811.76" stroke="hsl(46.39999999999998, 100%, 65%)" stroke-width="1.5"></path><path d="M195.91 811.76L51.8 827.72" stroke="hsl(46.39999999999998, 100%, 65%)" stroke-width="1.5"></path><path d="M195.91 811.76L363.72 821.79" stroke="hsl(46.39999999999998, 100%, 65%)" stroke-width="1.5"></path><path d="M378.74 553.4L378.74 553.4" stroke="hsl(46.39999999999998, 100%, 65%)" stroke-width="1.5"></path><path d="M378.74 553.4L395.66 687.58" stroke="hsl(46.39999999999998, 100%, 65%)" stroke-width="1.5"></path><path d="M378.74 553.4L543.15 706.49" stroke="hsl(46.39999999999998, 100%, 65%)" stroke-width="1.5"></path><path d="M378.74 553.4L192.95 697.01" stroke="hsl(46.39999999999998, 100%, 65%)" stroke-width="1.5"></path><path d="M395.66 687.58L395.66 687.58" stroke="hsl(46.39999999999998, 100%, 65%)" stroke-width="1.5"></path><path d="M395.66 687.58L363.72 821.79" stroke="hsl(46.39999999999998, 100%, 65%)" stroke-width="1.5"></path><path d="M395.66 687.58L543.15 706.49" stroke="hsl(46.39999999999998, 100%, 65%)" stroke-width="1.5"></path><path d="M363.72 821.79L363.72 821.79" stroke="hsl(46.39999999999998, 100%, 65%)" stroke-width="1.5"></path><path d="M543.15 706.49L543.15 706.49" stroke="hsl(46.39999999999998, 100%, 65%)" stroke-width="1.5"></path><path d="M543.15 706.49L363.72 821.79" stroke="hsl(46.39999999999998, 100%, 65%)" stroke-width="1.5"></path><path d="M834.85 551.32L834.85 551.32" stroke="hsl(46.39999999999998, 100%, 65%)" stroke-width="1.5"></path><path d="M834.85 551.32L823.49 647.1" stroke="hsl(46.39999999999998, 100%, 65%)" stroke-width="1.5"></path><path d="M834.85 551.32L948.87 639.97" stroke="hsl(46.39999999999998, 100%, 65%)" stroke-width="1.5"></path><path d="M823.49 647.1L823.49 647.1" stroke="hsl(46.39999999999998, 100%, 65%)" stroke-width="1.5"></path><path d="M823.49 647.1L948.87 639.97" stroke="hsl(46.39999999999998, 100%, 65%)" stroke-width="1.5"></path><path d="M823.49 647.1L642.18 643.22" stroke="hsl(46.39999999999998, 100%, 65%)" stroke-width="1.5"></path><path d="M823.49 647.1L955.22 800.78" stroke="hsl(46.39999999999998, 100%, 65%)" stroke-width="1.5"></path><path d="M970.62 377.26L970.62 377.26" stroke="hsl(46.39999999999998, 100%, 65%)" stroke-width="1.5"></path><path d="M970.62 377.26L994.86 507.09" stroke="hsl(46.39999999999998, 100%, 65%)" stroke-width="1.5"></path><path d="M970.62 377.26L1112.76 412.45" stroke="hsl(46.39999999999998, 100%, 65%)" stroke-width="1.5"></path><path d="M970.62 377.26L834.85 551.32" stroke="hsl(46.39999999999998, 100%, 65%)" stroke-width="1.5"></path><path d="M970.62 377.26L948.87 639.97" stroke="hsl(46.39999999999998, 100%, 65%)" stroke-width="1.5"></path><path d="M994.86 507.09L994.86 507.09" stroke="hsl(46.39999999999998, 100%, 65%)" stroke-width="1.5"></path><path d="M948.87 639.97L948.87 639.97" stroke="hsl(46.39999999999998, 100%, 65%)" stroke-width="1.5"></path><path d="M948.87 639.97L994.86 507.09" stroke="hsl(46.39999999999998, 100%, 65%)" stroke-width="1.5"></path><path d="M948.87 639.97L955.22 800.78" stroke="hsl(46.39999999999998, 100%, 65%)" stroke-width="1.5"></path><path d="M948.87 639.97L1141.01 644.25" stroke="hsl(46.39999999999998, 100%, 65%)" stroke-width="1.5"></path><path d="M955.22 800.78L955.22 800.78" stroke="hsl(46.39999999999998, 100%, 65%)" stroke-width="1.5"></path><path d="M1112.76 412.45L1112.76 412.45" stroke="hsl(46.39999999999998, 100%, 65%)" stroke-width="1.5"></path><path d="M1112.76 412.45L994.86 507.09" stroke="hsl(46.39999999999998, 100%, 65%)" stroke-width="1.5"></path><path d="M1141.01 644.25L1141.01 644.25" stroke="hsl(46.39999999999998, 100%, 65%)" stroke-width="1.5"></path><path d="M1141.01 644.25L1305.11 668.51" stroke="hsl(46.39999999999998, 100%, 65%)" stroke-width="1.5"></path><path d="M1144.54 838.14L1144.54 838.14" stroke="hsl(46.39999999999998, 100%, 65%)" stroke-width="1.5"></path><path d="M1144.54 838.14L1257.84 812.01" stroke="hsl(46.39999999999998, 100%, 65%)" stroke-width="1.5"></path><path d="M1144.54 838.14L955.22 800.78" stroke="hsl(46.39999999999998, 100%, 65%)" stroke-width="1.5"></path><path d="M1144.54 838.14L1141.01 644.25" stroke="hsl(46.39999999999998, 100%, 65%)" stroke-width="1.5"></path><path d="M1144.54 838.14L1305.11 668.51" stroke="hsl(46.39999999999998, 100%, 65%)" stroke-width="1.5"></path><path d="M1306.62 -45.88L1306.62 -45.88" stroke="hsl(46.39999999999998, 100%, 65%)" stroke-width="1.5"></path><path d="M1306.62 -45.88L1249.69 66.87" stroke="hsl(46.39999999999998, 100%, 65%)" stroke-width="1.5"></path><path d="M1249.69 66.87L1249.69 66.87" stroke="hsl(46.39999999999998, 100%, 65%)" stroke-width="1.5"></path><path d="M1249.69 66.87L1393.85 67" stroke="hsl(46.39999999999998, 100%, 65%)" stroke-width="1.5"></path><path d="M1303.95 213.25L1303.95 213.25" stroke="hsl(46.39999999999998, 100%, 65%)" stroke-width="1.5"></path><path d="M1303.95 213.25L1422.22 222.47" stroke="hsl(46.39999999999998, 100%, 65%)" stroke-width="1.5"></path><path d="M1303.95 213.25L1249.69 66.87" stroke="hsl(46.39999999999998, 100%, 65%)" stroke-width="1.5"></path><path d="M1305.11 668.51L1305.11 668.51" stroke="hsl(46.39999999999998, 100%, 65%)" stroke-width="1.5"></path><path d="M1305.11 668.51L1257.84 812.01" stroke="hsl(46.39999999999998, 100%, 65%)" stroke-width="1.5"></path><path d="M1305.11 668.51L1442.02 513.57" stroke="hsl(46.39999999999998, 100%, 65%)" stroke-width="1.5"></path><path d="M1257.84 812.01L1257.84 812.01" stroke="hsl(46.39999999999998, 100%, 65%)" stroke-width="1.5"></path><path d="M1393.85 67L1393.85 67" stroke="hsl(46.39999999999998, 100%, 65%)" stroke-width="1.5"></path><path d="M1393.85 67L1306.62 -45.88" stroke="hsl(46.39999999999998, 100%, 65%)" stroke-width="1.5"></path><path d="M1422.22 222.47L1422.22 222.47" stroke="hsl(46.39999999999998, 100%, 65%)" stroke-width="1.5"></path><path d="M1422.22 222.47L1577.67 249.07" stroke="hsl(46.39999999999998, 100%, 65%)" stroke-width="1.5"></path><path d="M1442.02 513.57L1442.02 513.57" stroke="hsl(46.39999999999998, 100%, 65%)" stroke-width="1.5"></path><path d="M1442.02 513.57L1585.95 524.26" stroke="hsl(46.39999999999998, 100%, 65%)" stroke-width="1.5"></path><path d="M1442.02 513.57L1292.23 401.44" stroke="hsl(46.39999999999998, 100%, 65%)" stroke-width="1.5"></path><path d="M1597.84 -64.39L1597.84 -64.39" stroke="hsl(46.39999999999998, 100%, 65%)" stroke-width="1.5"></path><path d="M1597.84 -64.39L1591.14 91.45" stroke="hsl(46.39999999999998, 100%, 65%)" stroke-width="1.5"></path><path d="M1597.84 -64.39L1394.66 -43.03" stroke="hsl(46.39999999999998, 100%, 65%)" stroke-width="1.5"></path><path d="M1597.84 -64.39L1393.85 67" stroke="hsl(46.39999999999998, 100%, 65%)" stroke-width="1.5"></path><path d="M1597.84 -64.39L1306.62 -45.88" stroke="hsl(46.39999999999998, 100%, 65%)" stroke-width="1.5"></path><path d="M1597.84 -64.39L1577.67 249.07" stroke="hsl(46.39999999999998, 100%, 65%)" stroke-width="1.5"></path><path d="M1591.14 91.45L1591.14 91.45" stroke="hsl(46.39999999999998, 100%, 65%)" stroke-width="1.5"></path><path d="M1591.14 91.45L1577.67 249.07" stroke="hsl(46.39999999999998, 100%, 65%)" stroke-width="1.5"></path><path d="M1577.67 249.07L1577.67 249.07" stroke="hsl(46.39999999999998, 100%, 65%)" stroke-width="1.5"></path><path d="M1577.67 249.07L1393.85 67" stroke="hsl(46.39999999999998, 100%, 65%)" stroke-width="1.5"></path><path d="M1577.67 249.07L1585.95 524.26" stroke="hsl(46.39999999999998, 100%, 65%)" stroke-width="1.5"></path><path d="M1577.67 249.07L1303.95 213.25" stroke="hsl(46.39999999999998, 100%, 65%)" stroke-width="1.5"></path><path d="M1585.95 524.26L1585.95 524.26" stroke="hsl(46.39999999999998, 100%, 65%)" stroke-width="1.5"></path><path d="M1585.95 524.26L1563.43 672.52" stroke="hsl(46.39999999999998, 100%, 65%)" stroke-width="1.5"></path><path d="M1563.43 672.52L1563.43 672.52" stroke="hsl(46.39999999999998, 100%, 65%)" stroke-width="1.5"></path><path d="M1563.43 672.52L1442.02 513.57" stroke="hsl(46.39999999999998, 100%, 65%)" stroke-width="1.5"></path><path d="M1563.43 672.52L1305.11 668.51" stroke="hsl(46.39999999999998, 100%, 65%)" stroke-width="1.5"></path><path d="M1563.43 672.52L1441.19 407.23" stroke="hsl(46.39999999999998, 100%, 65%)" stroke-width="1.5"></path><circle r="25" cx="545.93" cy="539.07" fill="url(#SvgjsRadialGradient1043)"></circle><circle r="25" cx="495.2" cy="830.97" fill="url(#SvgjsRadialGradient1043)"></circle><circle r="25" cx="685.08" cy="508.09" fill="url(#SvgjsRadialGradient1043)"></circle><circle r="25" cx="642.18" cy="643.22" fill="url(#SvgjsRadialGradient1043)"></circle><circle r="25" cx="835.92" cy="854.84" fill="url(#SvgjsRadialGradient1043)"></circle><circle r="25" cx="1097.18" cy="489.7" fill="url(#SvgjsRadialGradient1043)"></circle><circle r="25" cx="1292.23" cy="401.44" fill="url(#SvgjsRadialGradient1043)"></circle><circle r="25" cx="1394.66" cy="-43.03" fill="url(#SvgjsRadialGradient1043)"></circle><circle r="25" cx="1441.19" cy="407.23" fill="url(#SvgjsRadialGradient1043)"></circle><circle r="25" cx="1387.9" cy="693.19" fill="url(#SvgjsRadialGradient1043)"></circle><circle r="25" cx="1564.3" cy="823.83" fill="url(#SvgjsRadialGradient1043)"></circle><circle r="5" cx="-75.92" cy="684.23" fill="#ffe280"></circle><circle r="5" cx="-77.74" cy="862.13" fill="#ffe280"></circle><circle r="5" cx="93.05" cy="706.48" fill="#ffe280"></circle><circle r="5" cx="51.8" cy="827.72" fill="#ffe280"></circle><circle r="5" cx="254.6" cy="556.27" fill="#ffe280"></circle><circle r="5" cx="192.95" cy="697.01" fill="#ffe280"></circle><circle r="5" cx="195.91" cy="811.76" fill="#ffe280"></circle><circle r="5" cx="378.74" cy="553.4" fill="#ffe280"></circle><circle r="5" cx="395.66" cy="687.58" fill="#ffe280"></circle><circle r="5" cx="363.72" cy="821.79" fill="#ffe280"></circle><circle r="5" cx="543.15" cy="706.49" fill="#ffe280"></circle><circle r="5" cx="834.85" cy="551.32" fill="#ffe280"></circle><circle r="5" cx="823.49" cy="647.1" fill="#ffe280"></circle><circle r="5" cx="970.62" cy="377.26" fill="#ffe280"></circle><circle r="5" cx="994.86" cy="507.09" fill="#ffe280"></circle><circle r="5" cx="948.87" cy="639.97" fill="#ffe280"></circle><circle r="5" cx="955.22" cy="800.78" fill="#ffe280"></circle><circle r="5" cx="1112.76" cy="412.45" fill="#ffe280"></circle><circle r="5" cx="1141.01" cy="644.25" fill="#ffe280"></circle><circle r="5" cx="1144.54" cy="838.14" fill="#ffe280"></circle><circle r="5" cx="1306.62" cy="-45.88" fill="#ffe280"></circle><circle r="5" cx="1249.69" cy="66.87" fill="#ffe280"></circle><circle r="5" cx="1303.95" cy="213.25" fill="#ffe280"></circle><circle r="5" cx="1305.11" cy="668.51" fill="#ffe280"></circle><circle r="5" cx="1257.84" cy="812.01" fill="#ffe280"></circle><circle r="5" cx="1393.85" cy="67" fill="#ffe280"></circle><circle r="5" cx="1422.22" cy="222.47" fill="#ffe280"></circle><circle r="5" cx="1442.02" cy="513.57" fill="#ffe280"></circle><circle r="5" cx="1597.84" cy="-64.39" fill="#ffe280"></circle><circle r="5" cx="1591.14" cy="91.45" fill="#ffe280"></circle><circle r="5" cx="1577.67" cy="249.07" fill="#ffe280"></circle><circle r="5" cx="1585.95" cy="524.26" fill="#ffe280"></circle><circle r="5" cx="1563.43" cy="672.52" fill="#ffe280"></circle></g><defs><mask id="SvgjsMask1042"><rect width="1440" height="700" fill="#ffffff"></rect></mask><radialGradient id="SvgjsRadialGradient1043"><stop stop-color="#ffffff" offset="0.1"></stop><stop stop-color="rgba(255, 197, 0, 1)" offset="0.2"></stop><stop stop-color="rgba(255, 197, 0, 0)" offset="1"></stop></radialGradient></defs></svg>