<svg xmlns="http://www.w3.org/2000/svg" version="1.1" xmlns:xlink="http://www.w3.org/1999/xlink" xmlns:svgjs="http://svgjs.com/svgjs" width="1440" height="560" preserveAspectRatio="none" viewBox="0 0 1440 560"><g mask="url(&quot;#SvgjsMask1022&quot;)" fill="none"><path d="M-69.44 385.8L-69.44 385.8" stroke="rgba(255, 0, 60, 1)" stroke-width="1.5"></path><path d="M-69.44 385.8L-95.81 525.11" stroke="rgba(255, 0, 60, 1)" stroke-width="1.5"></path><path d="M-69.44 385.8L100.94 346.28" stroke="rgba(255, 0, 60, 1)" stroke-width="1.5"></path><path d="M-69.44 385.8L90.46 515.47" stroke="rgba(255, 0, 60, 1)" stroke-width="1.5"></path><path d="M-69.44 385.8L-94.75 665.91" stroke="rgba(255, 0, 60, 1)" stroke-width="1.5"></path><path d="M-69.44 385.8L94.35 673.55" stroke="rgba(255, 0, 60, 1)" stroke-width="1.5"></path><path d="M-95.81 525.11L-95.81 525.11" stroke="rgba(255, 0, 60, 1)" stroke-width="1.5"></path><path d="M-95.81 525.11L-94.75 665.91" stroke="rgba(255, 0, 60, 1)" stroke-width="1.5"></path><path d="M-94.75 665.91L-94.75 665.91" stroke="rgba(255, 0, 60, 1)" stroke-width="1.5"></path><path d="M-94.75 665.91L94.35 673.55" stroke="rgba(255, 0, 60, 1)" stroke-width="1.5"></path><path d="M-94.75 665.91L90.46 515.47" stroke="rgba(255, 0, 60, 1)" stroke-width="1.5"></path><path d="M-94.75 665.91L195.36 675.99" stroke="rgba(255, 0, 60, 1)" stroke-width="1.5"></path><path d="M-94.75 665.91L100.94 346.28" stroke="rgba(255, 0, 60, 1)" stroke-width="1.5"></path><path d="M100.94 346.28L100.94 346.28" stroke="rgba(255, 0, 60, 1)" stroke-width="1.5"></path><path d="M100.94 346.28L90.46 515.47" stroke="rgba(255, 0, 60, 1)" stroke-width="1.5"></path><path d="M100.94 346.28L257.75 518.66" stroke="rgba(255, 0, 60, 1)" stroke-width="1.5"></path><path d="M100.94 346.28L-95.81 525.11" stroke="rgba(255, 0, 60, 1)" stroke-width="1.5"></path><path d="M90.46 515.47L90.46 515.47" stroke="rgba(255, 0, 60, 1)" stroke-width="1.5"></path><path d="M90.46 515.47L94.35 673.55" stroke="rgba(255, 0, 60, 1)" stroke-width="1.5"></path><path d="M90.46 515.47L257.75 518.66" stroke="rgba(255, 0, 60, 1)" stroke-width="1.5"></path><path d="M94.35 673.55L94.35 673.55" stroke="rgba(255, 0, 60, 1)" stroke-width="1.5"></path><path d="M94.35 673.55L195.36 675.99" stroke="rgba(255, 0, 60, 1)" stroke-width="1.5"></path><path d="M94.35 673.55L257.75 518.66" stroke="rgba(255, 0, 60, 1)" stroke-width="1.5"></path><path d="M257.75 518.66L257.75 518.66" stroke="rgba(255, 0, 60, 1)" stroke-width="1.5"></path><path d="M257.75 518.66L349.27 522.09" stroke="rgba(255, 0, 60, 1)" stroke-width="1.5"></path><path d="M257.75 518.66L195.36 675.99" stroke="rgba(255, 0, 60, 1)" stroke-width="1.5"></path><path d="M195.36 675.99L195.36 675.99" stroke="rgba(255, 0, 60, 1)" stroke-width="1.5"></path><path d="M195.36 675.99L90.46 515.47" stroke="rgba(255, 0, 60, 1)" stroke-width="1.5"></path><path d="M195.36 675.99L349.27 522.09" stroke="rgba(255, 0, 60, 1)" stroke-width="1.5"></path><path d="M404.6 385.21L404.6 385.21" stroke="rgba(255, 0, 60, 1)" stroke-width="1.5"></path><path d="M404.6 385.21L496.82 375.6" stroke="rgba(255, 0, 60, 1)" stroke-width="1.5"></path><path d="M404.6 385.21L349.27 522.09" stroke="rgba(255, 0, 60, 1)" stroke-width="1.5"></path><path d="M404.6 385.21L520.63 527.61" stroke="rgba(255, 0, 60, 1)" stroke-width="1.5"></path><path d="M349.27 522.09L349.27 522.09" stroke="rgba(255, 0, 60, 1)" stroke-width="1.5"></path><path d="M349.27 522.09L520.63 527.61" stroke="rgba(255, 0, 60, 1)" stroke-width="1.5"></path><path d="M349.27 522.09L489.52 647.97" stroke="rgba(255, 0, 60, 1)" stroke-width="1.5"></path><path d="M496.82 375.6L496.82 375.6" stroke="rgba(255, 0, 60, 1)" stroke-width="1.5"></path><path d="M496.82 375.6L520.63 527.61" stroke="rgba(255, 0, 60, 1)" stroke-width="1.5"></path><path d="M496.82 375.6L664.82 345.32" stroke="rgba(255, 0, 60, 1)" stroke-width="1.5"></path><path d="M496.82 375.6L349.27 522.09" stroke="rgba(255, 0, 60, 1)" stroke-width="1.5"></path><path d="M496.82 375.6L650.84 552.47" stroke="rgba(255, 0, 60, 1)" stroke-width="1.5"></path><path d="M496.82 375.6L700.98 250.49" stroke="rgba(255, 0, 60, 1)" stroke-width="1.5"></path><path d="M520.63 527.61L520.63 527.61" stroke="rgba(255, 0, 60, 1)" stroke-width="1.5"></path><path d="M520.63 527.61L489.52 647.97" stroke="rgba(255, 0, 60, 1)" stroke-width="1.5"></path><path d="M520.63 527.61L650.84 552.47" stroke="rgba(255, 0, 60, 1)" stroke-width="1.5"></path><path d="M520.63 527.61L664.82 345.32" stroke="rgba(255, 0, 60, 1)" stroke-width="1.5"></path><path d="M489.52 647.97L489.52 647.97" stroke="rgba(255, 0, 60, 1)" stroke-width="1.5"></path><path d="M489.52 647.97L650.84 552.47" stroke="rgba(255, 0, 60, 1)" stroke-width="1.5"></path><path d="M700.98 250.49L700.98 250.49" stroke="rgba(255, 0, 60, 1)" stroke-width="1.5"></path><path d="M700.98 250.49L664.82 345.32" stroke="rgba(255, 0, 60, 1)" stroke-width="1.5"></path><path d="M700.98 250.49L857.85 398.15" stroke="rgba(255, 0, 60, 1)" stroke-width="1.5"></path><path d="M700.98 250.49L963.35 249.91" stroke="rgba(255, 0, 60, 1)" stroke-width="1.5"></path><path d="M700.98 250.49L808.75 504.89" stroke="rgba(255, 0, 60, 1)" stroke-width="1.5"></path><path d="M700.98 250.49L962.52 406.86" stroke="rgba(255, 0, 60, 1)" stroke-width="1.5"></path><path d="M664.82 345.32L664.82 345.32" stroke="rgba(255, 0, 60, 1)" stroke-width="1.5"></path><path d="M650.84 552.47L650.84 552.47" stroke="rgba(255, 0, 60, 1)" stroke-width="1.5"></path><path d="M650.84 552.47L684.71 710.1" stroke="rgba(255, 0, 60, 1)" stroke-width="1.5"></path><path d="M650.84 552.47L808.75 504.89" stroke="rgba(255, 0, 60, 1)" stroke-width="1.5"></path><path d="M650.84 552.47L664.82 345.32" stroke="rgba(255, 0, 60, 1)" stroke-width="1.5"></path><path d="M684.71 710.1L684.71 710.1" stroke="rgba(255, 0, 60, 1)" stroke-width="1.5"></path><path d="M684.71 710.1L859.73 669.96" stroke="rgba(255, 0, 60, 1)" stroke-width="1.5"></path><path d="M684.71 710.1L489.52 647.97" stroke="rgba(255, 0, 60, 1)" stroke-width="1.5"></path><path d="M684.71 710.1L808.75 504.89" stroke="rgba(255, 0, 60, 1)" stroke-width="1.5"></path><path d="M684.71 710.1L520.63 527.61" stroke="rgba(255, 0, 60, 1)" stroke-width="1.5"></path><path d="M684.71 710.1L970.69 644.02" stroke="rgba(255, 0, 60, 1)" stroke-width="1.5"></path><path d="M857.85 398.15L857.85 398.15" stroke="rgba(255, 0, 60, 1)" stroke-width="1.5"></path><path d="M857.85 398.15L962.52 406.86" stroke="rgba(255, 0, 60, 1)" stroke-width="1.5"></path><path d="M857.85 398.15L808.75 504.89" stroke="rgba(255, 0, 60, 1)" stroke-width="1.5"></path><path d="M857.85 398.15L962.03 487.77" stroke="rgba(255, 0, 60, 1)" stroke-width="1.5"></path><path d="M857.85 398.15L963.35 249.91" stroke="rgba(255, 0, 60, 1)" stroke-width="1.5"></path><path d="M857.85 398.15L664.82 345.32" stroke="rgba(255, 0, 60, 1)" stroke-width="1.5"></path><path d="M808.75 504.89L808.75 504.89" stroke="rgba(255, 0, 60, 1)" stroke-width="1.5"></path><path d="M808.75 504.89L962.03 487.77" stroke="rgba(255, 0, 60, 1)" stroke-width="1.5"></path><path d="M808.75 504.89L859.73 669.96" stroke="rgba(255, 0, 60, 1)" stroke-width="1.5"></path><path d="M808.75 504.89L962.52 406.86" stroke="rgba(255, 0, 60, 1)" stroke-width="1.5"></path><path d="M808.75 504.89L970.69 644.02" stroke="rgba(255, 0, 60, 1)" stroke-width="1.5"></path><path d="M859.73 669.96L859.73 669.96" stroke="rgba(255, 0, 60, 1)" stroke-width="1.5"></path><path d="M859.73 669.96L970.69 644.02" stroke="rgba(255, 0, 60, 1)" stroke-width="1.5"></path><path d="M859.73 669.96L962.03 487.77" stroke="rgba(255, 0, 60, 1)" stroke-width="1.5"></path><path d="M859.73 669.96L650.84 552.47" stroke="rgba(255, 0, 60, 1)" stroke-width="1.5"></path><path d="M973.08 -108.7L973.08 -108.7" stroke="rgba(255, 0, 60, 1)" stroke-width="1.5"></path><path d="M973.08 -108.7L1088.4 -98.2" stroke="rgba(255, 0, 60, 1)" stroke-width="1.5"></path><path d="M973.08 -108.7L1004.25 85.62" stroke="rgba(255, 0, 60, 1)" stroke-width="1.5"></path><path d="M1004.25 85.62L1004.25 85.62" stroke="rgba(255, 0, 60, 1)" stroke-width="1.5"></path><path d="M1004.25 85.62L1110.68 91.53" stroke="rgba(255, 0, 60, 1)" stroke-width="1.5"></path><path d="M1004.25 85.62L963.35 249.91" stroke="rgba(255, 0, 60, 1)" stroke-width="1.5"></path><path d="M1004.25 85.62L1088.4 -98.2" stroke="rgba(255, 0, 60, 1)" stroke-width="1.5"></path><path d="M1004.25 85.62L1150.97 243.54" stroke="rgba(255, 0, 60, 1)" stroke-width="1.5"></path><path d="M963.35 249.91L963.35 249.91" stroke="rgba(255, 0, 60, 1)" stroke-width="1.5"></path><path d="M963.35 249.91L962.52 406.86" stroke="rgba(255, 0, 60, 1)" stroke-width="1.5"></path><path d="M962.52 406.86L962.52 406.86" stroke="rgba(255, 0, 60, 1)" stroke-width="1.5"></path><path d="M962.52 406.86L962.03 487.77" stroke="rgba(255, 0, 60, 1)" stroke-width="1.5"></path><path d="M962.03 487.77L962.03 487.77" stroke="rgba(255, 0, 60, 1)" stroke-width="1.5"></path><path d="M962.03 487.77L970.69 644.02" stroke="rgba(255, 0, 60, 1)" stroke-width="1.5"></path><path d="M970.69 644.02L970.69 644.02" stroke="rgba(255, 0, 60, 1)" stroke-width="1.5"></path><path d="M1088.4 -98.2L1088.4 -98.2" stroke="rgba(255, 0, 60, 1)" stroke-width="1.5"></path><path d="M1088.4 -98.2L1110.68 91.53" stroke="rgba(255, 0, 60, 1)" stroke-width="1.5"></path><path d="M1088.4 -98.2L1311.58 -94.53" stroke="rgba(255, 0, 60, 1)" stroke-width="1.5"></path><path d="M1088.4 -98.2L1271.5 62.34" stroke="rgba(255, 0, 60, 1)" stroke-width="1.5"></path><path d="M1088.4 -98.2L1150.97 243.54" stroke="rgba(255, 0, 60, 1)" stroke-width="1.5"></path><path d="M1110.68 91.53L1110.68 91.53" stroke="rgba(255, 0, 60, 1)" stroke-width="1.5"></path><path d="M1150.97 243.54L1150.97 243.54" stroke="rgba(255, 0, 60, 1)" stroke-width="1.5"></path><path d="M1150.97 243.54L1161.35 373.4" stroke="rgba(255, 0, 60, 1)" stroke-width="1.5"></path><path d="M1150.97 243.54L1299.83 255.04" stroke="rgba(255, 0, 60, 1)" stroke-width="1.5"></path><path d="M1150.97 243.54L1110.68 91.53" stroke="rgba(255, 0, 60, 1)" stroke-width="1.5"></path><path d="M1150.97 243.54L1281.91 347.57" stroke="rgba(255, 0, 60, 1)" stroke-width="1.5"></path><path d="M1150.97 243.54L963.35 249.91" stroke="rgba(255, 0, 60, 1)" stroke-width="1.5"></path><path d="M1161.35 373.4L1161.35 373.4" stroke="rgba(255, 0, 60, 1)" stroke-width="1.5"></path><path d="M1161.35 373.4L1281.91 347.57" stroke="rgba(255, 0, 60, 1)" stroke-width="1.5"></path><path d="M1161.35 373.4L1140.84 552.2" stroke="rgba(255, 0, 60, 1)" stroke-width="1.5"></path><path d="M1140.84 552.2L1140.84 552.2" stroke="rgba(255, 0, 60, 1)" stroke-width="1.5"></path><path d="M1140.84 552.2L1138.28 673.59" stroke="rgba(255, 0, 60, 1)" stroke-width="1.5"></path><path d="M1140.84 552.2L1290.15 529.77" stroke="rgba(255, 0, 60, 1)" stroke-width="1.5"></path><path d="M1140.84 552.2L962.03 487.77" stroke="rgba(255, 0, 60, 1)" stroke-width="1.5"></path><path d="M1140.84 552.2L970.69 644.02" stroke="rgba(255, 0, 60, 1)" stroke-width="1.5"></path><path d="M1138.28 673.59L1138.28 673.59" stroke="rgba(255, 0, 60, 1)" stroke-width="1.5"></path><path d="M1138.28 673.59L970.69 644.02" stroke="rgba(255, 0, 60, 1)" stroke-width="1.5"></path><path d="M1138.28 673.59L1309.01 670.8" stroke="rgba(255, 0, 60, 1)" stroke-width="1.5"></path><path d="M1138.28 673.59L1290.15 529.77" stroke="rgba(255, 0, 60, 1)" stroke-width="1.5"></path><path d="M1311.58 -94.53L1311.58 -94.53" stroke="rgba(255, 0, 60, 1)" stroke-width="1.5"></path><path d="M1311.58 -94.53L1271.5 62.34" stroke="rgba(255, 0, 60, 1)" stroke-width="1.5"></path><path d="M1311.58 -94.53L1428.06 47.27" stroke="rgba(255, 0, 60, 1)" stroke-width="1.5"></path><path d="M1271.5 62.34L1271.5 62.34" stroke="rgba(255, 0, 60, 1)" stroke-width="1.5"></path><path d="M1271.5 62.34L1428.06 47.27" stroke="rgba(255, 0, 60, 1)" stroke-width="1.5"></path><path d="M1299.83 255.04L1299.83 255.04" stroke="rgba(255, 0, 60, 1)" stroke-width="1.5"></path><path d="M1299.83 255.04L1281.91 347.57" stroke="rgba(255, 0, 60, 1)" stroke-width="1.5"></path><path d="M1299.83 255.04L1410.69 193.41" stroke="rgba(255, 0, 60, 1)" stroke-width="1.5"></path><path d="M1299.83 255.04L1161.35 373.4" stroke="rgba(255, 0, 60, 1)" stroke-width="1.5"></path><path d="M1281.91 347.57L1281.91 347.57" stroke="rgba(255, 0, 60, 1)" stroke-width="1.5"></path><path d="M1290.15 529.77L1290.15 529.77" stroke="rgba(255, 0, 60, 1)" stroke-width="1.5"></path><path d="M1290.15 529.77L1395.33 512.34" stroke="rgba(255, 0, 60, 1)" stroke-width="1.5"></path><path d="M1290.15 529.77L1309.01 670.8" stroke="rgba(255, 0, 60, 1)" stroke-width="1.5"></path><path d="M1309.01 670.8L1309.01 670.8" stroke="rgba(255, 0, 60, 1)" stroke-width="1.5"></path><path d="M1309.01 670.8L1451.96 684.15" stroke="rgba(255, 0, 60, 1)" stroke-width="1.5"></path><path d="M1428.06 47.27L1428.06 47.27" stroke="rgba(255, 0, 60, 1)" stroke-width="1.5"></path><path d="M1428.06 47.27L1542.05 -45.41" stroke="rgba(255, 0, 60, 1)" stroke-width="1.5"></path><path d="M1428.06 47.27L1410.69 193.41" stroke="rgba(255, 0, 60, 1)" stroke-width="1.5"></path><path d="M1428.06 47.27L1599.77 53.46" stroke="rgba(255, 0, 60, 1)" stroke-width="1.5"></path><path d="M1410.69 193.41L1410.69 193.41" stroke="rgba(255, 0, 60, 1)" stroke-width="1.5"></path><path d="M1410.69 193.41L1569.78 225.92" stroke="rgba(255, 0, 60, 1)" stroke-width="1.5"></path><path d="M1410.69 193.41L1271.5 62.34" stroke="rgba(255, 0, 60, 1)" stroke-width="1.5"></path><path d="M1410.69 193.41L1281.91 347.57" stroke="rgba(255, 0, 60, 1)" stroke-width="1.5"></path><path d="M1410.69 193.41L1599.77 53.46" stroke="rgba(255, 0, 60, 1)" stroke-width="1.5"></path><path d="M1395.33 512.34L1395.33 512.34" stroke="rgba(255, 0, 60, 1)" stroke-width="1.5"></path><path d="M1395.33 512.34L1547.31 511.51" stroke="rgba(255, 0, 60, 1)" stroke-width="1.5"></path><path d="M1395.33 512.34L1309.01 670.8" stroke="rgba(255, 0, 60, 1)" stroke-width="1.5"></path><path d="M1395.33 512.34L1451.96 684.15" stroke="rgba(255, 0, 60, 1)" stroke-width="1.5"></path><path d="M1395.33 512.34L1281.91 347.57" stroke="rgba(255, 0, 60, 1)" stroke-width="1.5"></path><path d="M1451.96 684.15L1451.96 684.15" stroke="rgba(255, 0, 60, 1)" stroke-width="1.5"></path><path d="M1451.96 684.15L1547.31 511.51" stroke="rgba(255, 0, 60, 1)" stroke-width="1.5"></path><path d="M1451.96 684.15L1290.15 529.77" stroke="rgba(255, 0, 60, 1)" stroke-width="1.5"></path><path d="M1451.96 684.15L1138.28 673.59" stroke="rgba(255, 0, 60, 1)" stroke-width="1.5"></path><path d="M1451.96 684.15L1140.84 552.2" stroke="rgba(255, 0, 60, 1)" stroke-width="1.5"></path><path d="M1542.05 -45.41L1542.05 -45.41" stroke="rgba(255, 0, 60, 1)" stroke-width="1.5"></path><path d="M1542.05 -45.41L1599.77 53.46" stroke="rgba(255, 0, 60, 1)" stroke-width="1.5"></path><path d="M1599.77 53.46L1599.77 53.46" stroke="rgba(255, 0, 60, 1)" stroke-width="1.5"></path><path d="M1599.77 53.46L1569.78 225.92" stroke="rgba(255, 0, 60, 1)" stroke-width="1.5"></path><path d="M1569.78 225.92L1569.78 225.92" stroke="rgba(255, 0, 60, 1)" stroke-width="1.5"></path><path d="M1569.78 225.92L1601.24 360.4" stroke="rgba(255, 0, 60, 1)" stroke-width="1.5"></path><path d="M1569.78 225.92L1428.06 47.27" stroke="rgba(255, 0, 60, 1)" stroke-width="1.5"></path><path d="M1569.78 225.92L1299.83 255.04" stroke="rgba(255, 0, 60, 1)" stroke-width="1.5"></path><path d="M1601.24 360.4L1601.24 360.4" stroke="rgba(255, 0, 60, 1)" stroke-width="1.5"></path><path d="M1601.24 360.4L1547.31 511.51" stroke="rgba(255, 0, 60, 1)" stroke-width="1.5"></path><path d="M1601.24 360.4L1410.69 193.41" stroke="rgba(255, 0, 60, 1)" stroke-width="1.5"></path><path d="M1601.24 360.4L1395.33 512.34" stroke="rgba(255, 0, 60, 1)" stroke-width="1.5"></path><path d="M1601.24 360.4L1599.77 53.46" stroke="rgba(255, 0, 60, 1)" stroke-width="1.5"></path><path d="M1547.31 511.51L1547.31 511.51" stroke="rgba(255, 0, 60, 1)" stroke-width="1.5"></path><circle r="5" cx="-69.44" cy="385.8" fill="rgba(255, 0, 60, 1)"></circle><circle r="5" cx="-95.81" cy="525.11" fill="rgba(255, 0, 60, 1)"></circle><circle r="5" cx="-94.75" cy="665.91" fill="rgba(255, 0, 60, 1)"></circle><circle r="5" cx="100.94" cy="346.28" fill="rgba(255, 0, 60, 1)"></circle><circle r="5" cx="90.46" cy="515.47" fill="rgba(255, 0, 60, 1)"></circle><circle r="5" cx="94.35" cy="673.55" fill="rgba(255, 0, 60, 1)"></circle><circle r="5" cx="257.75" cy="518.66" fill="rgba(255, 0, 60, 1)"></circle><circle r="5" cx="195.36" cy="675.99" fill="rgba(255, 0, 60, 1)"></circle><circle r="5" cx="404.6" cy="385.21" fill="rgba(255, 0, 60, 1)"></circle><circle r="5" cx="349.27" cy="522.09" fill="rgba(255, 0, 60, 1)"></circle><circle r="5" cx="496.82" cy="375.6" fill="rgba(255, 0, 60, 1)"></circle><circle r="5" cx="520.63" cy="527.61" fill="rgba(255, 0, 60, 1)"></circle><circle r="5" cx="489.52" cy="647.97" fill="rgba(255, 0, 60, 1)"></circle><circle r="5" cx="700.98" cy="250.49" fill="rgba(255, 0, 60, 1)"></circle><circle r="5" cx="664.82" cy="345.32" fill="rgba(255, 0, 60, 1)"></circle><circle r="5" cx="650.84" cy="552.47" fill="rgba(255, 0, 60, 1)"></circle><circle r="5" cx="684.71" cy="710.1" fill="rgba(255, 0, 60, 1)"></circle><circle r="5" cx="857.85" cy="398.15" fill="rgba(255, 0, 60, 1)"></circle><circle r="5" cx="808.75" cy="504.89" fill="rgba(255, 0, 60, 1)"></circle><circle r="5" cx="859.73" cy="669.96" fill="rgba(255, 0, 60, 1)"></circle><circle r="5" cx="973.08" cy="-108.7" fill="rgba(255, 0, 60, 1)"></circle><circle r="5" cx="1004.25" cy="85.62" fill="rgba(255, 0, 60, 1)"></circle><circle r="5" cx="963.35" cy="249.91" fill="rgba(255, 0, 60, 1)"></circle><circle r="5" cx="962.52" cy="406.86" fill="rgba(255, 0, 60, 1)"></circle><circle r="5" cx="962.03" cy="487.77" fill="rgba(255, 0, 60, 1)"></circle><circle r="5" cx="970.69" cy="644.02" fill="rgba(255, 0, 60, 1)"></circle><circle r="5" cx="1088.4" cy="-98.2" fill="rgba(255, 0, 60, 1)"></circle><circle r="5" cx="1110.68" cy="91.53" fill="rgba(255, 0, 60, 1)"></circle><circle r="5" cx="1150.97" cy="243.54" fill="rgba(255, 0, 60, 1)"></circle><circle r="5" cx="1161.35" cy="373.4" fill="rgba(255, 0, 60, 1)"></circle><circle r="5" cx="1140.84" cy="552.2" fill="rgba(255, 0, 60, 1)"></circle><circle r="5" cx="1138.28" cy="673.59" fill="rgba(255, 0, 60, 1)"></circle><circle r="5" cx="1311.58" cy="-94.53" fill="rgba(255, 0, 60, 1)"></circle><circle r="5" cx="1271.5" cy="62.34" fill="rgba(255, 0, 60, 1)"></circle><circle r="5" cx="1299.83" cy="255.04" fill="rgba(255, 0, 60, 1)"></circle><circle r="5" cx="1281.91" cy="347.57" fill="rgba(255, 0, 60, 1)"></circle><circle r="5" cx="1290.15" cy="529.77" fill="rgba(255, 0, 60, 1)"></circle><circle r="5" cx="1309.01" cy="670.8" fill="rgba(255, 0, 60, 1)"></circle><circle r="5" cx="1428.06" cy="47.27" fill="rgba(255, 0, 60, 1)"></circle><circle r="5" cx="1410.69" cy="193.41" fill="rgba(255, 0, 60, 1)"></circle><circle r="5" cx="1395.33" cy="512.34" fill="rgba(255, 0, 60, 1)"></circle><circle r="5" cx="1451.96" cy="684.15" fill="rgba(255, 0, 60, 1)"></circle><circle r="5" cx="1542.05" cy="-45.41" fill="rgba(255, 0, 60, 1)"></circle><circle r="5" cx="1599.77" cy="53.46" fill="rgba(255, 0, 60, 1)"></circle><circle r="5" cx="1569.78" cy="225.92" fill="rgba(255, 0, 60, 1)"></circle><circle r="5" cx="1601.24" cy="360.4" fill="rgba(255, 0, 60, 1)"></circle><circle r="5" cx="1547.31" cy="511.51" fill="rgba(255, 0, 60, 1)"></circle><path d="M-62.11 533.98L-62.11 533.98" stroke="hsl(46.39999999999998, 100%, 65%)" stroke-width="1.5"></path><path d="M-62.11 533.98L-56 646.05" stroke="hsl(46.39999999999998, 100%, 65%)" stroke-width="1.5"></path><path d="M-62.11 533.98L91.47 555.08" stroke="hsl(46.39999999999998, 100%, 65%)" stroke-width="1.5"></path><path d="M-62.11 533.98L246.77 511.9" stroke="hsl(46.39999999999998, 100%, 65%)" stroke-width="1.5"></path><path d="M-62.11 533.98L220.64 675.72" stroke="hsl(46.39999999999998, 100%, 65%)" stroke-width="1.5"></path><path d="M-62.11 533.98L369.38 685.47" stroke="hsl(46.39999999999998, 100%, 65%)" stroke-width="1.5"></path><path d="M246.77 511.9L246.77 511.9" stroke="hsl(46.39999999999998, 100%, 65%)" stroke-width="1.5"></path><path d="M246.77 511.9L91.47 555.08" stroke="hsl(46.39999999999998, 100%, 65%)" stroke-width="1.5"></path><path d="M246.77 511.9L406.2 546.89" stroke="hsl(46.39999999999998, 100%, 65%)" stroke-width="1.5"></path><path d="M246.77 511.9L220.64 675.72" stroke="hsl(46.39999999999998, 100%, 65%)" stroke-width="1.5"></path><path d="M246.77 511.9L369.38 685.47" stroke="hsl(46.39999999999998, 100%, 65%)" stroke-width="1.5"></path><path d="M246.77 511.9L531.96 554.28" stroke="hsl(46.39999999999998, 100%, 65%)" stroke-width="1.5"></path><path d="M853.52 667.01L853.52 667.01" stroke="hsl(46.39999999999998, 100%, 65%)" stroke-width="1.5"></path><path d="M853.52 667.01L1011.42 707.07" stroke="hsl(46.39999999999998, 100%, 65%)" stroke-width="1.5"></path><path d="M853.52 667.01L861.34 501.27" stroke="hsl(46.39999999999998, 100%, 65%)" stroke-width="1.5"></path><path d="M853.52 667.01L666.02 638.27" stroke="hsl(46.39999999999998, 100%, 65%)" stroke-width="1.5"></path><path d="M1155.88 229.54L1155.88 229.54" stroke="hsl(46.39999999999998, 100%, 65%)" stroke-width="1.5"></path><path d="M1155.88 229.54L1295.4 246.18" stroke="hsl(46.39999999999998, 100%, 65%)" stroke-width="1.5"></path><path d="M1155.88 229.54L1102.81 407.86" stroke="hsl(46.39999999999998, 100%, 65%)" stroke-width="1.5"></path><path d="M1155.88 229.54L1305.04 411.42" stroke="hsl(46.39999999999998, 100%, 65%)" stroke-width="1.5"></path><path d="M1155.88 229.54L949.36 349.45" stroke="hsl(46.39999999999998, 100%, 65%)" stroke-width="1.5"></path><path d="M1102.81 407.86L1102.81 407.86" stroke="hsl(46.39999999999998, 100%, 65%)" stroke-width="1.5"></path><path d="M1102.81 407.86L1094.04 490.11" stroke="hsl(46.39999999999998, 100%, 65%)" stroke-width="1.5"></path><path d="M1102.81 407.86L968.94 497.81" stroke="hsl(46.39999999999998, 100%, 65%)" stroke-width="1.5"></path><path d="M1102.81 407.86L949.36 349.45" stroke="hsl(46.39999999999998, 100%, 65%)" stroke-width="1.5"></path><path d="M1102.81 407.86L1305.04 411.42" stroke="hsl(46.39999999999998, 100%, 65%)" stroke-width="1.5"></path><path d="M1312.1 553.92L1312.1 553.92" stroke="hsl(46.39999999999998, 100%, 65%)" stroke-width="1.5"></path><path d="M1312.1 553.92L1388.53 494.68" stroke="hsl(46.39999999999998, 100%, 65%)" stroke-width="1.5"></path><path d="M1312.1 553.92L1267.34 642.86" stroke="hsl(46.39999999999998, 100%, 65%)" stroke-width="1.5"></path><path d="M1312.1 553.92L1305.04 411.42" stroke="hsl(46.39999999999998, 100%, 65%)" stroke-width="1.5"></path><path d="M1312.1 553.92L1449.4 408.37" stroke="hsl(46.39999999999998, 100%, 65%)" stroke-width="1.5"></path><path d="M1312.1 553.92L1459.52 703.08" stroke="hsl(46.39999999999998, 100%, 65%)" stroke-width="1.5"></path><path d="M1459.52 703.08L1459.52 703.08" stroke="hsl(46.39999999999998, 100%, 65%)" stroke-width="1.5"></path><path d="M1459.52 703.08L1586.89 686.55" stroke="hsl(46.39999999999998, 100%, 65%)" stroke-width="1.5"></path><path d="M1459.52 703.08L1267.34 642.86" stroke="hsl(46.39999999999998, 100%, 65%)" stroke-width="1.5"></path><path d="M1459.52 703.08L1388.53 494.68" stroke="hsl(46.39999999999998, 100%, 65%)" stroke-width="1.5"></path><path d="M1459.52 703.08L1575.9 505.17" stroke="hsl(46.39999999999998, 100%, 65%)" stroke-width="1.5"></path><path d="M1459.52 703.08L1449.4 408.37" stroke="hsl(46.39999999999998, 100%, 65%)" stroke-width="1.5"></path><path d="M-56 646.05L-56 646.05" stroke="hsl(46.39999999999998, 100%, 65%)" stroke-width="1.5"></path><path d="M-56 646.05L91.47 555.08" stroke="hsl(46.39999999999998, 100%, 65%)" stroke-width="1.5"></path><path d="M91.47 555.08L91.47 555.08" stroke="hsl(46.39999999999998, 100%, 65%)" stroke-width="1.5"></path><path d="M91.47 555.08L220.64 675.72" stroke="hsl(46.39999999999998, 100%, 65%)" stroke-width="1.5"></path><path d="M220.64 675.72L220.64 675.72" stroke="hsl(46.39999999999998, 100%, 65%)" stroke-width="1.5"></path><path d="M220.64 675.72L369.38 685.47" stroke="hsl(46.39999999999998, 100%, 65%)" stroke-width="1.5"></path><path d="M220.64 675.72L406.2 546.89" stroke="hsl(46.39999999999998, 100%, 65%)" stroke-width="1.5"></path><path d="M220.64 675.72L-56 646.05" stroke="hsl(46.39999999999998, 100%, 65%)" stroke-width="1.5"></path><path d="M220.64 675.72L518.99 706.15" stroke="hsl(46.39999999999998, 100%, 65%)" stroke-width="1.5"></path><path d="M406.2 546.89L406.2 546.89" stroke="hsl(46.39999999999998, 100%, 65%)" stroke-width="1.5"></path><path d="M406.2 546.89L531.96 554.28" stroke="hsl(46.39999999999998, 100%, 65%)" stroke-width="1.5"></path><path d="M406.2 546.89L369.38 685.47" stroke="hsl(46.39999999999998, 100%, 65%)" stroke-width="1.5"></path><path d="M369.38 685.47L369.38 685.47" stroke="hsl(46.39999999999998, 100%, 65%)" stroke-width="1.5"></path><path d="M531.96 554.28L531.96 554.28" stroke="hsl(46.39999999999998, 100%, 65%)" stroke-width="1.5"></path><path d="M531.96 554.28L639.51 516.58" stroke="hsl(46.39999999999998, 100%, 65%)" stroke-width="1.5"></path><path d="M518.99 706.15L518.99 706.15" stroke="hsl(46.39999999999998, 100%, 65%)" stroke-width="1.5"></path><path d="M518.99 706.15L369.38 685.47" stroke="hsl(46.39999999999998, 100%, 65%)" stroke-width="1.5"></path><path d="M518.99 706.15L531.96 554.28" stroke="hsl(46.39999999999998, 100%, 65%)" stroke-width="1.5"></path><path d="M518.99 706.15L666.02 638.27" stroke="hsl(46.39999999999998, 100%, 65%)" stroke-width="1.5"></path><path d="M518.99 706.15L406.2 546.89" stroke="hsl(46.39999999999998, 100%, 65%)" stroke-width="1.5"></path><path d="M518.99 706.15L639.51 516.58" stroke="hsl(46.39999999999998, 100%, 65%)" stroke-width="1.5"></path><path d="M639.51 516.58L639.51 516.58" stroke="hsl(46.39999999999998, 100%, 65%)" stroke-width="1.5"></path><path d="M639.51 516.58L666.02 638.27" stroke="hsl(46.39999999999998, 100%, 65%)" stroke-width="1.5"></path><path d="M666.02 638.27L666.02 638.27" stroke="hsl(46.39999999999998, 100%, 65%)" stroke-width="1.5"></path><path d="M666.02 638.27L531.96 554.28" stroke="hsl(46.39999999999998, 100%, 65%)" stroke-width="1.5"></path><path d="M796.67 370.69L796.67 370.69" stroke="hsl(46.39999999999998, 100%, 65%)" stroke-width="1.5"></path><path d="M796.67 370.69L861.34 501.27" stroke="hsl(46.39999999999998, 100%, 65%)" stroke-width="1.5"></path><path d="M796.67 370.69L949.36 349.45" stroke="hsl(46.39999999999998, 100%, 65%)" stroke-width="1.5"></path><path d="M796.67 370.69L968.94 497.81" stroke="hsl(46.39999999999998, 100%, 65%)" stroke-width="1.5"></path><path d="M796.67 370.69L639.51 516.58" stroke="hsl(46.39999999999998, 100%, 65%)" stroke-width="1.5"></path><path d="M796.67 370.69L666.02 638.27" stroke="hsl(46.39999999999998, 100%, 65%)" stroke-width="1.5"></path><path d="M861.34 501.27L861.34 501.27" stroke="hsl(46.39999999999998, 100%, 65%)" stroke-width="1.5"></path><path d="M861.34 501.27L968.94 497.81" stroke="hsl(46.39999999999998, 100%, 65%)" stroke-width="1.5"></path><path d="M861.34 501.27L949.36 349.45" stroke="hsl(46.39999999999998, 100%, 65%)" stroke-width="1.5"></path><path d="M861.34 501.27L639.51 516.58" stroke="hsl(46.39999999999998, 100%, 65%)" stroke-width="1.5"></path><path d="M861.34 501.27L1094.04 490.11" stroke="hsl(46.39999999999998, 100%, 65%)" stroke-width="1.5"></path><path d="M949.36 349.45L949.36 349.45" stroke="hsl(46.39999999999998, 100%, 65%)" stroke-width="1.5"></path><path d="M949.36 349.45L968.94 497.81" stroke="hsl(46.39999999999998, 100%, 65%)" stroke-width="1.5"></path><path d="M968.94 497.81L968.94 497.81" stroke="hsl(46.39999999999998, 100%, 65%)" stroke-width="1.5"></path><path d="M968.94 497.81L1094.04 490.11" stroke="hsl(46.39999999999998, 100%, 65%)" stroke-width="1.5"></path><path d="M1011.42 707.07L1011.42 707.07" stroke="hsl(46.39999999999998, 100%, 65%)" stroke-width="1.5"></path><path d="M1011.42 707.07L1113.27 669.02" stroke="hsl(46.39999999999998, 100%, 65%)" stroke-width="1.5"></path><path d="M1011.42 707.07L968.94 497.81" stroke="hsl(46.39999999999998, 100%, 65%)" stroke-width="1.5"></path><path d="M1011.42 707.07L1094.04 490.11" stroke="hsl(46.39999999999998, 100%, 65%)" stroke-width="1.5"></path><path d="M1011.42 707.07L861.34 501.27" stroke="hsl(46.39999999999998, 100%, 65%)" stroke-width="1.5"></path><path d="M1094.04 490.11L1094.04 490.11" stroke="hsl(46.39999999999998, 100%, 65%)" stroke-width="1.5"></path><path d="M1094.04 490.11L1113.27 669.02" stroke="hsl(46.39999999999998, 100%, 65%)" stroke-width="1.5"></path><path d="M1094.04 490.11L949.36 349.45" stroke="hsl(46.39999999999998, 100%, 65%)" stroke-width="1.5"></path><path d="M1094.04 490.11L1305.04 411.42" stroke="hsl(46.39999999999998, 100%, 65%)" stroke-width="1.5"></path><path d="M1094.04 490.11L1312.1 553.92" stroke="hsl(46.39999999999998, 100%, 65%)" stroke-width="1.5"></path><path d="M1113.27 669.02L1113.27 669.02" stroke="hsl(46.39999999999998, 100%, 65%)" stroke-width="1.5"></path><path d="M1113.27 669.02L1267.34 642.86" stroke="hsl(46.39999999999998, 100%, 65%)" stroke-width="1.5"></path><path d="M1257.68 -99.52L1257.68 -99.52" stroke="hsl(46.39999999999998, 100%, 65%)" stroke-width="1.5"></path><path d="M1257.68 -99.52L1452.24 -104.49" stroke="hsl(46.39999999999998, 100%, 65%)" stroke-width="1.5"></path><path d="M1257.68 -99.52L1413.45 107.84" stroke="hsl(46.39999999999998, 100%, 65%)" stroke-width="1.5"></path><path d="M1257.68 -99.52L1597.01 -91.31" stroke="hsl(46.39999999999998, 100%, 65%)" stroke-width="1.5"></path><path d="M1295.4 246.18L1295.4 246.18" stroke="hsl(46.39999999999998, 100%, 65%)" stroke-width="1.5"></path><path d="M1295.4 246.18L1394.71 231.45" stroke="hsl(46.39999999999998, 100%, 65%)" stroke-width="1.5"></path><path d="M1295.4 246.18L1305.04 411.42" stroke="hsl(46.39999999999998, 100%, 65%)" stroke-width="1.5"></path><path d="M1305.04 411.42L1305.04 411.42" stroke="hsl(46.39999999999998, 100%, 65%)" stroke-width="1.5"></path><path d="M1305.04 411.42L1388.53 494.68" stroke="hsl(46.39999999999998, 100%, 65%)" stroke-width="1.5"></path><path d="M1267.34 642.86L1267.34 642.86" stroke="hsl(46.39999999999998, 100%, 65%)" stroke-width="1.5"></path><path d="M1452.24 -104.49L1452.24 -104.49" stroke="hsl(46.39999999999998, 100%, 65%)" stroke-width="1.5"></path><path d="M1452.24 -104.49L1597.01 -91.31" stroke="hsl(46.39999999999998, 100%, 65%)" stroke-width="1.5"></path><path d="M1452.24 -104.49L1575.47 45.66" stroke="hsl(46.39999999999998, 100%, 65%)" stroke-width="1.5"></path><path d="M1452.24 -104.49L1413.45 107.84" stroke="hsl(46.39999999999998, 100%, 65%)" stroke-width="1.5"></path><path d="M1452.24 -104.49L1539.16 213.71" stroke="hsl(46.39999999999998, 100%, 65%)" stroke-width="1.5"></path><path d="M1413.45 107.84L1413.45 107.84" stroke="hsl(46.39999999999998, 100%, 65%)" stroke-width="1.5"></path><path d="M1413.45 107.84L1394.71 231.45" stroke="hsl(46.39999999999998, 100%, 65%)" stroke-width="1.5"></path><path d="M1413.45 107.84L1539.16 213.71" stroke="hsl(46.39999999999998, 100%, 65%)" stroke-width="1.5"></path><path d="M1413.45 107.84L1575.47 45.66" stroke="hsl(46.39999999999998, 100%, 65%)" stroke-width="1.5"></path><path d="M1413.45 107.84L1295.4 246.18" stroke="hsl(46.39999999999998, 100%, 65%)" stroke-width="1.5"></path><path d="M1394.71 231.45L1394.71 231.45" stroke="hsl(46.39999999999998, 100%, 65%)" stroke-width="1.5"></path><path d="M1394.71 231.45L1539.16 213.71" stroke="hsl(46.39999999999998, 100%, 65%)" stroke-width="1.5"></path><path d="M1394.71 231.45L1449.4 408.37" stroke="hsl(46.39999999999998, 100%, 65%)" stroke-width="1.5"></path><path d="M1394.71 231.45L1305.04 411.42" stroke="hsl(46.39999999999998, 100%, 65%)" stroke-width="1.5"></path><path d="M1394.71 231.45L1580.36 376.59" stroke="hsl(46.39999999999998, 100%, 65%)" stroke-width="1.5"></path><path d="M1449.4 408.37L1449.4 408.37" stroke="hsl(46.39999999999998, 100%, 65%)" stroke-width="1.5"></path><path d="M1449.4 408.37L1388.53 494.68" stroke="hsl(46.39999999999998, 100%, 65%)" stroke-width="1.5"></path><path d="M1449.4 408.37L1580.36 376.59" stroke="hsl(46.39999999999998, 100%, 65%)" stroke-width="1.5"></path><path d="M1449.4 408.37L1305.04 411.42" stroke="hsl(46.39999999999998, 100%, 65%)" stroke-width="1.5"></path><path d="M1449.4 408.37L1575.9 505.17" stroke="hsl(46.39999999999998, 100%, 65%)" stroke-width="1.5"></path><path d="M1388.53 494.68L1388.53 494.68" stroke="hsl(46.39999999999998, 100%, 65%)" stroke-width="1.5"></path><path d="M1597.01 -91.31L1597.01 -91.31" stroke="hsl(46.39999999999998, 100%, 65%)" stroke-width="1.5"></path><path d="M1597.01 -91.31L1575.47 45.66" stroke="hsl(46.39999999999998, 100%, 65%)" stroke-width="1.5"></path><path d="M1597.01 -91.31L1413.45 107.84" stroke="hsl(46.39999999999998, 100%, 65%)" stroke-width="1.5"></path><path d="M1597.01 -91.31L1539.16 213.71" stroke="hsl(46.39999999999998, 100%, 65%)" stroke-width="1.5"></path><path d="M1575.47 45.66L1575.47 45.66" stroke="hsl(46.39999999999998, 100%, 65%)" stroke-width="1.5"></path><path d="M1575.47 45.66L1539.16 213.71" stroke="hsl(46.39999999999998, 100%, 65%)" stroke-width="1.5"></path><path d="M1539.16 213.71L1539.16 213.71" stroke="hsl(46.39999999999998, 100%, 65%)" stroke-width="1.5"></path><path d="M1539.16 213.71L1580.36 376.59" stroke="hsl(46.39999999999998, 100%, 65%)" stroke-width="1.5"></path><path d="M1539.16 213.71L1449.4 408.37" stroke="hsl(46.39999999999998, 100%, 65%)" stroke-width="1.5"></path><path d="M1580.36 376.59L1580.36 376.59" stroke="hsl(46.39999999999998, 100%, 65%)" stroke-width="1.5"></path><path d="M1580.36 376.59L1575.9 505.17" stroke="hsl(46.39999999999998, 100%, 65%)" stroke-width="1.5"></path><path d="M1575.9 505.17L1575.9 505.17" stroke="hsl(46.39999999999998, 100%, 65%)" stroke-width="1.5"></path><path d="M1586.89 686.55L1586.89 686.55" stroke="hsl(46.39999999999998, 100%, 65%)" stroke-width="1.5"></path><path d="M1586.89 686.55L1575.9 505.17" stroke="hsl(46.39999999999998, 100%, 65%)" stroke-width="1.5"></path><path d="M1586.89 686.55L1388.53 494.68" stroke="hsl(46.39999999999998, 100%, 65%)" stroke-width="1.5"></path><circle r="25" cx="-62.11" cy="533.98" fill="url(#SvgjsRadialGradient1023)"></circle><circle r="25" cx="246.77" cy="511.9" fill="url(#SvgjsRadialGradient1023)"></circle><circle r="25" cx="853.52" cy="667.01" fill="url(#SvgjsRadialGradient1023)"></circle><circle r="25" cx="1155.88" cy="229.54" fill="url(#SvgjsRadialGradient1023)"></circle><circle r="25" cx="1102.81" cy="407.86" fill="url(#SvgjsRadialGradient1023)"></circle><circle r="25" cx="1312.1" cy="553.92" fill="url(#SvgjsRadialGradient1023)"></circle><circle r="25" cx="1459.52" cy="703.08" fill="url(#SvgjsRadialGradient1023)"></circle><circle r="5" cx="-56" cy="646.05" fill="#ffe280"></circle><circle r="5" cx="91.47" cy="555.08" fill="#ffe280"></circle><circle r="5" cx="220.64" cy="675.72" fill="#ffe280"></circle><circle r="5" cx="406.2" cy="546.89" fill="#ffe280"></circle><circle r="5" cx="369.38" cy="685.47" fill="#ffe280"></circle><circle r="5" cx="531.96" cy="554.28" fill="#ffe280"></circle><circle r="5" cx="518.99" cy="706.15" fill="#ffe280"></circle><circle r="5" cx="639.51" cy="516.58" fill="#ffe280"></circle><circle r="5" cx="666.02" cy="638.27" fill="#ffe280"></circle><circle r="5" cx="796.67" cy="370.69" fill="#ffe280"></circle><circle r="5" cx="861.34" cy="501.27" fill="#ffe280"></circle><circle r="5" cx="949.36" cy="349.45" fill="#ffe280"></circle><circle r="5" cx="968.94" cy="497.81" fill="#ffe280"></circle><circle r="5" cx="1011.42" cy="707.07" fill="#ffe280"></circle><circle r="5" cx="1094.04" cy="490.11" fill="#ffe280"></circle><circle r="5" cx="1113.27" cy="669.02" fill="#ffe280"></circle><circle r="5" cx="1257.68" cy="-99.52" fill="#ffe280"></circle><circle r="5" cx="1295.4" cy="246.18" fill="#ffe280"></circle><circle r="5" cx="1305.04" cy="411.42" fill="#ffe280"></circle><circle r="5" cx="1267.34" cy="642.86" fill="#ffe280"></circle><circle r="5" cx="1452.24" cy="-104.49" fill="#ffe280"></circle><circle r="5" cx="1413.45" cy="107.84" fill="#ffe280"></circle><circle r="5" cx="1394.71" cy="231.45" fill="#ffe280"></circle><circle r="5" cx="1449.4" cy="408.37" fill="#ffe280"></circle><circle r="5" cx="1388.53" cy="494.68" fill="#ffe280"></circle><circle r="5" cx="1597.01" cy="-91.31" fill="#ffe280"></circle><circle r="5" cx="1575.47" cy="45.66" fill="#ffe280"></circle><circle r="5" cx="1539.16" cy="213.71" fill="#ffe280"></circle><circle r="5" cx="1580.36" cy="376.59" fill="#ffe280"></circle><circle r="5" cx="1575.9" cy="505.17" fill="#ffe280"></circle><circle r="5" cx="1586.89" cy="686.55" fill="#ffe280"></circle></g><defs><mask id="SvgjsMask1022"><rect width="1440" height="560" fill="#ffffff"></rect></mask><radialGradient id="SvgjsRadialGradient1023"><stop stop-color="#ffffff" offset="0.1"></stop><stop stop-color="rgba(255, 197, 0, 1)" offset="0.2"></stop><stop stop-color="rgba(255, 197, 0, 0)" offset="1"></stop></radialGradient></defs></svg>