<svg xmlns="http://www.w3.org/2000/svg" version="1.1" xmlns:xlink="http://www.w3.org/1999/xlink" xmlns:svgjs="http://svgjs.com/svgjs" width="1440" height="560" preserveAspectRatio="none" viewBox="0 0 1440 560"><g mask="url(&quot;#SvgjsMask1018&quot;)" fill="none"><path d="M-59.51 401.43L-59.51 401.43" stroke="rgba(255, 0, 60, 1)" stroke-width="1.5"></path><path d="M-59.51 401.43L-85.31 517.32" stroke="rgba(255, 0, 60, 1)" stroke-width="1.5"></path><path d="M-59.51 401.43L96.37 362.79" stroke="rgba(255, 0, 60, 1)" stroke-width="1.5"></path><path d="M-59.51 401.43L73.36 507.11" stroke="rgba(255, 0, 60, 1)" stroke-width="1.5"></path><path d="M-85.31 517.32L-85.31 517.32" stroke="rgba(255, 0, 60, 1)" stroke-width="1.5"></path><path d="M-85.31 517.32L73.36 507.11" stroke="rgba(255, 0, 60, 1)" stroke-width="1.5"></path><path d="M-85.31 517.32L68.91 650.98" stroke="rgba(255, 0, 60, 1)" stroke-width="1.5"></path><path d="M-85.31 517.32L96.37 362.79" stroke="rgba(255, 0, 60, 1)" stroke-width="1.5"></path><path d="M96.37 362.79L96.37 362.79" stroke="rgba(255, 0, 60, 1)" stroke-width="1.5"></path><path d="M96.37 362.79L229.97 356.85" stroke="rgba(255, 0, 60, 1)" stroke-width="1.5"></path><path d="M96.37 362.79L73.36 507.11" stroke="rgba(255, 0, 60, 1)" stroke-width="1.5"></path><path d="M73.36 507.11L73.36 507.11" stroke="rgba(255, 0, 60, 1)" stroke-width="1.5"></path><path d="M73.36 507.11L211.56 494.22" stroke="rgba(255, 0, 60, 1)" stroke-width="1.5"></path><path d="M73.36 507.11L68.91 650.98" stroke="rgba(255, 0, 60, 1)" stroke-width="1.5"></path><path d="M68.91 650.98L68.91 650.98" stroke="rgba(255, 0, 60, 1)" stroke-width="1.5"></path><path d="M68.91 650.98L198.43 675.98" stroke="rgba(255, 0, 60, 1)" stroke-width="1.5"></path><path d="M68.91 650.98L211.56 494.22" stroke="rgba(255, 0, 60, 1)" stroke-width="1.5"></path><path d="M68.91 650.98L-59.51 401.43" stroke="rgba(255, 0, 60, 1)" stroke-width="1.5"></path><path d="M68.91 650.98L96.37 362.79" stroke="rgba(255, 0, 60, 1)" stroke-width="1.5"></path><path d="M229.97 356.85L229.97 356.85" stroke="rgba(255, 0, 60, 1)" stroke-width="1.5"></path><path d="M229.97 356.85L360.92 367.56" stroke="rgba(255, 0, 60, 1)" stroke-width="1.5"></path><path d="M229.97 356.85L211.56 494.22" stroke="rgba(255, 0, 60, 1)" stroke-width="1.5"></path><path d="M229.97 356.85L73.36 507.11" stroke="rgba(255, 0, 60, 1)" stroke-width="1.5"></path><path d="M211.56 494.22L211.56 494.22" stroke="rgba(255, 0, 60, 1)" stroke-width="1.5"></path><path d="M211.56 494.22L96.37 362.79" stroke="rgba(255, 0, 60, 1)" stroke-width="1.5"></path><path d="M211.56 494.22L198.43 675.98" stroke="rgba(255, 0, 60, 1)" stroke-width="1.5"></path><path d="M198.43 675.98L198.43 675.98" stroke="rgba(255, 0, 60, 1)" stroke-width="1.5"></path><path d="M198.43 675.98L73.36 507.11" stroke="rgba(255, 0, 60, 1)" stroke-width="1.5"></path><path d="M198.43 675.98L411.11 638.01" stroke="rgba(255, 0, 60, 1)" stroke-width="1.5"></path><path d="M360.92 367.56L360.92 367.56" stroke="rgba(255, 0, 60, 1)" stroke-width="1.5"></path><path d="M360.92 367.56L496.81 374.93" stroke="rgba(255, 0, 60, 1)" stroke-width="1.5"></path><path d="M360.92 367.56L389.47 559.44" stroke="rgba(255, 0, 60, 1)" stroke-width="1.5"></path><path d="M389.47 559.44L389.47 559.44" stroke="rgba(255, 0, 60, 1)" stroke-width="1.5"></path><path d="M389.47 559.44L411.11 638.01" stroke="rgba(255, 0, 60, 1)" stroke-width="1.5"></path><path d="M389.47 559.44L489.04 688.67" stroke="rgba(255, 0, 60, 1)" stroke-width="1.5"></path><path d="M389.47 559.44L211.56 494.22" stroke="rgba(255, 0, 60, 1)" stroke-width="1.5"></path><path d="M411.11 638.01L411.11 638.01" stroke="rgba(255, 0, 60, 1)" stroke-width="1.5"></path><path d="M411.11 638.01L489.04 688.67" stroke="rgba(255, 0, 60, 1)" stroke-width="1.5"></path><path d="M411.11 638.01L211.56 494.22" stroke="rgba(255, 0, 60, 1)" stroke-width="1.5"></path><path d="M411.11 638.01L659.82 670.9" stroke="rgba(255, 0, 60, 1)" stroke-width="1.5"></path><path d="M555.38 261.53L555.38 261.53" stroke="rgba(255, 0, 60, 1)" stroke-width="1.5"></path><path d="M555.38 261.53L496.81 374.93" stroke="rgba(255, 0, 60, 1)" stroke-width="1.5"></path><path d="M555.38 261.53L658.87 360" stroke="rgba(255, 0, 60, 1)" stroke-width="1.5"></path><path d="M496.81 374.93L496.81 374.93" stroke="rgba(255, 0, 60, 1)" stroke-width="1.5"></path><path d="M496.81 374.93L658.87 360" stroke="rgba(255, 0, 60, 1)" stroke-width="1.5"></path><path d="M496.81 374.93L389.47 559.44" stroke="rgba(255, 0, 60, 1)" stroke-width="1.5"></path><path d="M496.81 374.93L229.97 356.85" stroke="rgba(255, 0, 60, 1)" stroke-width="1.5"></path><path d="M489.04 688.67L489.04 688.67" stroke="rgba(255, 0, 60, 1)" stroke-width="1.5"></path><path d="M658.87 360L658.87 360" stroke="rgba(255, 0, 60, 1)" stroke-width="1.5"></path><path d="M658.87 360L818.97 388.05" stroke="rgba(255, 0, 60, 1)" stroke-width="1.5"></path><path d="M659.82 670.9L659.82 670.9" stroke="rgba(255, 0, 60, 1)" stroke-width="1.5"></path><path d="M659.82 670.9L797.4 679.08" stroke="rgba(255, 0, 60, 1)" stroke-width="1.5"></path><path d="M659.82 670.9L489.04 688.67" stroke="rgba(255, 0, 60, 1)" stroke-width="1.5"></path><path d="M659.82 670.9L803.59 547.36" stroke="rgba(255, 0, 60, 1)" stroke-width="1.5"></path><path d="M789.1 218.71L789.1 218.71" stroke="rgba(255, 0, 60, 1)" stroke-width="1.5"></path><path d="M789.1 218.71L818.97 388.05" stroke="rgba(255, 0, 60, 1)" stroke-width="1.5"></path><path d="M789.1 218.71L658.87 360" stroke="rgba(255, 0, 60, 1)" stroke-width="1.5"></path><path d="M789.1 218.71L953.65 106.28" stroke="rgba(255, 0, 60, 1)" stroke-width="1.5"></path><path d="M789.1 218.71L1012.5 259.42" stroke="rgba(255, 0, 60, 1)" stroke-width="1.5"></path><path d="M789.1 218.71L555.38 261.53" stroke="rgba(255, 0, 60, 1)" stroke-width="1.5"></path><path d="M818.97 388.05L818.97 388.05" stroke="rgba(255, 0, 60, 1)" stroke-width="1.5"></path><path d="M818.97 388.05L803.59 547.36" stroke="rgba(255, 0, 60, 1)" stroke-width="1.5"></path><path d="M803.59 547.36L803.59 547.36" stroke="rgba(255, 0, 60, 1)" stroke-width="1.5"></path><path d="M803.59 547.36L797.4 679.08" stroke="rgba(255, 0, 60, 1)" stroke-width="1.5"></path><path d="M803.59 547.36L939.58 523.71" stroke="rgba(255, 0, 60, 1)" stroke-width="1.5"></path><path d="M803.59 547.36L658.87 360" stroke="rgba(255, 0, 60, 1)" stroke-width="1.5"></path><path d="M797.4 679.08L797.4 679.08" stroke="rgba(255, 0, 60, 1)" stroke-width="1.5"></path><path d="M990 -75.51L990 -75.51" stroke="rgba(255, 0, 60, 1)" stroke-width="1.5"></path><path d="M990 -75.51L1119.27 -61.63" stroke="rgba(255, 0, 60, 1)" stroke-width="1.5"></path><path d="M990 -75.51L953.65 106.28" stroke="rgba(255, 0, 60, 1)" stroke-width="1.5"></path><path d="M990 -75.51L1092.52 112.06" stroke="rgba(255, 0, 60, 1)" stroke-width="1.5"></path><path d="M990 -75.51L1278.98 -98.93" stroke="rgba(255, 0, 60, 1)" stroke-width="1.5"></path><path d="M990 -75.51L1012.5 259.42" stroke="rgba(255, 0, 60, 1)" stroke-width="1.5"></path><path d="M953.65 106.28L953.65 106.28" stroke="rgba(255, 0, 60, 1)" stroke-width="1.5"></path><path d="M953.65 106.28L1092.52 112.06" stroke="rgba(255, 0, 60, 1)" stroke-width="1.5"></path><path d="M953.65 106.28L1012.5 259.42" stroke="rgba(255, 0, 60, 1)" stroke-width="1.5"></path><path d="M1012.5 259.42L1012.5 259.42" stroke="rgba(255, 0, 60, 1)" stroke-width="1.5"></path><path d="M1012.5 259.42L1094.41 344.24" stroke="rgba(255, 0, 60, 1)" stroke-width="1.5"></path><path d="M1012.5 259.42L985.58 392.02" stroke="rgba(255, 0, 60, 1)" stroke-width="1.5"></path><path d="M985.58 392.02L985.58 392.02" stroke="rgba(255, 0, 60, 1)" stroke-width="1.5"></path><path d="M985.58 392.02L1094.41 344.24" stroke="rgba(255, 0, 60, 1)" stroke-width="1.5"></path><path d="M985.58 392.02L939.58 523.71" stroke="rgba(255, 0, 60, 1)" stroke-width="1.5"></path><path d="M985.58 392.02L818.97 388.05" stroke="rgba(255, 0, 60, 1)" stroke-width="1.5"></path><path d="M985.58 392.02L1132.92 550.93" stroke="rgba(255, 0, 60, 1)" stroke-width="1.5"></path><path d="M985.58 392.02L803.59 547.36" stroke="rgba(255, 0, 60, 1)" stroke-width="1.5"></path><path d="M939.58 523.71L939.58 523.71" stroke="rgba(255, 0, 60, 1)" stroke-width="1.5"></path><path d="M939.58 523.71L818.97 388.05" stroke="rgba(255, 0, 60, 1)" stroke-width="1.5"></path><path d="M939.58 523.71L998.94 699.46" stroke="rgba(255, 0, 60, 1)" stroke-width="1.5"></path><path d="M939.58 523.71L1132.92 550.93" stroke="rgba(255, 0, 60, 1)" stroke-width="1.5"></path><path d="M998.94 699.46L998.94 699.46" stroke="rgba(255, 0, 60, 1)" stroke-width="1.5"></path><path d="M998.94 699.46L1134.93 644.27" stroke="rgba(255, 0, 60, 1)" stroke-width="1.5"></path><path d="M998.94 699.46L1132.92 550.93" stroke="rgba(255, 0, 60, 1)" stroke-width="1.5"></path><path d="M998.94 699.46L797.4 679.08" stroke="rgba(255, 0, 60, 1)" stroke-width="1.5"></path><path d="M1119.27 -61.63L1119.27 -61.63" stroke="rgba(255, 0, 60, 1)" stroke-width="1.5"></path><path d="M1119.27 -61.63L1278.98 -98.93" stroke="rgba(255, 0, 60, 1)" stroke-width="1.5"></path><path d="M1119.27 -61.63L1092.52 112.06" stroke="rgba(255, 0, 60, 1)" stroke-width="1.5"></path><path d="M1119.27 -61.63L1292.39 73.81" stroke="rgba(255, 0, 60, 1)" stroke-width="1.5"></path><path d="M1092.52 112.06L1092.52 112.06" stroke="rgba(255, 0, 60, 1)" stroke-width="1.5"></path><path d="M1092.52 112.06L1012.5 259.42" stroke="rgba(255, 0, 60, 1)" stroke-width="1.5"></path><path d="M1092.52 112.06L1292.39 73.81" stroke="rgba(255, 0, 60, 1)" stroke-width="1.5"></path><path d="M1094.41 344.24L1094.41 344.24" stroke="rgba(255, 0, 60, 1)" stroke-width="1.5"></path><path d="M1132.92 550.93L1132.92 550.93" stroke="rgba(255, 0, 60, 1)" stroke-width="1.5"></path><path d="M1132.92 550.93L1134.93 644.27" stroke="rgba(255, 0, 60, 1)" stroke-width="1.5"></path><path d="M1132.92 550.93L1306.35 530.47" stroke="rgba(255, 0, 60, 1)" stroke-width="1.5"></path><path d="M1132.92 550.93L1295.59 648.77" stroke="rgba(255, 0, 60, 1)" stroke-width="1.5"></path><path d="M1132.92 550.93L1094.41 344.24" stroke="rgba(255, 0, 60, 1)" stroke-width="1.5"></path><path d="M1134.93 644.27L1134.93 644.27" stroke="rgba(255, 0, 60, 1)" stroke-width="1.5"></path><path d="M1134.93 644.27L1295.59 648.77" stroke="rgba(255, 0, 60, 1)" stroke-width="1.5"></path><path d="M1134.93 644.27L1306.35 530.47" stroke="rgba(255, 0, 60, 1)" stroke-width="1.5"></path><path d="M1278.98 -98.93L1278.98 -98.93" stroke="rgba(255, 0, 60, 1)" stroke-width="1.5"></path><path d="M1278.98 -98.93L1405.69 -91.75" stroke="rgba(255, 0, 60, 1)" stroke-width="1.5"></path><path d="M1278.98 -98.93L1292.39 73.81" stroke="rgba(255, 0, 60, 1)" stroke-width="1.5"></path><path d="M1278.98 -98.93L1461.64 67.48" stroke="rgba(255, 0, 60, 1)" stroke-width="1.5"></path><path d="M1278.98 -98.93L1092.52 112.06" stroke="rgba(255, 0, 60, 1)" stroke-width="1.5"></path><path d="M1292.39 73.81L1292.39 73.81" stroke="rgba(255, 0, 60, 1)" stroke-width="1.5"></path><path d="M1292.39 73.81L1287.95 214.53" stroke="rgba(255, 0, 60, 1)" stroke-width="1.5"></path><path d="M1292.39 73.81L1401.26 195.65" stroke="rgba(255, 0, 60, 1)" stroke-width="1.5"></path><path d="M1292.39 73.81L1461.64 67.48" stroke="rgba(255, 0, 60, 1)" stroke-width="1.5"></path><path d="M1287.95 214.53L1287.95 214.53" stroke="rgba(255, 0, 60, 1)" stroke-width="1.5"></path><path d="M1287.95 214.53L1401.26 195.65" stroke="rgba(255, 0, 60, 1)" stroke-width="1.5"></path><path d="M1287.95 214.53L1272.94 362.83" stroke="rgba(255, 0, 60, 1)" stroke-width="1.5"></path><path d="M1272.94 362.83L1272.94 362.83" stroke="rgba(255, 0, 60, 1)" stroke-width="1.5"></path><path d="M1272.94 362.83L1424.35 405.57" stroke="rgba(255, 0, 60, 1)" stroke-width="1.5"></path><path d="M1272.94 362.83L1306.35 530.47" stroke="rgba(255, 0, 60, 1)" stroke-width="1.5"></path><path d="M1272.94 362.83L1094.41 344.24" stroke="rgba(255, 0, 60, 1)" stroke-width="1.5"></path><path d="M1306.35 530.47L1306.35 530.47" stroke="rgba(255, 0, 60, 1)" stroke-width="1.5"></path><path d="M1306.35 530.47L1295.59 648.77" stroke="rgba(255, 0, 60, 1)" stroke-width="1.5"></path><path d="M1306.35 530.47L1451.03 535.35" stroke="rgba(255, 0, 60, 1)" stroke-width="1.5"></path><path d="M1306.35 530.47L1424.35 405.57" stroke="rgba(255, 0, 60, 1)" stroke-width="1.5"></path><path d="M1295.59 648.77L1295.59 648.77" stroke="rgba(255, 0, 60, 1)" stroke-width="1.5"></path><path d="M1295.59 648.77L1455.1 642.53" stroke="rgba(255, 0, 60, 1)" stroke-width="1.5"></path><path d="M1295.59 648.77L1451.03 535.35" stroke="rgba(255, 0, 60, 1)" stroke-width="1.5"></path><path d="M1295.59 648.77L1424.35 405.57" stroke="rgba(255, 0, 60, 1)" stroke-width="1.5"></path><path d="M1405.69 -91.75L1405.69 -91.75" stroke="rgba(255, 0, 60, 1)" stroke-width="1.5"></path><path d="M1405.69 -91.75L1461.64 67.48" stroke="rgba(255, 0, 60, 1)" stroke-width="1.5"></path><path d="M1405.69 -91.75L1591.83 -43.59" stroke="rgba(255, 0, 60, 1)" stroke-width="1.5"></path><path d="M1405.69 -91.75L1292.39 73.81" stroke="rgba(255, 0, 60, 1)" stroke-width="1.5"></path><path d="M1461.64 67.48L1461.64 67.48" stroke="rgba(255, 0, 60, 1)" stroke-width="1.5"></path><path d="M1461.64 67.48L1401.26 195.65" stroke="rgba(255, 0, 60, 1)" stroke-width="1.5"></path><path d="M1461.64 67.48L1603.94 99.41" stroke="rgba(255, 0, 60, 1)" stroke-width="1.5"></path><path d="M1461.64 67.48L1591.83 -43.59" stroke="rgba(255, 0, 60, 1)" stroke-width="1.5"></path><path d="M1461.64 67.48L1287.95 214.53" stroke="rgba(255, 0, 60, 1)" stroke-width="1.5"></path><path d="M1401.26 195.65L1401.26 195.65" stroke="rgba(255, 0, 60, 1)" stroke-width="1.5"></path><path d="M1424.35 405.57L1424.35 405.57" stroke="rgba(255, 0, 60, 1)" stroke-width="1.5"></path><path d="M1424.35 405.57L1451.03 535.35" stroke="rgba(255, 0, 60, 1)" stroke-width="1.5"></path><path d="M1424.35 405.57L1590.93 363.89" stroke="rgba(255, 0, 60, 1)" stroke-width="1.5"></path><path d="M1424.35 405.57L1401.26 195.65" stroke="rgba(255, 0, 60, 1)" stroke-width="1.5"></path><path d="M1451.03 535.35L1451.03 535.35" stroke="rgba(255, 0, 60, 1)" stroke-width="1.5"></path><path d="M1451.03 535.35L1455.1 642.53" stroke="rgba(255, 0, 60, 1)" stroke-width="1.5"></path><path d="M1451.03 535.35L1611.88 517.75" stroke="rgba(255, 0, 60, 1)" stroke-width="1.5"></path><path d="M1455.1 642.53L1455.1 642.53" stroke="rgba(255, 0, 60, 1)" stroke-width="1.5"></path><path d="M1455.1 642.53L1589.76 638.67" stroke="rgba(255, 0, 60, 1)" stroke-width="1.5"></path><path d="M1591.83 -43.59L1591.83 -43.59" stroke="rgba(255, 0, 60, 1)" stroke-width="1.5"></path><path d="M1591.83 -43.59L1603.94 99.41" stroke="rgba(255, 0, 60, 1)" stroke-width="1.5"></path><path d="M1591.83 -43.59L1401.26 195.65" stroke="rgba(255, 0, 60, 1)" stroke-width="1.5"></path><path d="M1603.94 99.41L1603.94 99.41" stroke="rgba(255, 0, 60, 1)" stroke-width="1.5"></path><path d="M1603.94 99.41L1401.26 195.65" stroke="rgba(255, 0, 60, 1)" stroke-width="1.5"></path><path d="M1603.94 99.41L1590.93 363.89" stroke="rgba(255, 0, 60, 1)" stroke-width="1.5"></path><path d="M1603.94 99.41L1405.69 -91.75" stroke="rgba(255, 0, 60, 1)" stroke-width="1.5"></path><path d="M1603.94 99.41L1292.39 73.81" stroke="rgba(255, 0, 60, 1)" stroke-width="1.5"></path><path d="M1590.93 363.89L1590.93 363.89" stroke="rgba(255, 0, 60, 1)" stroke-width="1.5"></path><path d="M1590.93 363.89L1611.88 517.75" stroke="rgba(255, 0, 60, 1)" stroke-width="1.5"></path><path d="M1611.88 517.75L1611.88 517.75" stroke="rgba(255, 0, 60, 1)" stroke-width="1.5"></path><path d="M1611.88 517.75L1589.76 638.67" stroke="rgba(255, 0, 60, 1)" stroke-width="1.5"></path><path d="M1589.76 638.67L1589.76 638.67" stroke="rgba(255, 0, 60, 1)" stroke-width="1.5"></path><path d="M1589.76 638.67L1451.03 535.35" stroke="rgba(255, 0, 60, 1)" stroke-width="1.5"></path><circle r="5" cx="-59.51" cy="401.43" fill="rgba(255, 0, 60, 1)"></circle><circle r="5" cx="-85.31" cy="517.32" fill="rgba(255, 0, 60, 1)"></circle><circle r="5" cx="96.37" cy="362.79" fill="rgba(255, 0, 60, 1)"></circle><circle r="5" cx="73.36" cy="507.11" fill="rgba(255, 0, 60, 1)"></circle><circle r="5" cx="68.91" cy="650.98" fill="rgba(255, 0, 60, 1)"></circle><circle r="5" cx="229.97" cy="356.85" fill="rgba(255, 0, 60, 1)"></circle><circle r="5" cx="211.56" cy="494.22" fill="rgba(255, 0, 60, 1)"></circle><circle r="5" cx="198.43" cy="675.98" fill="rgba(255, 0, 60, 1)"></circle><circle r="5" cx="360.92" cy="367.56" fill="rgba(255, 0, 60, 1)"></circle><circle r="5" cx="389.47" cy="559.44" fill="rgba(255, 0, 60, 1)"></circle><circle r="5" cx="411.11" cy="638.01" fill="rgba(255, 0, 60, 1)"></circle><circle r="5" cx="555.38" cy="261.53" fill="rgba(255, 0, 60, 1)"></circle><circle r="5" cx="496.81" cy="374.93" fill="rgba(255, 0, 60, 1)"></circle><circle r="5" cx="489.04" cy="688.67" fill="rgba(255, 0, 60, 1)"></circle><circle r="5" cx="658.87" cy="360" fill="rgba(255, 0, 60, 1)"></circle><circle r="5" cx="659.82" cy="670.9" fill="rgba(255, 0, 60, 1)"></circle><circle r="5" cx="789.1" cy="218.71" fill="rgba(255, 0, 60, 1)"></circle><circle r="5" cx="818.97" cy="388.05" fill="rgba(255, 0, 60, 1)"></circle><circle r="5" cx="803.59" cy="547.36" fill="rgba(255, 0, 60, 1)"></circle><circle r="5" cx="797.4" cy="679.08" fill="rgba(255, 0, 60, 1)"></circle><circle r="5" cx="990" cy="-75.51" fill="rgba(255, 0, 60, 1)"></circle><circle r="5" cx="953.65" cy="106.28" fill="rgba(255, 0, 60, 1)"></circle><circle r="5" cx="1012.5" cy="259.42" fill="rgba(255, 0, 60, 1)"></circle><circle r="5" cx="985.58" cy="392.02" fill="rgba(255, 0, 60, 1)"></circle><circle r="5" cx="939.58" cy="523.71" fill="rgba(255, 0, 60, 1)"></circle><circle r="5" cx="998.94" cy="699.46" fill="rgba(255, 0, 60, 1)"></circle><circle r="5" cx="1119.27" cy="-61.63" fill="rgba(255, 0, 60, 1)"></circle><circle r="5" cx="1092.52" cy="112.06" fill="rgba(255, 0, 60, 1)"></circle><circle r="5" cx="1094.41" cy="344.24" fill="rgba(255, 0, 60, 1)"></circle><circle r="5" cx="1132.92" cy="550.93" fill="rgba(255, 0, 60, 1)"></circle><circle r="5" cx="1134.93" cy="644.27" fill="rgba(255, 0, 60, 1)"></circle><circle r="5" cx="1278.98" cy="-98.93" fill="rgba(255, 0, 60, 1)"></circle><circle r="5" cx="1292.39" cy="73.81" fill="rgba(255, 0, 60, 1)"></circle><circle r="5" cx="1287.95" cy="214.53" fill="rgba(255, 0, 60, 1)"></circle><circle r="5" cx="1272.94" cy="362.83" fill="rgba(255, 0, 60, 1)"></circle><circle r="5" cx="1306.35" cy="530.47" fill="rgba(255, 0, 60, 1)"></circle><circle r="5" cx="1295.59" cy="648.77" fill="rgba(255, 0, 60, 1)"></circle><circle r="5" cx="1405.69" cy="-91.75" fill="rgba(255, 0, 60, 1)"></circle><circle r="5" cx="1461.64" cy="67.48" fill="rgba(255, 0, 60, 1)"></circle><circle r="5" cx="1401.26" cy="195.65" fill="rgba(255, 0, 60, 1)"></circle><circle r="5" cx="1424.35" cy="405.57" fill="rgba(255, 0, 60, 1)"></circle><circle r="5" cx="1451.03" cy="535.35" fill="rgba(255, 0, 60, 1)"></circle><circle r="5" cx="1455.1" cy="642.53" fill="rgba(255, 0, 60, 1)"></circle><circle r="5" cx="1591.83" cy="-43.59" fill="rgba(255, 0, 60, 1)"></circle><circle r="5" cx="1603.94" cy="99.41" fill="rgba(255, 0, 60, 1)"></circle><circle r="5" cx="1590.93" cy="363.89" fill="rgba(255, 0, 60, 1)"></circle><circle r="5" cx="1611.88" cy="517.75" fill="rgba(255, 0, 60, 1)"></circle><circle r="5" cx="1589.76" cy="638.67" fill="rgba(255, 0, 60, 1)"></circle><path d="M-81.22 710.37L-81.22 710.37" stroke="hsl(46.39999999999998, 100%, 65%)" stroke-width="1.5"></path><path d="M-81.22 710.37L-38.43 559.57" stroke="hsl(46.39999999999998, 100%, 65%)" stroke-width="1.5"></path><path d="M-81.22 710.37L90.89 550.65" stroke="hsl(46.39999999999998, 100%, 65%)" stroke-width="1.5"></path><path d="M-81.22 710.37L230.19 709.17" stroke="hsl(46.39999999999998, 100%, 65%)" stroke-width="1.5"></path><path d="M-81.22 710.37L205.65 493.91" stroke="hsl(46.39999999999998, 100%, 65%)" stroke-width="1.5"></path><path d="M230.19 709.17L230.19 709.17" stroke="hsl(46.39999999999998, 100%, 65%)" stroke-width="1.5"></path><path d="M230.19 709.17L392.66 642.47" stroke="hsl(46.39999999999998, 100%, 65%)" stroke-width="1.5"></path><path d="M230.19 709.17L90.89 550.65" stroke="hsl(46.39999999999998, 100%, 65%)" stroke-width="1.5"></path><path d="M672.61 377.19L672.61 377.19" stroke="hsl(46.39999999999998, 100%, 65%)" stroke-width="1.5"></path><path d="M672.61 377.19L689.47 490.3" stroke="hsl(46.39999999999998, 100%, 65%)" stroke-width="1.5"></path><path d="M672.61 377.19L794.95 357.18" stroke="hsl(46.39999999999998, 100%, 65%)" stroke-width="1.5"></path><path d="M672.61 377.19L811.12 525.71" stroke="hsl(46.39999999999998, 100%, 65%)" stroke-width="1.5"></path><path d="M672.61 377.19L526.54 539.11" stroke="hsl(46.39999999999998, 100%, 65%)" stroke-width="1.5"></path><path d="M672.61 377.19L940.96 493.88" stroke="hsl(46.39999999999998, 100%, 65%)" stroke-width="1.5"></path><path d="M794.95 357.18L794.95 357.18" stroke="hsl(46.39999999999998, 100%, 65%)" stroke-width="1.5"></path><path d="M794.95 357.18L811.12 525.71" stroke="hsl(46.39999999999998, 100%, 65%)" stroke-width="1.5"></path><path d="M1104.84 244.59L1104.84 244.59" stroke="hsl(46.39999999999998, 100%, 65%)" stroke-width="1.5"></path><path d="M1104.84 244.59L1143.64 398.77" stroke="hsl(46.39999999999998, 100%, 65%)" stroke-width="1.5"></path><path d="M1104.84 244.59L1260.96 201.48" stroke="hsl(46.39999999999998, 100%, 65%)" stroke-width="1.5"></path><path d="M1104.84 244.59L970.88 360.54" stroke="hsl(46.39999999999998, 100%, 65%)" stroke-width="1.5"></path><path d="M1306.26 411.31L1306.26 411.31" stroke="hsl(46.39999999999998, 100%, 65%)" stroke-width="1.5"></path><path d="M1306.26 411.31L1409.49 403.44" stroke="hsl(46.39999999999998, 100%, 65%)" stroke-width="1.5"></path><path d="M1306.26 411.31L1249.78 508.14" stroke="hsl(46.39999999999998, 100%, 65%)" stroke-width="1.5"></path><path d="M1306.26 411.31L1143.64 398.77" stroke="hsl(46.39999999999998, 100%, 65%)" stroke-width="1.5"></path><path d="M1306.26 411.31L1154.87 490.85" stroke="hsl(46.39999999999998, 100%, 65%)" stroke-width="1.5"></path><path d="M1306.26 411.31L1461.12 490.94" stroke="hsl(46.39999999999998, 100%, 65%)" stroke-width="1.5"></path><path d="M1549.6 -80.83L1549.6 -80.83" stroke="hsl(46.39999999999998, 100%, 65%)" stroke-width="1.5"></path><path d="M1549.6 -80.83L1403.06 -75.57" stroke="hsl(46.39999999999998, 100%, 65%)" stroke-width="1.5"></path><path d="M1549.6 -80.83L1565.98 75.28" stroke="hsl(46.39999999999998, 100%, 65%)" stroke-width="1.5"></path><path d="M1549.6 -80.83L1437.09 51.98" stroke="hsl(46.39999999999998, 100%, 65%)" stroke-width="1.5"></path><path d="M1549.6 -80.83L1276.82 -58.07" stroke="hsl(46.39999999999998, 100%, 65%)" stroke-width="1.5"></path><path d="M1549.6 -80.83L1302.1 49.42" stroke="hsl(46.39999999999998, 100%, 65%)" stroke-width="1.5"></path><path d="M1549.6 -80.83L1563.33 234.18" stroke="hsl(46.39999999999998, 100%, 65%)" stroke-width="1.5"></path><path d="M1559.85 523.28L1559.85 523.28" stroke="hsl(46.39999999999998, 100%, 65%)" stroke-width="1.5"></path><path d="M1559.85 523.28L1461.12 490.94" stroke="hsl(46.39999999999998, 100%, 65%)" stroke-width="1.5"></path><path d="M1559.85 523.28L1542.6 399.53" stroke="hsl(46.39999999999998, 100%, 65%)" stroke-width="1.5"></path><path d="M-38.43 559.57L-38.43 559.57" stroke="hsl(46.39999999999998, 100%, 65%)" stroke-width="1.5"></path><path d="M-38.43 559.57L90.89 550.65" stroke="hsl(46.39999999999998, 100%, 65%)" stroke-width="1.5"></path><path d="M90.89 550.65L90.89 550.65" stroke="hsl(46.39999999999998, 100%, 65%)" stroke-width="1.5"></path><path d="M90.89 550.65L205.65 493.91" stroke="hsl(46.39999999999998, 100%, 65%)" stroke-width="1.5"></path><path d="M90.89 550.65L342.52 520.12" stroke="hsl(46.39999999999998, 100%, 65%)" stroke-width="1.5"></path><path d="M205.65 493.91L205.65 493.91" stroke="hsl(46.39999999999998, 100%, 65%)" stroke-width="1.5"></path><path d="M205.65 493.91L342.52 520.12" stroke="hsl(46.39999999999998, 100%, 65%)" stroke-width="1.5"></path><path d="M342.52 520.12L342.52 520.12" stroke="hsl(46.39999999999998, 100%, 65%)" stroke-width="1.5"></path><path d="M342.52 520.12L392.66 642.47" stroke="hsl(46.39999999999998, 100%, 65%)" stroke-width="1.5"></path><path d="M342.52 520.12L526.54 539.11" stroke="hsl(46.39999999999998, 100%, 65%)" stroke-width="1.5"></path><path d="M392.66 642.47L392.66 642.47" stroke="hsl(46.39999999999998, 100%, 65%)" stroke-width="1.5"></path><path d="M392.66 642.47L490.72 658.02" stroke="hsl(46.39999999999998, 100%, 65%)" stroke-width="1.5"></path><path d="M526.54 539.11L526.54 539.11" stroke="hsl(46.39999999999998, 100%, 65%)" stroke-width="1.5"></path><path d="M526.54 539.11L490.72 658.02" stroke="hsl(46.39999999999998, 100%, 65%)" stroke-width="1.5"></path><path d="M526.54 539.11L392.66 642.47" stroke="hsl(46.39999999999998, 100%, 65%)" stroke-width="1.5"></path><path d="M526.54 539.11L689.47 490.3" stroke="hsl(46.39999999999998, 100%, 65%)" stroke-width="1.5"></path><path d="M490.72 658.02L490.72 658.02" stroke="hsl(46.39999999999998, 100%, 65%)" stroke-width="1.5"></path><path d="M490.72 658.02L663.85 694.53" stroke="hsl(46.39999999999998, 100%, 65%)" stroke-width="1.5"></path><path d="M490.72 658.02L342.52 520.12" stroke="hsl(46.39999999999998, 100%, 65%)" stroke-width="1.5"></path><path d="M689.47 490.3L689.47 490.3" stroke="hsl(46.39999999999998, 100%, 65%)" stroke-width="1.5"></path><path d="M689.47 490.3L811.12 525.71" stroke="hsl(46.39999999999998, 100%, 65%)" stroke-width="1.5"></path><path d="M689.47 490.3L794.95 357.18" stroke="hsl(46.39999999999998, 100%, 65%)" stroke-width="1.5"></path><path d="M689.47 490.3L663.85 694.53" stroke="hsl(46.39999999999998, 100%, 65%)" stroke-width="1.5"></path><path d="M663.85 694.53L663.85 694.53" stroke="hsl(46.39999999999998, 100%, 65%)" stroke-width="1.5"></path><path d="M663.85 694.53L851.91 666.3" stroke="hsl(46.39999999999998, 100%, 65%)" stroke-width="1.5"></path><path d="M811.12 525.71L811.12 525.71" stroke="hsl(46.39999999999998, 100%, 65%)" stroke-width="1.5"></path><path d="M811.12 525.71L940.96 493.88" stroke="hsl(46.39999999999998, 100%, 65%)" stroke-width="1.5"></path><path d="M851.91 666.3L851.91 666.3" stroke="hsl(46.39999999999998, 100%, 65%)" stroke-width="1.5"></path><path d="M851.91 666.3L811.12 525.71" stroke="hsl(46.39999999999998, 100%, 65%)" stroke-width="1.5"></path><path d="M851.91 666.3L940.96 493.88" stroke="hsl(46.39999999999998, 100%, 65%)" stroke-width="1.5"></path><path d="M851.91 666.3L689.47 490.3" stroke="hsl(46.39999999999998, 100%, 65%)" stroke-width="1.5"></path><path d="M851.91 666.3L1092.03 701.38" stroke="hsl(46.39999999999998, 100%, 65%)" stroke-width="1.5"></path><path d="M851.91 666.3L794.95 357.18" stroke="hsl(46.39999999999998, 100%, 65%)" stroke-width="1.5"></path><path d="M970.88 360.54L970.88 360.54" stroke="hsl(46.39999999999998, 100%, 65%)" stroke-width="1.5"></path><path d="M970.88 360.54L940.96 493.88" stroke="hsl(46.39999999999998, 100%, 65%)" stroke-width="1.5"></path><path d="M940.96 493.88L940.96 493.88" stroke="hsl(46.39999999999998, 100%, 65%)" stroke-width="1.5"></path><path d="M1143.64 398.77L1143.64 398.77" stroke="hsl(46.39999999999998, 100%, 65%)" stroke-width="1.5"></path><path d="M1143.64 398.77L1154.87 490.85" stroke="hsl(46.39999999999998, 100%, 65%)" stroke-width="1.5"></path><path d="M1143.64 398.77L1249.78 508.14" stroke="hsl(46.39999999999998, 100%, 65%)" stroke-width="1.5"></path><path d="M1143.64 398.77L970.88 360.54" stroke="hsl(46.39999999999998, 100%, 65%)" stroke-width="1.5"></path><path d="M1154.87 490.85L1154.87 490.85" stroke="hsl(46.39999999999998, 100%, 65%)" stroke-width="1.5"></path><path d="M1154.87 490.85L1249.78 508.14" stroke="hsl(46.39999999999998, 100%, 65%)" stroke-width="1.5"></path><path d="M1154.87 490.85L1307.22 640.26" stroke="hsl(46.39999999999998, 100%, 65%)" stroke-width="1.5"></path><path d="M1092.03 701.38L1092.03 701.38" stroke="hsl(46.39999999999998, 100%, 65%)" stroke-width="1.5"></path><path d="M1092.03 701.38L1154.87 490.85" stroke="hsl(46.39999999999998, 100%, 65%)" stroke-width="1.5"></path><path d="M1092.03 701.38L1307.22 640.26" stroke="hsl(46.39999999999998, 100%, 65%)" stroke-width="1.5"></path><path d="M1092.03 701.38L1249.78 508.14" stroke="hsl(46.39999999999998, 100%, 65%)" stroke-width="1.5"></path><path d="M1092.03 701.38L940.96 493.88" stroke="hsl(46.39999999999998, 100%, 65%)" stroke-width="1.5"></path><path d="M1276.82 -58.07L1276.82 -58.07" stroke="hsl(46.39999999999998, 100%, 65%)" stroke-width="1.5"></path><path d="M1276.82 -58.07L1302.1 49.42" stroke="hsl(46.39999999999998, 100%, 65%)" stroke-width="1.5"></path><path d="M1276.82 -58.07L1403.06 -75.57" stroke="hsl(46.39999999999998, 100%, 65%)" stroke-width="1.5"></path><path d="M1276.82 -58.07L1437.09 51.98" stroke="hsl(46.39999999999998, 100%, 65%)" stroke-width="1.5"></path><path d="M1276.82 -58.07L1260.96 201.48" stroke="hsl(46.39999999999998, 100%, 65%)" stroke-width="1.5"></path><path d="M1302.1 49.42L1302.1 49.42" stroke="hsl(46.39999999999998, 100%, 65%)" stroke-width="1.5"></path><path d="M1302.1 49.42L1437.09 51.98" stroke="hsl(46.39999999999998, 100%, 65%)" stroke-width="1.5"></path><path d="M1302.1 49.42L1260.96 201.48" stroke="hsl(46.39999999999998, 100%, 65%)" stroke-width="1.5"></path><path d="M1260.96 201.48L1260.96 201.48" stroke="hsl(46.39999999999998, 100%, 65%)" stroke-width="1.5"></path><path d="M1249.78 508.14L1249.78 508.14" stroke="hsl(46.39999999999998, 100%, 65%)" stroke-width="1.5"></path><path d="M1249.78 508.14L1307.22 640.26" stroke="hsl(46.39999999999998, 100%, 65%)" stroke-width="1.5"></path><path d="M1307.22 640.26L1307.22 640.26" stroke="hsl(46.39999999999998, 100%, 65%)" stroke-width="1.5"></path><path d="M1307.22 640.26L1439.07 707.92" stroke="hsl(46.39999999999998, 100%, 65%)" stroke-width="1.5"></path><path d="M1403.06 -75.57L1403.06 -75.57" stroke="hsl(46.39999999999998, 100%, 65%)" stroke-width="1.5"></path><path d="M1403.06 -75.57L1437.09 51.98" stroke="hsl(46.39999999999998, 100%, 65%)" stroke-width="1.5"></path><path d="M1403.06 -75.57L1302.1 49.42" stroke="hsl(46.39999999999998, 100%, 65%)" stroke-width="1.5"></path><path d="M1403.06 -75.57L1565.98 75.28" stroke="hsl(46.39999999999998, 100%, 65%)" stroke-width="1.5"></path><path d="M1403.06 -75.57L1260.96 201.48" stroke="hsl(46.39999999999998, 100%, 65%)" stroke-width="1.5"></path><path d="M1437.09 51.98L1437.09 51.98" stroke="hsl(46.39999999999998, 100%, 65%)" stroke-width="1.5"></path><path d="M1437.09 51.98L1565.98 75.28" stroke="hsl(46.39999999999998, 100%, 65%)" stroke-width="1.5"></path><path d="M1437.09 51.98L1563.33 234.18" stroke="hsl(46.39999999999998, 100%, 65%)" stroke-width="1.5"></path><path d="M1409.49 403.44L1409.49 403.44" stroke="hsl(46.39999999999998, 100%, 65%)" stroke-width="1.5"></path><path d="M1409.49 403.44L1461.12 490.94" stroke="hsl(46.39999999999998, 100%, 65%)" stroke-width="1.5"></path><path d="M1409.49 403.44L1542.6 399.53" stroke="hsl(46.39999999999998, 100%, 65%)" stroke-width="1.5"></path><path d="M1409.49 403.44L1249.78 508.14" stroke="hsl(46.39999999999998, 100%, 65%)" stroke-width="1.5"></path><path d="M1461.12 490.94L1461.12 490.94" stroke="hsl(46.39999999999998, 100%, 65%)" stroke-width="1.5"></path><path d="M1461.12 490.94L1542.6 399.53" stroke="hsl(46.39999999999998, 100%, 65%)" stroke-width="1.5"></path><path d="M1439.07 707.92L1439.07 707.92" stroke="hsl(46.39999999999998, 100%, 65%)" stroke-width="1.5"></path><path d="M1439.07 707.92L1548.44 652.73" stroke="hsl(46.39999999999998, 100%, 65%)" stroke-width="1.5"></path><path d="M1565.98 75.28L1565.98 75.28" stroke="hsl(46.39999999999998, 100%, 65%)" stroke-width="1.5"></path><path d="M1563.33 234.18L1563.33 234.18" stroke="hsl(46.39999999999998, 100%, 65%)" stroke-width="1.5"></path><path d="M1563.33 234.18L1565.98 75.28" stroke="hsl(46.39999999999998, 100%, 65%)" stroke-width="1.5"></path><path d="M1563.33 234.18L1542.6 399.53" stroke="hsl(46.39999999999998, 100%, 65%)" stroke-width="1.5"></path><path d="M1542.6 399.53L1542.6 399.53" stroke="hsl(46.39999999999998, 100%, 65%)" stroke-width="1.5"></path><path d="M1548.44 652.73L1548.44 652.73" stroke="hsl(46.39999999999998, 100%, 65%)" stroke-width="1.5"></path><path d="M1548.44 652.73L1559.85 523.28" stroke="hsl(46.39999999999998, 100%, 65%)" stroke-width="1.5"></path><circle r="25" cx="-81.22" cy="710.37" fill="url(#SvgjsRadialGradient1019)"></circle><circle r="25" cx="230.19" cy="709.17" fill="url(#SvgjsRadialGradient1019)"></circle><circle r="25" cx="672.61" cy="377.19" fill="url(#SvgjsRadialGradient1019)"></circle><circle r="25" cx="794.95" cy="357.18" fill="url(#SvgjsRadialGradient1019)"></circle><circle r="25" cx="1104.84" cy="244.59" fill="url(#SvgjsRadialGradient1019)"></circle><circle r="25" cx="1306.26" cy="411.31" fill="url(#SvgjsRadialGradient1019)"></circle><circle r="25" cx="1549.6" cy="-80.83" fill="url(#SvgjsRadialGradient1019)"></circle><circle r="25" cx="1559.85" cy="523.28" fill="url(#SvgjsRadialGradient1019)"></circle><circle r="5" cx="-38.43" cy="559.57" fill="#ffe280"></circle><circle r="5" cx="90.89" cy="550.65" fill="#ffe280"></circle><circle r="5" cx="205.65" cy="493.91" fill="#ffe280"></circle><circle r="5" cx="342.52" cy="520.12" fill="#ffe280"></circle><circle r="5" cx="392.66" cy="642.47" fill="#ffe280"></circle><circle r="5" cx="526.54" cy="539.11" fill="#ffe280"></circle><circle r="5" cx="490.72" cy="658.02" fill="#ffe280"></circle><circle r="5" cx="689.47" cy="490.3" fill="#ffe280"></circle><circle r="5" cx="663.85" cy="694.53" fill="#ffe280"></circle><circle r="5" cx="811.12" cy="525.71" fill="#ffe280"></circle><circle r="5" cx="851.91" cy="666.3" fill="#ffe280"></circle><circle r="5" cx="970.88" cy="360.54" fill="#ffe280"></circle><circle r="5" cx="940.96" cy="493.88" fill="#ffe280"></circle><circle r="5" cx="1143.64" cy="398.77" fill="#ffe280"></circle><circle r="5" cx="1154.87" cy="490.85" fill="#ffe280"></circle><circle r="5" cx="1092.03" cy="701.38" fill="#ffe280"></circle><circle r="5" cx="1276.82" cy="-58.07" fill="#ffe280"></circle><circle r="5" cx="1302.1" cy="49.42" fill="#ffe280"></circle><circle r="5" cx="1260.96" cy="201.48" fill="#ffe280"></circle><circle r="5" cx="1249.78" cy="508.14" fill="#ffe280"></circle><circle r="5" cx="1307.22" cy="640.26" fill="#ffe280"></circle><circle r="5" cx="1403.06" cy="-75.57" fill="#ffe280"></circle><circle r="5" cx="1437.09" cy="51.98" fill="#ffe280"></circle><circle r="5" cx="1409.49" cy="403.44" fill="#ffe280"></circle><circle r="5" cx="1461.12" cy="490.94" fill="#ffe280"></circle><circle r="5" cx="1439.07" cy="707.92" fill="#ffe280"></circle><circle r="5" cx="1565.98" cy="75.28" fill="#ffe280"></circle><circle r="5" cx="1563.33" cy="234.18" fill="#ffe280"></circle><circle r="5" cx="1542.6" cy="399.53" fill="#ffe280"></circle><circle r="5" cx="1548.44" cy="652.73" fill="#ffe280"></circle></g><defs><mask id="SvgjsMask1018"><rect width="1440" height="560" fill="#ffffff"></rect></mask><radialGradient id="SvgjsRadialGradient1019"><stop stop-color="#ffffff" offset="0.1"></stop><stop stop-color="rgba(255, 197, 0, 1)" offset="0.2"></stop><stop stop-color="rgba(255, 197, 0, 0)" offset="1"></stop></radialGradient></defs></svg>