<svg xmlns="http://www.w3.org/2000/svg" version="1.1" xmlns:xlink="http://www.w3.org/1999/xlink" xmlns:svgjs="http://svgjs.com/svgjs" width="1440" height="560" preserveAspectRatio="none" viewBox="0 0 1440 560"><g mask="url(&quot;#SvgjsMask1085&quot;)" fill="none"><path d="M -321.20736219479454,189 C -249.21,223.2 -105.21,354 38.792637805205466,360 C 182.79,366 254.79,205.4 398.79263780520546,219 C 542.79,232.6 614.79,443.6 758.7926378052055,428 C 902.79,412.4 974.79,152.4 1118.7926378052055,141 C 1262.79,129.6 1414.55,366.6 1478.7926378052055,371 C 1543.03,375.4 1447.76,204.6 1440,163" stroke="rgba(255, 0, 60, 0.7)" stroke-width="2"></path><path d="M -587.5183502376384,437 C -515.52,404.2 -371.52,298.2 -227.51835023763843,273 C -83.52,247.8 -11.52,325.4 132.48164976236157,311 C 276.48,296.6 348.48,176 492.4816497623616,201 C 636.48,226 708.48,424.8 852.4816497623616,436 C 996.48,447.2 1094.98,251.6 1212.4816497623615,257 C 1329.99,262.4 1394.5,421.8 1440,463" stroke="rgba(255, 0, 60, 0.7)" stroke-width="2"></path><path d="M -96.17146506452696,350 C -24.17,315.8 119.83,154.8 263.82853493547304,179 C 407.83,203.2 479.83,453.8 623.828534935473,471 C 767.83,488.2 839.83,278 983.828534935473,265 C 1127.83,252 1199.83,411.4 1343.828534935473,406 C 1487.83,400.6 1684.59,228.8 1703.828534935473,238 C 1723.06,247.2 1492.77,409.2 1440,452" stroke="rgba(51, 121, 194, 0.58)" stroke-width="2"></path></g><defs><mask id="SvgjsMask1085"><rect width="1440" height="560" fill="#ffffff"></rect></mask></defs></svg>