<svg xmlns="http://www.w3.org/2000/svg" version="1.1" xmlns:xlink="http://www.w3.org/1999/xlink" xmlns:svgjs="http://svgjs.com/svgjs" width="1440" height="560" preserveAspectRatio="none" viewBox="0 0 1440 560"><g mask="url(&quot;#SvgjsMask1083&quot;)" fill="none"><path d="M -21.34639012104458,437 C 50.65,405.4 194.65,291.8 338.6536098789554,279 C 482.65,266.2 554.65,400.4 698.6536098789554,373 C 842.65,345.6 914.65,136.4 1058.6536098789554,142 C 1202.65,147.6 1274.65,401.8 1418.6536098789554,401 C 1562.65,400.2 1774.38,157.8 1778.6536098789554,138 C 1782.92,118.2 1507.73,269.2 1440,302" stroke="rgba(255, 0, 60, 0.7)" stroke-width="2"></path><path d="M -460.9794301125612,314 C -388.98,290.8 -244.98,201.4 -100.97943011256119,198 C 43.02,194.6 115.02,296 259.0205698874388,297 C 403.02,298 475.02,186 619.0205698874388,203 C 763.02,220 835.02,398.2 979.0205698874388,382 C 1123.02,365.8 1246.82,132.4 1339.0205698874388,122 C 1431.22,111.6 1419.8,288.4 1440,330" stroke="rgba(255, 0, 60, 0.7)" stroke-width="2"></path><path d="M -269.4345876010633,452 C -197.43,393.8 -53.43,177.2 90.5654123989367,161 C 234.57,144.8 306.57,369.8 450.5654123989367,371 C 594.57,372.2 666.57,180 810.5654123989367,167 C 954.57,154 1026.57,289.2 1170.5654123989366,306 C 1314.57,322.8 1476.68,230.8 1530.5654123989366,251 C 1584.45,271.2 1458.11,375.8 1440,407" stroke="rgba(51, 121, 194, 0.58)" stroke-width="2"></path></g><defs><mask id="SvgjsMask1083"><rect width="1440" height="560" fill="#ffffff"></rect></mask></defs></svg>