<svg xmlns="http://www.w3.org/2000/svg" version="1.1" xmlns:xlink="http://www.w3.org/1999/xlink" xmlns:svgjs="http://svgjs.com/svgjs" width="1440" height="560" preserveAspectRatio="none" viewBox="0 0 1440 560"><g mask="url(&quot;#SvgjsMask1089&quot;)" fill="none"><path d="M -536.2795088547088,274 C -464.28,304 -320.28,450.6 -176.27950885470872,424 C -32.28,397.4 39.72,165 183.72049114529128,141 C 327.72,117 399.72,298.4 543.7204911452912,304 C 687.72,309.6 759.72,164.8 903.7204911452912,169 C 1047.72,173.2 1156.46,329.4 1263.7204911452914,325 C 1370.98,320.6 1404.74,182.6 1440,147" stroke="rgba(255, 0, 60, 0.7)" stroke-width="2"></path><path d="M -36.15694173624087,362 C 35.84,320.2 179.84,160.2 323.84305826375913,153 C 467.84,145.8 539.84,314 683.8430582637591,326 C 827.84,338 899.84,221.4 1043.843058263759,213 C 1187.84,204.6 1259.84,278.4 1403.843058263759,284 C 1547.84,289.6 1756.61,208.4 1763.843058263759,241 C 1771.07,273.6 1504.77,405.8 1440,447" stroke="rgba(51, 121, 194, 0.58)" stroke-width="2"></path><path d="M -137.16710230725724,290 C -65.17,277.6 78.83,217.8 222.83289769274276,228 C 366.83,238.2 438.83,353.4 582.8328976927428,341 C 726.83,328.6 798.83,142.8 942.8328976927428,166 C 1086.83,189.2 1158.83,460.8 1302.8328976927428,457 C 1446.83,453.2 1635.4,175.2 1662.8328976927428,147 C 1690.27,118.8 1484.57,282.2 1440,316" stroke="rgba(255, 0, 60, 0.7)" stroke-width="2"></path><path d="M -558.8244179615982,151 C -486.82,200 -342.82,376.8 -198.82441796159824,396 C -54.82,415.2 17.18,263.6 161.17558203840176,247 C 305.18,230.4 377.18,323.6 521.1755820384018,313 C 665.18,302.4 737.18,177 881.1755820384018,194 C 1025.18,211 1129.41,420 1241.1755820384017,398 C 1352.94,376 1400.24,146.8 1440,84" stroke="rgba(51, 121, 194, 0.58)" stroke-width="2"></path><path d="M -349.7586880677161,439 C -277.76,394.6 -133.76,247.8 10.241311932283907,217 C 154.24,186.2 226.24,276.4 370.2413119322839,285 C 514.24,293.6 586.24,240.2 730.2413119322839,260 C 874.24,279.8 946.24,392.8 1090.241311932284,384 C 1234.24,375.2 1380.29,198 1450.241311932284,216 C 1520.19,234 1442.05,422.4 1440,474" stroke="rgba(51, 121, 194, 0.58)" stroke-width="2"></path><path d="M -565.7957822953504,195 C -493.8,227.6 -349.8,341.6 -205.7957822953503,358 C -61.8,374.4 10.2,288.2 154.2042177046497,277 C 298.2,265.8 370.2,321.8 514.2042177046496,302 C 658.2,282.2 730.2,153 874.2042177046496,178 C 1018.2,203 1121.05,424.8 1234.2042177046496,427 C 1347.36,429.2 1398.84,236.6 1440,189" stroke="rgba(51, 121, 194, 0.58)" stroke-width="2"></path></g><defs><mask id="SvgjsMask1089"><rect width="1440" height="560" fill="#ffffff"></rect></mask></defs></svg>