<svg xmlns="http://www.w3.org/2000/svg" version="1.1" xmlns:xlink="http://www.w3.org/1999/xlink" xmlns:svgjs="http://svgjs.com/svgjs" width="1440" height="560" preserveAspectRatio="none" viewBox="0 0 1440 560"><g mask="url(&quot;#SvgjsMask1090&quot;)" fill="none"><path d="M -334.02276833295565,459 C -262.02,412.6 -118.02,262 25.977231667044343,227 C 169.98,192 241.98,280.2 385.97723166704435,284 C 529.98,287.8 601.98,232.2 745.9772316670443,246 C 889.98,259.8 961.98,348.4 1105.9772316670444,353 C 1249.98,357.6 1399.17,271.8 1465.9772316670444,269 C 1532.78,266.2 1445.2,325 1440,339" stroke="rgba(255, 0, 60, 0.7)" stroke-width="2"></path><path d="M -490.03499346333126,292 C -418.03,266.6 -274.03,154.2 -130.0349934633313,165 C 13.97,175.8 85.97,357.6 229.9650065366687,346 C 373.97,334.4 445.97,113 589.9650065366687,107 C 733.97,101 805.97,313.8 949.9650065366687,316 C 1093.97,318.2 1211.96,105 1309.9650065366686,118 C 1407.97,131 1413.99,328.4 1440,381" stroke="rgba(255, 0, 60, 0.7)" stroke-width="2"></path><path d="M -408.8888477199061,186 C -336.89,241.2 -192.89,470.4 -48.88884771990608,462 C 95.11,453.6 167.11,175.6 311.1111522800939,144 C 455.11,112.4 527.11,283.8 671.111152280094,304 C 815.11,324.2 887.11,232.6 1031.1111522800938,245 C 1175.11,257.4 1309.33,385.4 1391.1111522800938,366 C 1472.89,346.6 1430.22,191.6 1440,148" stroke="rgba(51, 121, 194, 0.58)" stroke-width="2"></path><path d="M -409.1701547545157,408 C -337.17,352.6 -193.17,132 -49.1701547545157,131 C 94.83,130 166.83,404.2 310.8298452454843,403 C 454.83,401.8 526.83,124 670.8298452454843,125 C 814.83,126 886.83,406.2 1030.8298452454842,408 C 1174.83,409.8 1309,136.6 1390.8298452454842,134 C 1472.66,131.4 1430.17,342.8 1440,395" stroke="rgba(255, 0, 60, 0.7)" stroke-width="2"></path><path d="M -364.2088063801182,179 C -292.21,218.8 -148.21,358.2 -4.208806380118149,378 C 139.79,397.8 211.79,289.6 355.7911936198818,278 C 499.79,266.4 571.79,322 715.7911936198818,320 C 859.79,318 931.79,249.6 1075.7911936198818,268 C 1219.79,286.4 1362.95,427.4 1435.7911936198818,412 C 1508.63,396.6 1439.16,235.2 1440,191" stroke="rgba(51, 121, 194, 0.58)" stroke-width="2"></path><path d="M -566.5601289626911,233 C -494.56,258.6 -350.56,362 -206.56012896269107,361 C -62.56,360 9.44,233 153.43987103730893,228 C 297.44,223 369.44,348 513.4398710373089,336 C 657.44,324 729.44,171.8 873.4398710373089,168 C 1017.44,164.2 1120.13,300.6 1233.4398710373089,317 C 1346.75,333.4 1398.69,263.4 1440,250" stroke="rgba(255, 0, 60, 0.7)" stroke-width="2"></path></g><defs><mask id="SvgjsMask1090"><rect width="1440" height="560" fill="#ffffff"></rect></mask></defs></svg>